<?xml version="1.0" encoding="UTF-8" standalone="no"?>
<svg width="22px" height="22px" viewBox="0 0 22 22" version="1.1" xmlns="http://www.w3.org/2000/svg" xmlns:xlink="http://www.w3.org/1999/xlink">
    <!-- Generator: Sketch 3.8.3 (29802) - http://www.bohemiancoding.com/sketch -->
    <title>green-gluten</title>
    <desc>Created with Sketch.</desc>
    <defs></defs>
    <g id="Super-Gluten" stroke="none" stroke-width="1" fill="none" fill-rule="evenodd">
        <g id="Buscador-Cacahuete" transform="translate(-40.000000, -494.000000)">
            <g id="Group-19-Copy-3" transform="translate(40.000000, 494.000000)">
                <g id="green-gluten">
                    <circle id="Oval-44" fill="#94CB55" cx="11" cy="11" r="11"></circle>
                    <path d="M8.74526692,6.89665811 L8.27287131,7.02789861 C7.71900318,7.11077456 7.28383835,7.54799988 7.20139879,8.10504292 L7.07084934,8.57993912 L7.54324494,8.44869861 C8.09735483,8.36582266 8.53227791,7.92859735 8.61495923,7.37155431 L8.74526692,6.89665811 L8.74526692,6.89665811 L8.74526692,6.89665811 Z" id="Fill-283" fill="#FFFFFF" transform="translate(7.908058, 7.738299) rotate(-90.000000) translate(-7.908058, -7.738299) "></path>
                    <path d="M8.74526692,6.89665811 L8.27287131,7.02789861 C7.71900318,7.11077456 7.28383835,7.54799988 7.20139879,8.10504292 L7.07084934,8.57993912 L7.54324494,8.44869861 C8.09735483,8.36582266 8.53227791,7.92859735 8.61495923,7.37155431 L8.74526692,6.89665811 L8.74526692,6.89665811 L8.74526692,6.89665811 Z" id="Stroke-284" stroke="#FFFFFF" stroke-width="0.5" transform="translate(7.908058, 7.738299) rotate(-90.000000) translate(-7.908058, -7.738299) "></path>
                    <path d="M7.57615891,8.43926528 L7.33440067,8.86774123 C7.0007743,9.32027794 7.0007743,9.93856654 7.33440067,10.3911033 L7.57615891,10.8195792 L7.81791716,10.3911033 C8.15130177,9.93856654 8.15130177,9.32027794 7.81791716,8.86774123 L7.57615891,8.43926528 L7.57615891,8.43926528 L7.57615891,8.43926528 Z" id="Fill-285" fill="#FFFFFF" transform="translate(7.576068, 9.629422) rotate(-90.000000) translate(-7.576068, -9.629422) "></path>
                    <path d="M7.57615891,8.43926528 L7.33440067,8.86774123 C7.0007743,9.32027794 7.0007743,9.93856654 7.33440067,10.3911033 L7.57615891,10.8195792 L7.81791716,10.3911033 C8.15130177,9.93856654 8.15130177,9.32027794 7.81791716,8.86774123 L7.57615891,8.43926528 L7.57615891,8.43926528 L7.57615891,8.43926528 Z" id="Stroke-286" stroke="#FFFFFF" stroke-width="0.5" transform="translate(7.576068, 9.629422) rotate(-90.000000) translate(-7.576068, -9.629422) "></path>
                    <path d="M10.9814463,7.41978213 L10.5552266,7.17674416 C10.1050727,6.84159479 9.48979798,6.84159479 9.03964413,7.17674416 L8.61342435,7.41978213 L9.03964413,7.66282011 C9.48979798,7.99796947 10.1050727,7.99796947 10.5552266,7.66282011 L10.9814463,7.41978213 L10.9814463,7.41978213 L10.9814463,7.41978213 Z" id="Fill-287" fill="#FFFFFF" transform="translate(9.797435, 7.419782) rotate(-90.000000) translate(-9.797435, -7.419782) "></path>
                    <path d="M10.9814463,7.41978213 L10.5552266,7.17674416 C10.1050727,6.84159479 9.48979798,6.84159479 9.03964413,7.17674416 L8.61342435,7.41978213 L9.03964413,7.66282011 C9.48979798,7.99796947 10.1050727,7.99796947 10.5552266,7.66282011 L10.9814463,7.41978213 L10.9814463,7.41978213 L10.9814463,7.41978213 Z" id="Stroke-288" stroke="#FFFFFF" stroke-width="0.5" transform="translate(9.797435, 7.419782) rotate(-90.000000) translate(-9.797435, -7.419782) "></path>
                    <path d="M9.12285258,9.97781473 L8.88109434,10.4062907 C8.54746797,10.8588274 8.54746797,11.477116 8.88109434,11.9296527 L9.12285258,12.3581287 L9.36461083,11.9296527 C9.69799544,11.477116 9.69799544,10.8588274 9.36461083,10.4062907 L9.12285258,9.97781473 L9.12285258,9.97781473 L9.12285258,9.97781473 Z" id="Fill-289" fill="#FFFFFF" transform="translate(9.122762, 11.167972) rotate(-90.000000) translate(-9.122762, -11.167972) "></path>
                    <path d="M9.12285258,9.97781473 L8.88109434,10.4062907 C8.54746797,10.8588274 8.54746797,11.477116 8.88109434,11.9296527 L9.12285258,12.3581287 L9.36461083,11.9296527 C9.69799544,11.477116 9.69799544,10.8588274 9.36461083,10.4062907 L9.12285258,9.97781473 L9.12285258,9.97781473 L9.12285258,9.97781473 Z" id="Stroke-290" stroke="#FFFFFF" stroke-width="0.5" transform="translate(9.122762, 11.167972) rotate(-90.000000) translate(-9.122762, -11.167972) "></path>
                    <path d="M12.52814,8.95833158 L12.1019202,8.71529361 C11.6517664,8.38014424 11.0364917,8.38014424 10.5863378,8.71529361 L10.160118,8.95833158 L10.5863378,9.20136956 C11.0364917,9.53651892 11.6517664,9.53651892 12.1019202,9.20136956 L12.52814,8.95833158 L12.52814,8.95833158 L12.52814,8.95833158 Z" id="Fill-291" fill="#FFFFFF" transform="translate(11.344129, 8.958332) rotate(-90.000000) translate(-11.344129, -8.958332) "></path>
                    <path d="M12.52814,8.95833158 L12.1019202,8.71529361 C11.6517664,8.38014424 11.0364917,8.38014424 10.5863378,8.71529361 L10.160118,8.95833158 L10.5863378,9.20136956 C11.0364917,9.53651892 11.6517664,9.53651892 12.1019202,9.20136956 L12.52814,8.95833158 L12.52814,8.95833158 L12.52814,8.95833158 Z" id="Stroke-292" stroke="#FFFFFF" stroke-width="0.5" transform="translate(11.344129, 8.958332) rotate(-90.000000) translate(-11.344129, -8.958332) "></path>
                    <path d="M10.6695463,11.5163642 L10.427788,11.9448401 C10.0941616,12.3973768 10.0941616,13.0156654 10.427788,13.4682022 L10.6695463,13.8966781 L10.9113045,13.4682022 C11.2446891,13.0156654 11.2446891,12.3973768 10.9113045,11.9448401 L10.6695463,11.5163642 L10.6695463,11.5163642 L10.6695463,11.5163642 Z" id="Fill-293" fill="#FFFFFF" transform="translate(10.669456, 12.706521) rotate(-90.000000) translate(-10.669456, -12.706521) "></path>
                    <path d="M10.6695463,11.5163642 L10.427788,11.9448401 C10.0941616,12.3973768 10.0941616,13.0156654 10.427788,13.4682022 L10.6695463,13.8966781 L10.9113045,13.4682022 C11.2446891,13.0156654 11.2446891,12.3973768 10.9113045,11.9448401 L10.6695463,11.5163642 L10.6695463,11.5163642 L10.6695463,11.5163642 Z" id="Stroke-294" stroke="#FFFFFF" stroke-width="0.5" transform="translate(10.669456, 12.706521) rotate(-90.000000) translate(-10.669456, -12.706521) "></path>
                    <path d="M14.0748337,10.496881 L13.6486139,10.2538431 C13.19846,9.91869369 12.5831853,9.91869369 12.1330315,10.2538431 L11.7068117,10.496881 L12.1330315,10.739919 C12.5831853,11.0750684 13.19846,11.0750684 13.6486139,10.739919 L14.0748337,10.496881 L14.0748337,10.496881 L14.0748337,10.496881 Z" id="Fill-295" fill="#FFFFFF" transform="translate(12.890823, 10.496881) rotate(-90.000000) translate(-12.890823, -10.496881) "></path>
                    <path d="M14.0748337,10.496881 L13.6486139,10.2538431 C13.19846,9.91869369 12.5831853,9.91869369 12.1330315,10.2538431 L11.7068117,10.496881 L12.1330315,10.739919 C12.5831853,11.0750684 13.19846,11.0750684 13.6486139,10.739919 L14.0748337,10.496881 L14.0748337,10.496881 L14.0748337,10.496881 Z" id="Stroke-296" stroke="#FFFFFF" stroke-width="0.5" transform="translate(12.890823, 10.496881) rotate(-90.000000) translate(-12.890823, -10.496881) "></path>
                    <path d="M12.2161493,13.054823 L11.974391,13.4832989 C11.6410064,13.9358356 11.6410064,14.5541242 11.974391,15.0066609 L12.2161493,15.4351369 L12.4579075,15.0066609 C12.7912921,14.5541242 12.7912921,13.9358356 12.4579075,13.4832989 L12.2161493,13.054823 L12.2161493,13.054823 L12.2161493,13.054823 Z" id="Fill-297" fill="#FFFFFF" transform="translate(12.216149, 14.244980) rotate(-90.000000) translate(-12.216149, -14.244980) "></path>
                    <path d="M12.2161493,13.054823 L11.974391,13.4832989 C11.6410064,13.9358356 11.6410064,14.5541242 11.974391,15.0066609 L12.2161493,15.4351369 L12.4579075,15.0066609 C12.7912921,14.5541242 12.7912921,13.9358356 12.4579075,13.4832989 L12.2161493,13.054823 L12.2161493,13.054823 L12.2161493,13.054823 Z" id="Stroke-298" stroke="#FFFFFF" stroke-width="0.5" transform="translate(12.216149, 14.244980) rotate(-90.000000) translate(-12.216149, -14.244980) "></path>
                    <path d="M15.6215273,12.0354305 L15.1953076,11.7923925 C14.7451537,11.4572431 14.129879,11.4572431 13.6797251,11.7923925 L13.2535054,12.0354305 L13.6797251,12.2784685 C14.129879,12.6136178 14.7451537,12.6136178 15.1953076,12.2784685 L15.6215273,12.0354305 L15.6215273,12.0354305 L15.6215273,12.0354305 Z" id="Fill-299" fill="#FFFFFF" transform="translate(14.437516, 12.035430) rotate(-90.000000) translate(-14.437516, -12.035430) "></path>
                    <path d="M15.6215273,12.0354305 L15.1953076,11.7923925 C14.7451537,11.4572431 14.129879,11.4572431 13.6797251,11.7923925 L13.2535054,12.0354305 L13.6797251,12.2784685 C14.129879,12.6136178 14.7451537,12.6136178 15.1953076,12.2784685 L15.6215273,12.0354305 L15.6215273,12.0354305 L15.6215273,12.0354305 Z" id="Stroke-300" stroke="#FFFFFF" stroke-width="0.5" transform="translate(14.437516, 12.035430) rotate(-90.000000) translate(-14.437516, -12.035430) "></path>
                    <path d="M13.7627214,14.5932509 L13.5209632,15.0219699 C13.1875786,15.4742636 13.1875786,16.0927952 13.5209632,16.5453319 L13.7627214,16.9738079 L14.0044797,16.5453319 C14.3378643,16.0927952 14.3378643,15.4742636 14.0044797,15.0219699 L13.7627214,14.5932509 L13.7627214,14.5932509 L13.7627214,14.5932509 Z" id="Fill-301" fill="#FFFFFF" transform="translate(13.762721, 15.783529) rotate(-90.000000) translate(-13.762721, -15.783529) "></path>
                    <path d="M13.7627214,14.5932509 L13.5209632,15.0219699 C13.1875786,15.4742636 13.1875786,16.0927952 13.5209632,16.5453319 L13.7627214,16.9738079 L14.0044797,16.5453319 C14.3378643,16.0927952 14.3378643,15.4742636 14.0044797,15.0219699 L13.7627214,14.5932509 L13.7627214,14.5932509 L13.7627214,14.5932509 Z" id="Stroke-302" stroke="#FFFFFF" stroke-width="0.5" transform="translate(13.762721, 15.783529) rotate(-90.000000) translate(-13.762721, -15.783529) "></path>
                    <path d="M17.168221,13.5739799 L16.7420012,13.330942 C16.2918474,12.9957926 15.6765727,12.9957926 15.2266606,13.330942 L14.800199,13.5739799 L15.2266606,13.8170179 C15.6765727,14.1521673 16.2918474,14.1521673 16.7420012,13.8170179 L17.168221,13.5739799 L17.168221,13.5739799 L17.168221,13.5739799 Z" id="Fill-303" fill="#FFFFFF" transform="translate(15.984210, 13.573980) rotate(-90.000000) translate(-15.984210, -13.573980) "></path>
                    <path d="M17.168221,13.5739799 L16.7420012,13.330942 C16.2918474,12.9957926 15.6765727,12.9957926 15.2266606,13.330942 L14.800199,13.5739799 L15.2266606,13.8170179 C15.6765727,14.1521673 16.2918474,14.1521673 16.7420012,13.8170179 L17.168221,13.5739799 L17.168221,13.5739799 L17.168221,13.5739799 Z" id="Stroke-304" stroke="#FFFFFF" stroke-width="0.5" transform="translate(15.984210, 13.573980) rotate(-90.000000) translate(-15.984210, -13.573980) "></path>
                    <path d="M17.4374451,8.59363004 L8.80184074,17.2747035" id="Fill-305" fill="#FFFFFF" transform="translate(13.119643, 12.934167) rotate(-90.000000) translate(-13.119643, -12.934167) "></path>
                    <path d="M17.4374451,8.59363004 L8.80184074,17.2747035" id="Stroke-306" stroke="#FFFFFF" stroke-width="0.5" transform="translate(13.119643, 12.934167) rotate(-90.000000) translate(-13.119643, -12.934167) "></path>
                    <path d="M4.88062975,8.76709352 L6.24825612,7.39247074" id="Fill-307" fill="#FFFFFF" transform="translate(5.564443, 8.079782) rotate(-90.000000) translate(-5.564443, -8.079782) "></path>
                    <path d="M4.88062975,8.76709352 L6.24825612,7.39247074" id="Stroke-308" stroke="#FFFFFF" stroke-width="0.5" transform="translate(5.564443, 8.079782) rotate(-90.000000) translate(-5.564443, -8.079782) "></path>
                    <path d="M4.88165604,7.74233959 L6.59112857,6.02381807" id="Fill-309" fill="#FFFFFF" transform="translate(5.736392, 6.883079) rotate(-90.000000) translate(-5.736392, -6.883079) "></path>
                    <path d="M4.88165604,7.74233959 L6.59112857,6.02381807" id="Stroke-310" stroke="#FFFFFF" stroke-width="0.5" transform="translate(5.736392, 6.883079) rotate(-90.000000) translate(-5.736392, -6.883079) "></path>
                    <path d="M6.25627883,6.37471322 L7.96575135,4.6561917" id="Fill-311" fill="#FFFFFF" transform="translate(7.111015, 5.515452) rotate(-90.000000) translate(-7.111015, -5.515452) "></path>
                    <path d="M6.25627883,6.37471322 L7.96575135,4.6561917" id="Stroke-312" stroke="#FFFFFF" stroke-width="0.5" transform="translate(7.111015, 5.515452) rotate(-90.000000) translate(-7.111015, -5.515452) "></path>
                    <path d="M4.88108214,6.20321624 L6.41963159,4.65676561" id="Fill-313" fill="#FFFFFF" transform="translate(5.650357, 5.429991) rotate(-90.000000) translate(-5.650357, -5.429991) "></path>
                    <path d="M4.88108214,6.20321624 L6.41963159,4.65676561" id="Stroke-314" stroke="#FFFFFF" stroke-width="0.5" transform="translate(5.650357, 5.429991) rotate(-90.000000) translate(-5.650357, -5.429991) "></path>
                    <path d="M7.63023988,6.03196229 L8.99786625,4.65709647" id="Fill-315" fill="#FFFFFF" transform="translate(8.314053, 5.344529) rotate(-90.000000) translate(-8.314053, -5.344529) "></path>
                    <path d="M7.63023988,6.03196229 L8.99786625,4.65709647" id="Stroke-316" stroke="#FFFFFF" stroke-width="0.5" transform="translate(8.314053, 5.344529) rotate(-90.000000) translate(-8.314053, -5.344529) "></path>
                </g>
            </g>
        </g>
    </g>
</svg>