<?xml version="1.0" encoding="UTF-8" standalone="no"?>
<svg width="120px" height="154px" viewBox="0 0 120 154" version="1.1" xmlns="http://www.w3.org/2000/svg" xmlns:xlink="http://www.w3.org/1999/xlink">
    <!-- Generator: Sketch 3.7.2 (28276) - http://www.bohemiancoding.com/sketch -->
    <title>medal1</title>
    <desc>Created with Sketch.</desc>
    <defs></defs>
    <g id="Super-Gluten-tablet" stroke="none" stroke-width="1" fill="none" fill-rule="evenodd">
        <g id="Mobile-Portrait-Copy-42" transform="translate(-120.000000, -144.000000)">
            <g id="medal1" transform="translate(120.000000, 144.000000)">
                <g id="certificate">
                    <g id="Group">
                        <polygon id="Shape" fill="#2B414D" points="77.16 49.4813994 30.84 70.4811182 68.28 153.040013 88.44 136.000241 114.48 132.160292 77.16 49.4813994"></polygon>
                        <polygon id="Shape" fill="#475F6C" points="42.84 50.3213881 89.16 71.321107 51.72 154 31.56 136.84023 5.4 133.000281 42.84 50.3213881"></polygon>
                        <path d="M120,60.4012532 C120,64.8411937 113.64,68.5611439 112.68,72.7610877 C111.72,77.0810298 115.92,83.2009479 114.12,87.1608949 C112.2,91.1208419 104.88,91.6008354 102.24,94.9607905 C99.6,98.3207455 100.8,105.760646 97.44,108.520609 C94.08,111.280572 87.36,108.400611 83.52,110.320585 C79.68,112.240559 77.64,119.440463 73.44,120.40045 C69.36,121.360437 64.44,115.840511 60.12,115.840511 C55.8,115.840511 50.88,121.360437 46.8,120.40045 C42.6,119.440463 40.56,112.240559 36.72,110.320585 C32.88,108.400611 26.04,111.280572 22.8,108.520609 C19.44,105.760646 20.64,98.3207455 18,94.9607905 C15.36,91.6008354 8.04,91.1208419 6.12,87.1608949 C4.32,83.3209463 8.52,77.0810298 7.56,72.7610877 C6.36,68.5611439 -7.10542736e-15,64.8411937 -7.10542736e-15,60.4012532 C-7.10542736e-15,55.9613126 6.36,52.2413624 7.32,48.0414186 C8.28,43.7214765 4.08,37.6015584 5.88,33.6416114 C7.8,29.6816645 15.12,29.2016709 17.76,25.8417159 C20.4,22.4817609 19.2,15.0418605 22.56,12.2818974 C25.92,9.52193437 32.64,12.4018958 36.48,10.4819215 C40.32,8.56194722 42.36,1.36204362 46.56,0.402056473 C50.64,-0.557930674 55.56,4.96199542 59.88,4.96199542 C64.2,4.96199542 69.12,-0.557930674 73.2,0.402056473 C77.4,1.36204362 79.44,8.56194722 83.28,10.4819215 C87.12,12.4018958 93.96,9.52193437 97.2,12.2818974 C100.56,15.0418605 99.36,22.4817609 102,25.8417159 C104.64,29.2016709 111.96,29.6816645 113.88,33.6416114 C115.68,37.48156 111.48,43.7214765 112.44,48.0414186 C113.64,52.2413624 120,55.9613126 120,60.4012532 L120,60.4012532 Z" id="Shape" fill="#EFC75E"></path>
                    </g>
                </g>
                <g id="j45" transform="translate(29.000000, 28.000000)" opacity="0.600000024">
                    <path d="M51.8254861,11.2552456 L49.4727376,11.9041014 C46.7142183,12.3138419 44.5468963,14.4754931 44.1363092,17.2295256 L43.4861125,19.5774225 L45.838861,18.9285667 C48.5985844,18.5188262 50.7647024,16.357175 51.1764936,13.6031425 L51.8254861,11.2552456 L51.8254861,11.2552456 L51.8254861,11.2552456 Z" id="Fill-283"></path>
                    <path d="M51.8254861,11.2552456 L49.4727376,11.9041014 C46.7142183,12.3138419 44.5468963,14.4754931 44.1363092,17.2295256 L43.4861125,19.5774225 L45.838861,18.9285667 C48.5985844,18.5188262 50.7647024,16.357175 51.1764936,13.6031425 L51.8254861,11.2552456 L51.8254861,11.2552456 L51.8254861,11.2552456 Z" id="Stroke-284" stroke="#000000" stroke-width="2.25523799"></path>
                    <path d="M38.237581,7.89080792 L37.0335132,10.0092021 C35.3718997,12.2465531 35.3718997,15.3033851 37.0335132,17.5407361 L38.237581,19.6591303 L39.4416488,17.5407361 C41.1020583,15.3033851 41.1020583,12.2465531 39.4416488,10.0092021 L38.237581,7.89080792 L38.237581,7.89080792 L38.237581,7.89080792 Z" id="Fill-285"></path>
                    <path d="M38.237581,7.89080792 L37.0335132,10.0092021 C35.3718997,12.2465531 35.3718997,15.3033851 37.0335132,17.5407361 L38.237581,19.6591303 L39.4416488,17.5407361 C41.1020583,15.3033851 41.1020583,12.2465531 39.4416488,10.0092021 L38.237581,7.89080792 L38.237581,7.89080792 L38.237581,7.89080792 Z" id="Stroke-286" stroke="#000000" stroke-width="2.25523799"></path>
                    <path d="M55.1390807,24.7574549 L53.0163092,23.55587 C50.7743349,21.8988845 47.7099824,21.8988845 45.4680081,23.55587 L43.3452366,24.7574549 L45.4680081,25.9590398 C47.7099824,27.6160254 50.7743349,27.6160254 53.0163092,25.9590398 L55.1390807,24.7574549 L55.1390807,24.7574549 L55.1390807,24.7574549 Z" id="Fill-287"></path>
                    <path d="M55.1390807,24.7574549 L53.0163092,23.55587 C50.7743349,21.8988845 47.7099824,21.8988845 45.4680081,23.55587 L43.3452366,24.7574549 L45.4680081,25.9590398 C47.7099824,27.6160254 50.7743349,27.6160254 53.0163092,25.9590398 L55.1390807,24.7574549 L55.1390807,24.7574549 L55.1390807,24.7574549 Z" id="Stroke-288" stroke="#000000" stroke-width="2.25523799"></path>
                    <path d="M30.5748936,15.5376941 L29.3708258,17.6560883 C27.7092122,19.8934393 27.7092122,22.9502713 29.3708258,25.1876223 L30.5748936,27.3060165 L31.7789614,25.1876223 C33.4393708,22.9502713 33.4393708,19.8934393 31.7789614,17.6560883 L30.5748936,15.5376941 L30.5748936,15.5376941 L30.5748936,15.5376941 Z" id="Fill-289"></path>
                    <path d="M30.5748936,15.5376941 L29.3708258,17.6560883 C27.7092122,19.8934393 27.7092122,22.9502713 29.3708258,25.1876223 L30.5748936,27.3060165 L31.7789614,25.1876223 C33.4393708,22.9502713 33.4393708,19.8934393 31.7789614,17.6560883 L30.5748936,15.5376941 L30.5748936,15.5376941 L30.5748936,15.5376941 Z" id="Stroke-290" stroke="#000000" stroke-width="2.25523799"></path>
                    <path d="M47.4763932,32.4043411 L45.3536217,31.2027562 C43.1116475,29.5457707 40.0472949,29.5457707 37.8053207,31.2027562 L35.6825492,32.4043411 L37.8053207,33.605926 C40.0472949,35.2629116 43.1116475,35.2629116 45.3536217,33.605926 L47.4763932,32.4043411 L47.4763932,32.4043411 L47.4763932,32.4043411 Z" id="Fill-291"></path>
                    <path d="M47.4763932,32.4043411 L45.3536217,31.2027562 C43.1116475,29.5457707 40.0472949,29.5457707 37.8053207,31.2027562 L35.6825492,32.4043411 L37.8053207,33.605926 C40.0472949,35.2629116 43.1116475,35.2629116 45.3536217,33.605926 L47.4763932,32.4043411 L47.4763932,32.4043411 L47.4763932,32.4043411 Z" id="Stroke-292" stroke="#000000" stroke-width="2.25523799"></path>
                    <path d="M22.9122061,23.1845803 L21.7081383,25.3029745 C20.0465247,27.5403255 20.0465247,30.5971575 21.7081383,32.8345085 L22.9122061,34.9529027 L24.1162739,32.8345085 C25.7766834,30.5971575 25.7766834,27.5403255 24.1162739,25.3029745 L22.9122061,23.1845803 L22.9122061,23.1845803 L22.9122061,23.1845803 Z" id="Fill-293"></path>
                    <path d="M22.9122061,23.1845803 L21.7081383,25.3029745 C20.0465247,27.5403255 20.0465247,30.5971575 21.7081383,32.8345085 L22.9122061,34.9529027 L24.1162739,32.8345085 C25.7766834,30.5971575 25.7766834,27.5403255 24.1162739,25.3029745 L22.9122061,23.1845803 L22.9122061,23.1845803 L22.9122061,23.1845803 Z" id="Stroke-294" stroke="#000000" stroke-width="2.25523799"></path>
                    <path d="M39.8137058,40.0512273 L37.6909342,38.8496424 C35.44896,37.1926569 32.3846075,37.1926569 30.1426332,38.8496424 L28.0198617,40.0512273 L30.1426332,41.2528122 C32.3846075,42.9097977 35.44896,42.9097977 37.6909342,41.2528122 L39.8137058,40.0512273 L39.8137058,40.0512273 L39.8137058,40.0512273 Z" id="Fill-295"></path>
                    <path d="M39.8137058,40.0512273 L37.6909342,38.8496424 C35.44896,37.1926569 32.3846075,37.1926569 30.1426332,38.8496424 L28.0198617,40.0512273 L30.1426332,41.2528122 C32.3846075,42.9097977 35.44896,42.9097977 37.6909342,41.2528122 L39.8137058,40.0512273 L39.8137058,40.0512273 L39.8137058,40.0512273 Z" id="Stroke-296" stroke="#000000" stroke-width="2.25523799"></path>
                    <path d="M15.2495186,30.8314665 L14.0454508,32.9498607 C12.3850414,35.1872117 12.3850414,38.2440436 14.0454508,40.4813947 L15.2495186,42.5997888 L16.4535864,40.4813947 C18.1139959,38.2440436 18.1139959,35.1872117 16.4535864,32.9498607 L15.2495186,30.8314665 L15.2495186,30.8314665 L15.2495186,30.8314665 Z" id="Fill-297"></path>
                    <path d="M15.2495186,30.8314665 L14.0454508,32.9498607 C12.3850414,35.1872117 12.3850414,38.2440436 14.0454508,40.4813947 L15.2495186,42.5997888 L16.4535864,40.4813947 C18.1139959,38.2440436 18.1139959,35.1872117 16.4535864,32.9498607 L15.2495186,30.8314665 L15.2495186,30.8314665 L15.2495186,30.8314665 Z" id="Stroke-298" stroke="#000000" stroke-width="2.25523799"></path>
                    <path d="M32.1510183,47.6981135 L30.0282468,46.4965286 C27.7862725,44.8395431 24.72192,44.8395431 22.4799458,46.4965286 L20.3571742,47.6981135 L22.4799458,48.8996984 C24.72192,50.5566839 27.7862725,50.5566839 30.0282468,48.8996984 L32.1510183,47.6981135 L32.1510183,47.6981135 L32.1510183,47.6981135 Z" id="Fill-299"></path>
                    <path d="M32.1510183,47.6981135 L30.0282468,46.4965286 C27.7862725,44.8395431 24.72192,44.8395431 22.4799458,46.4965286 L20.3571742,47.6981135 L22.4799458,48.8996984 C24.72192,50.5566839 27.7862725,50.5566839 30.0282468,48.8996984 L32.1510183,47.6981135 L32.1510183,47.6981135 L32.1510183,47.6981135 Z" id="Stroke-300" stroke="#000000" stroke-width="2.25523799"></path>
                    <path d="M7.58683119,38.4771511 L6.38276339,40.5967468 C4.7223539,42.8328963 4.7223539,45.8909298 6.38276339,48.1282809 L7.58683119,50.246675 L8.79089898,48.1282809 C10.4513085,45.8909298 10.4513085,42.8328963 8.79089898,40.5967468 L7.58683119,38.4771511 L7.58683119,38.4771511 L7.58683119,38.4771511 Z" id="Fill-301"></path>
                    <path d="M7.58683119,38.4771511 L6.38276339,40.5967468 C4.7223539,42.8328963 4.7223539,45.8909298 6.38276339,48.1282809 L7.58683119,50.246675 L8.79089898,48.1282809 C10.4513085,45.8909298 10.4513085,42.8328963 8.79089898,40.5967468 L7.58683119,38.4771511 L7.58683119,38.4771511 L7.58683119,38.4771511 Z" id="Stroke-302" stroke="#000000" stroke-width="2.25523799"></path>
                    <path d="M24.4883308,55.3449997 L22.3655593,54.1434148 C20.1235851,52.4864293 17.0592325,52.4864293 14.8184624,54.1434148 L12.6944868,55.3449997 L14.8184624,56.5465846 C17.0592325,58.2035701 20.1235851,58.2035701 22.3655593,56.5465846 L24.4883308,55.3449997 L24.4883308,55.3449997 L24.4883308,55.3449997 Z" id="Fill-303"></path>
                    <path d="M24.4883308,55.3449997 L22.3655593,54.1434148 C20.1235851,52.4864293 17.0592325,52.4864293 14.8184624,54.1434148 L12.6944868,55.3449997 L14.8184624,56.5465846 C17.0592325,58.2035701 20.1235851,58.2035701 22.3655593,56.5465846 L24.4883308,55.3449997 L24.4883308,55.3449997 L24.4883308,55.3449997 Z" id="Stroke-304" stroke="#000000" stroke-width="2.25523799"></path>
                    <path d="M43.2826251,19.7228143 L0.27332339,62.6422247" id="Fill-305"></path>
                    <path d="M41.7661008,21.4032307 L0.27332339,62.6422247" id="Stroke-306" stroke="#000000" stroke-width="2.25523799"></path>
                    <path d="M42.5493478,7.22753307 L49.3607593,0.431368973" id="Fill-307"></path>
                    <path d="M42.5493478,7.22753307 L49.3607593,0.431368973" id="Stroke-308" stroke="#000000" stroke-width="2.25523799"></path>
                    <path d="M47.6582075,8.92777568 L56.1721708,0.431368973" id="Fill-309"></path>
                    <path d="M47.6582075,8.92777568 L56.1721708,0.431368973" id="Stroke-310" stroke="#000000" stroke-width="2.25523799"></path>
                    <path d="M54.469619,15.7239398 L62.9835824,7.22753307" id="Fill-311"></path>
                    <path d="M54.469619,15.7239398 L62.9835824,7.22753307" id="Stroke-312" stroke="#000000" stroke-width="2.25523799"></path>
                    <path d="M55.3208949,8.07705358 L62.9835824,0.431368973" id="Fill-313"></path>
                    <path d="M55.3208949,8.07705358 L62.9835824,0.431368973" id="Stroke-314" stroke="#000000" stroke-width="2.25523799"></path>
                    <path d="M56.1721708,20.8222644 L62.9835824,14.0248988" id="Fill-315"></path>
                    <path d="M56.1721708,20.8222644 L62.9835824,14.0248988" id="Stroke-316" stroke="#000000" stroke-width="2.25523799"></path>
                </g>
            </g>
        </g>
    </g>
</svg>