<?xml version="1.0" encoding="UTF-8" standalone="no"?>
<svg width="210px" height="80px" viewBox="0 0 210 80" version="1.1" xmlns="http://www.w3.org/2000/svg" xmlns:xlink="http://www.w3.org/1999/xlink">
    <!-- Generator: Sketch 3.7.2 (28276) - http://www.bohemiancoding.com/sketch -->
    <title>medal3</title>
    <desc>Created with Sketch.</desc>
    <defs></defs>
    <g id="Super-Gluten-tablet" stroke="none" stroke-width="1" fill="none" fill-rule="evenodd">
        <g id="Mobile-Portrait-Copy-44" transform="translate(-75.000000, -186.000000)">
            <g id="medal3" transform="translate(75.000000, 188.000000)">
                <path d="M76.0344828,0.405333333 L133.965517,0.405333333 M115.862069,22.119619 C110.202931,16.4630476 99.797069,16.4630476 94.137931,22.119619" id="Stroke-370" stroke="#C6C6C6" stroke-width="4"></path>
                <path d="M0,18.5005714 L7.24137931,18.5005714" id="Stroke-371" stroke="#C6C6C6" stroke-width="4"></path>
                <path d="M202.758621,18.5005714 L210,18.5005714" id="Stroke-377" stroke="#C6C6C6" stroke-width="4"></path>
                <path d="M34.3567241,0.405333333 C28.7374138,0.405333333 23.1289655,1.5127619 18.1034483,4.02438095 C12.6724138,6.73866667 7.24137931,11.2624762 7.24137931,18.5005714 L7.24137931,51.072 C7.24137931,51.072 8.20810345,69.1057143 27.2674138,74.7441905 C33.9041379,76.7057143 41.0043103,76.2786667 47.5722414,74.1 C62.5727586,69.1165714 94.137931,55.9106667 94.137931,32.9767619 C94.137931,32.9767619 97.3060345,0.405333333 76.0344828,0.405333333 L54.3103448,0.405333333 L34.3567241,0.405333333 Z" id="Fill-499" fill="#292E3D"></path>
                <path d="M54.3103448,0.405333333 L34.3567241,0.405333333 C28.7374138,0.405333333 23.1289655,1.5127619 18.1034483,4.02438095 C12.6724138,6.73866667 7.24137931,11.2624762 7.24137931,18.5005714 L7.24137931,51.072 C7.24137931,51.072 8.20810345,69.1057143 27.2674138,74.7441905 C33.9041379,76.7057143 41.0043103,76.2786667 47.5722414,74.1 C62.5727586,69.1165714 94.137931,55.9106667 94.137931,32.9767619 C94.137931,32.9767619 97.3060345,0.405333333 76.0344828,0.405333333 L54.3103448,0.405333333 L54.3103448,0.405333333 L54.3103448,0.405333333 Z" id="Stroke-500" stroke="#202124" stroke-width="4"></path>
                <path d="M155.856207,0.405333333 L175.809828,0.405333333 C181.429138,0.405333333 187.037586,1.5127619 192.063103,4.02438095 C197.494138,6.73866667 202.925172,11.2624762 202.925172,18.5005714 L202.925172,51.072 C202.925172,51.072 201.958448,69.1057143 182.899138,74.7441905 C176.262414,76.7057143 169.162241,76.2786667 162.59431,74.1 C147.590172,69.1165714 116.028621,55.9106667 116.028621,32.9767619 C116.028621,32.9767619 112.860517,0.405333333 134.132069,0.405333333 L155.856207,0.405333333 L155.856207,0.405333333 L155.856207,0.405333333 Z" id="Fill-501" fill="#282D3D"></path>
                <path d="M155.856207,0.405333333 L175.809828,0.405333333 C181.429138,0.405333333 187.037586,1.5127619 192.063103,4.02438095 C197.494138,6.73866667 202.925172,11.2624762 202.925172,18.5005714 L202.925172,51.072 C202.925172,51.072 201.958448,69.1057143 182.899138,74.7441905 C176.262414,76.7057143 169.162241,76.2786667 162.59431,74.1 C147.590172,69.1165714 116.028621,55.9106667 116.028621,32.9767619 C116.028621,32.9767619 112.860517,0.405333333 134.132069,0.405333333 L155.856207,0.405333333 L155.856207,0.405333333 L155.856207,0.405333333 Z" id="Stroke-502" stroke="#1F2124" stroke-width="4"></path>
                <path d="M21.7241379,29.3577143 L36.2068966,14.8815238 M36.2068966,40.2148571 L61.5517241,14.8815238 M130.344828,29.3577143 L144.827586,14.8815238 M144.827586,40.2148571 L170.172414,14.8815238" id="Stroke-503" stroke="#FFFFFF" stroke-width="4" opacity="0.100000001"></path>
            </g>
        </g>
    </g>
</svg>