<?xml version="1.0" encoding="UTF-8" standalone="no"?>
<svg width="230px" height="140px" viewBox="0 0 230 140" version="1.1" xmlns="http://www.w3.org/2000/svg" xmlns:xlink="http://www.w3.org/1999/xlink">
    <!-- Generator: Sketch 3.7.2 (28276) - http://www.bohemiancoding.com/sketch -->
    <title>medal2</title>
    <desc>Created with Sketch.</desc>
    <defs></defs>
    <g id="Super-Gluten-tablet" stroke="none" stroke-width="1" fill="none" fill-rule="evenodd">
        <g id="Mobile-Portrait-Copy-43" transform="translate(-65.000000, -158.000000)">
            <g id="medal2" transform="translate(65.000000, 158.000000)">
                <g id="u64" transform="translate(119.000000, 0.000000)">
                    <g id="Page-1">
                        <g>
                            <g id="u64">
                                <path d="M101.801365,5.1437037 C97.0531765,1.64888889 91.1819294,0 85.2715059,0 L43.2664941,0 C42.2557412,0 41.2502118,0.116666667 40.2708,0.370740741 C35.3006118,1.66962963 20.9176235,6.8937037 20.9176235,23.8466667 L27.4235294,95.9259259 C27.4235294,95.9259259 35.8490824,101.266667 50.9294118,103.703704 L50.9450824,89.4185185 C50.9450824,81.1066667 58.5531529,75.0140741 66.9525882,75.1877778 C75.3912,75.3640741 82.2705882,82.9474074 82.2705882,91.3266667 L82.2705882,103.703704 C97.9072235,101.305556 105.776471,95.9259259 105.776471,95.9259259 L111,23.8466667 C111,14.4537037 106.583506,8.66185185 101.801365,5.1437037" id="Fill-325" fill="#E64C3C"></path>
                                <path d="M82.2705882,103.703704 L82.2705882,137.407407 C96.1416706,135.092222 103.164706,129.62963 103.164706,129.62963 L103.164706,97.4011111 C99.6832235,99.1718519 92.7228706,102.101481 82.2705882,103.703704" id="Fill-326" fill="#38454F"></path>
                                <path d="M30.0352941,129.62963 C30.0352941,129.62963 38.3851059,134.778519 50.9294118,137.407407 L50.9294118,103.703704 C40.7383059,102.057407 33.6003529,99.0888889 30.0352941,97.3337037 L30.0352941,129.62963" id="Fill-327" fill="#38454F"></path>
                                <path d="M97.9411765,41.4814815 C96.4994824,41.4814815 95.3294118,40.3225926 95.3294118,38.8888889 C95.3294118,26.0218519 84.7831059,15.5555556 71.8235294,15.5555556 C70.3818353,15.5555556 69.2117647,14.3966667 69.2117647,12.962963 C69.2117647,11.5292593 70.3818353,10.3703704 71.8235294,10.3703704 C87.6638824,10.3703704 100.552941,23.1648148 100.552941,38.8888889 C100.552941,40.3225926 99.3828706,41.4814815 97.9411765,41.4814815" id="Fill-328" fill="#ED7161"></path>
                                <path d="M1.30588235,43.2988889 L1.30588235,63.14 C1.30588235,65.1259259 2.03978824,67.047037 3.37178824,68.5325926 L27.4235294,95.9259259 L21.8056235,33.6803704 C15.8064,33.2992593 0.773082353,33.097037 1.30588235,43.2988889" id="Fill-329" fill="#C03A2B"></path>
                                <path d="M101.801365,5.1437037 C97.0531765,1.64888889 91.1819294,0 85.2715059,0 L43.2664941,0 C42.2557412,0 41.2502118,0.116666667 40.2708,0.370740741 C35.3006118,1.66962963 20.9176235,6.8937037 20.9176235,23.8466667 L27.4235294,95.9259259 C27.4235294,95.9259259 35.8490824,101.266667 50.9294118,103.703704 L50.9450824,89.4185185 C50.9450824,81.1066667 58.5531529,75.0140741 66.9525882,75.1877778 C75.3912,75.3640741 82.2705882,82.9474074 82.2705882,91.3266667 L82.2705882,103.703704 C97.9072235,101.305556 105.776471,95.9259259 105.776471,95.9259259 L111,23.8466667 C111,14.4537037 106.583506,8.66185185 101.801365,5.1437037" id="Fill-325" fill="#E64C3C"></path>
                                <path d="M1.30588235,43.2988889 L1.30588235,63.14 C1.30588235,65.1259259 2.03978824,67.047037 3.37178824,68.5325926 L27.4235294,95.9259259 L21.8056235,33.6803704 C15.8064,33.2992593 0.773082353,33.097037 1.30588235,43.2988889" id="Fill-329" fill="#C03A2B"></path>
                                <path d="M50.9450824,89.4185185 C50.9450824,81.2233333 58.3416,75.1851852 66.6,75.1851852 C74.8584,75.1851852 82.2705882,81.5214815 82.2705882,89.7166667 L82.2705882,137.407407 C69.2587765,140.388889 63.1890353,140.513333 50.9294118,137.407407 L50.9450824,89.4185185" id="Fill-995" fill="#E6E7E8"></path>
                                <path d="M70.2930353,95.9259259 L76.2818118,89.9811111 C77.3030118,88.9674074 77.3030118,87.3288889 76.2818118,86.3151852 C75.2606118,85.3014815 73.6099765,85.3014815 72.5887765,86.3151852 L66.6,92.26 L60.6112235,86.3151852 C59.5900235,85.3014815 57.9393882,85.3014815 56.9181882,86.3151852 C55.8969882,87.3288889 55.8969882,88.9674074 56.9181882,89.9811111 L62.9069647,95.9259259 L56.9181882,101.870741 C55.8969882,102.884444 55.8969882,104.522963 56.9181882,105.536667 C57.4274824,106.042222 58.0960941,106.296296 58.7647059,106.296296 C59.4333176,106.296296 60.1019294,106.042222 60.6112235,105.536667 L66.6,99.5918519 L72.5887765,105.536667 C73.0980706,106.042222 73.7666824,106.296296 74.4352941,106.296296 C75.1039059,106.296296 75.7725176,106.042222 76.2818118,105.536667 C77.3030118,104.522963 77.3030118,102.884444 76.2818118,101.870741 L70.2930353,95.9259259" id="Fill-996" fill="#556080"></path>
                                <path d="M76.2818118,112.241111 C75.2606118,111.227407 73.6099765,111.227407 72.5887765,112.241111 L66.6,118.185926 L60.6112235,112.241111 C59.5900235,111.227407 57.9393882,111.227407 56.9181882,112.241111 C55.8969882,113.254815 55.8969882,114.893333 56.9181882,115.907037 L62.9069647,121.851852 L56.9181882,127.796667 C55.8969882,128.81037 55.8969882,130.448889 56.9181882,131.462593 C57.4274824,131.968148 58.0960941,132.222222 58.7647059,132.222222 C59.4333176,132.222222 60.1019294,131.968148 60.6112235,131.462593 L66.6,125.517778 L72.5887765,131.462593 C73.0980706,131.968148 73.7666824,132.222222 74.4352941,132.222222 C75.1039059,132.222222 75.7725176,131.968148 76.2818118,131.462593 C77.3030118,130.448889 77.3030118,128.81037 76.2818118,127.796667 L70.2930353,121.851852 L76.2818118,115.907037 C77.3030118,114.893333 77.3030118,113.254815 76.2818118,112.241111" id="Fill-997" fill="#556080"></path>
                            </g>
                        </g>
                    </g>
                </g>
                <g id="u64-copy" transform="translate(55.500000, 70.000000) scale(-1, 1) translate(-55.500000, -70.000000) ">
                    <g id="u64">
                        <g id="Page-1">
                            <g id="u64">
                                <path d="M101.801365,5.1437037 C97.0531765,1.64888889 91.1819294,0 85.2715059,0 L43.2664941,0 C42.2557412,0 41.2502118,0.116666667 40.2708,0.370740741 C35.3006118,1.66962963 20.9176235,6.8937037 20.9176235,23.8466667 L27.4235294,95.9259259 C27.4235294,95.9259259 35.8490824,101.266667 50.9294118,103.703704 L50.9450824,89.4185185 C50.9450824,81.1066667 58.5531529,75.0140741 66.9525882,75.1877778 C75.3912,75.3640741 82.2705882,82.9474074 82.2705882,91.3266667 L82.2705882,103.703704 C97.9072235,101.305556 105.776471,95.9259259 105.776471,95.9259259 L111,23.8466667 C111,14.4537037 106.583506,8.66185185 101.801365,5.1437037" id="Fill-325" fill="#E64C3C"></path>
                                <path d="M82.2705882,103.703704 L82.2705882,137.407407 C96.1416706,135.092222 103.164706,129.62963 103.164706,129.62963 L103.164706,97.4011111 C99.6832235,99.1718519 92.7228706,102.101481 82.2705882,103.703704" id="Fill-326" fill="#38454F"></path>
                                <path d="M30.0352941,129.62963 C30.0352941,129.62963 38.3851059,134.778519 50.9294118,137.407407 L50.9294118,103.703704 C40.7383059,102.057407 33.6003529,99.0888889 30.0352941,97.3337037 L30.0352941,129.62963" id="Fill-327" fill="#38454F"></path>
                                <path d="M97.9411765,41.4814815 C96.4994824,41.4814815 95.3294118,40.3225926 95.3294118,38.8888889 C95.3294118,26.0218519 84.7831059,15.5555556 71.8235294,15.5555556 C70.3818353,15.5555556 69.2117647,14.3966667 69.2117647,12.962963 C69.2117647,11.5292593 70.3818353,10.3703704 71.8235294,10.3703704 C87.6638824,10.3703704 100.552941,23.1648148 100.552941,38.8888889 C100.552941,40.3225926 99.3828706,41.4814815 97.9411765,41.4814815" id="Fill-328" fill="#ED7161"></path>
                                <path d="M1.30588235,43.2988889 L1.30588235,63.14 C1.30588235,65.1259259 2.03978824,67.047037 3.37178824,68.5325926 L27.4235294,95.9259259 L21.8056235,33.6803704 C15.8064,33.2992593 0.773082353,33.097037 1.30588235,43.2988889" id="Fill-329" fill="#C03A2B"></path>
                                <path d="M101.801365,5.1437037 C97.0531765,1.64888889 91.1819294,0 85.2715059,0 L43.2664941,0 C42.2557412,0 41.2502118,0.116666667 40.2708,0.370740741 C35.3006118,1.66962963 20.9176235,6.8937037 20.9176235,23.8466667 L27.4235294,95.9259259 C27.4235294,95.9259259 35.8490824,101.266667 50.9294118,103.703704 L50.9450824,89.4185185 C50.9450824,81.1066667 58.5531529,75.0140741 66.9525882,75.1877778 C75.3912,75.3640741 82.2705882,82.9474074 82.2705882,91.3266667 L82.2705882,103.703704 C97.9072235,101.305556 105.776471,95.9259259 105.776471,95.9259259 L111,23.8466667 C111,14.4537037 106.583506,8.66185185 101.801365,5.1437037" id="Fill-325" fill="#E64C3C"></path>
                                <path d="M1.30588235,43.2988889 L1.30588235,63.14 C1.30588235,65.1259259 2.03978824,67.047037 3.37178824,68.5325926 L27.4235294,95.9259259 L21.8056235,33.6803704 C15.8064,33.2992593 0.773082353,33.097037 1.30588235,43.2988889" id="Fill-329" fill="#C03A2B"></path>
                                <path d="M50.9450824,89.4185185 C50.9450824,81.2233333 58.3416,75.1851852 66.6,75.1851852 C74.8584,75.1851852 82.2705882,81.5214815 82.2705882,89.7166667 L82.2705882,137.407407 C69.2587765,140.388889 63.1890353,140.513333 50.9294118,137.407407 L50.9450824,89.4185185" id="Fill-995" fill="#E6E7E8"></path>
                                <path d="M70.2930353,95.9259259 L76.2818118,89.9811111 C77.3030118,88.9674074 77.3030118,87.3288889 76.2818118,86.3151852 C75.2606118,85.3014815 73.6099765,85.3014815 72.5887765,86.3151852 L66.6,92.26 L60.6112235,86.3151852 C59.5900235,85.3014815 57.9393882,85.3014815 56.9181882,86.3151852 C55.8969882,87.3288889 55.8969882,88.9674074 56.9181882,89.9811111 L62.9069647,95.9259259 L56.9181882,101.870741 C55.8969882,102.884444 55.8969882,104.522963 56.9181882,105.536667 C57.4274824,106.042222 58.0960941,106.296296 58.7647059,106.296296 C59.4333176,106.296296 60.1019294,106.042222 60.6112235,105.536667 L66.6,99.5918519 L72.5887765,105.536667 C73.0980706,106.042222 73.7666824,106.296296 74.4352941,106.296296 C75.1039059,106.296296 75.7725176,106.042222 76.2818118,105.536667 C77.3030118,104.522963 77.3030118,102.884444 76.2818118,101.870741 L70.2930353,95.9259259" id="Fill-996" fill="#556080"></path>
                                <path d="M76.2818118,112.241111 C75.2606118,111.227407 73.6099765,111.227407 72.5887765,112.241111 L66.6,118.185926 L60.6112235,112.241111 C59.5900235,111.227407 57.9393882,111.227407 56.9181882,112.241111 C55.8969882,113.254815 55.8969882,114.893333 56.9181882,115.907037 L62.9069647,121.851852 L56.9181882,127.796667 C55.8969882,128.81037 55.8969882,130.448889 56.9181882,131.462593 C57.4274824,131.968148 58.0960941,132.222222 58.7647059,132.222222 C59.4333176,132.222222 60.1019294,131.968148 60.6112235,131.462593 L66.6,125.517778 L72.5887765,131.462593 C73.0980706,131.968148 73.7666824,132.222222 74.4352941,132.222222 C75.1039059,132.222222 75.7725176,131.968148 76.2818118,131.462593 C77.3030118,130.448889 77.3030118,128.81037 76.2818118,127.796667 L70.2930353,121.851852 L76.2818118,115.907037 C77.3030118,114.893333 77.3030118,113.254815 76.2818118,112.241111" id="Fill-997" fill="#556080"></path>
                            </g>
                        </g>
                    </g>
                </g>
                <g id="j46" transform="translate(170.000000, 14.000000)">
                    <g id="Page-1">
                        <g>
                            <g id="j46">
                                <path d="M0.220514286,8.1408 L1.59702857,9.71056364 C2.958,11.7448 5.35937143,12.3268364 7.51205714,11.1444545 L9.46365714,10.3822182 L8.08714286,8.81245455 C6.72617143,6.77821818 4.32577143,6.19618182 2.17211429,7.37856364 L0.220514286,8.1408" id="Fill-260" fill="#F1B501"></path>
                                <path d="M2.95508571,18.0306 L5.03297143,18.3168 C7.40617143,18.9624364 9.6016,17.8359455 10.4409143,15.5405636 L11.4065143,13.6942364 L9.3296,13.4080364 C6.95542857,12.7624 4.76,13.8888909 3.92068571,16.1833091 L2.95508571,18.0306" id="Fill-261" fill="#F1B501"></path>
                                <path d="M9.57731429,23.4452727 L11.5357143,22.7023091 C13.9293143,22.1347273 15.3058286,20.0976 14.9269714,17.6856182 L14.8764571,15.6060909 L12.9170857,16.3480909 C10.5234857,16.9166364 9.14697143,18.9528 9.52582857,21.3657455 L9.57731429,23.4452727" id="Fill-262" fill="#F1B501"></path>
                                <path d="M12.7626286,26.3737636 L14.8550857,26.2340364 C17.3108571,26.3891818 19.2304,24.8435091 19.5820571,22.4267091 L20.1493714,20.4242727 L18.0569143,20.5630364 C15.6001714,20.4088545 13.6816,21.9545273 13.3299429,24.3703636 L12.7626286,26.3737636" id="Fill-263" fill="#F1B501"></path>
                                <path d="M13.3493714,31.2064 L15.3922857,31.6747273 C17.6984571,32.5275455 19.9861714,31.5986 21.0285143,29.3870545 L22.1553714,27.6322727 L20.1124571,27.1649091 C17.8062857,26.3120909 15.5185714,27.2400727 14.4762286,29.4516182 L13.3493714,31.2064" id="Fill-264" fill="#F1B501"></path>
                                <path d="M11.7358286,37.0450727 L13.6242857,37.9499273 C15.6827429,39.2874545 18.1210286,38.8836909 19.6306286,36.9554545 L21.1208,35.4916909 L19.2323429,34.5868364 C17.1729143,33.2493091 14.7356,33.6530727 13.226,35.5813091 L11.7358286,37.0450727" id="Fill-265" fill="#F1B501"></path>
                                <path d="M12.3750286,0.444236364 L11.3647429,2.26743636 C9.9076,4.23518182 10.1844571,6.67221818 12.0447429,8.26992727 L13.4397143,9.82427273 L14.45,8.00107273 C15.9071429,6.03332727 15.6302857,3.59629091 13.7690286,1.99858182 L12.3750286,0.444236364" id="Fill-266" fill="#F1B501"></path>
                                <path d="M22.0261714,3.32550909 L20.1736571,4.30070909 C17.8694286,5.15738182 16.7552,7.3458 17.4303429,9.69418182 L17.7392571,11.7515455 L19.5908,10.7753818 C21.896,9.91967273 23.0102286,7.73029091 22.3350857,5.38287273 L22.0261714,3.32550909" id="Fill-267" fill="#F1B501"></path>
                                <path d="M28.8922286,10.0825273 L26.8007429,9.93027273 C24.3906286,9.43592727 22.2719429,10.7002182 21.5832,13.0447455 L20.7390286,14.9488909 L22.8314857,15.1011455 C25.2416,15.5954909 27.3593143,14.3312 28.0480571,11.9866727 L28.8922286,10.0825273" id="Fill-268" fill="#F1B501"></path>
                                <path d="M32.5982286,16.7296909 L30.5805714,16.1611455 C28.3200571,15.1965455 25.9886286,16.0108182 24.8374857,18.1684 L23.6241714,19.8653636 L25.6418286,20.4329455 C27.9023429,21.3985091 30.2337714,20.5842364 31.3849143,18.4266545 L32.5982286,16.7296909" id="Fill-269" fill="#F1B501"></path>
                                <path d="M33.7493714,23.9935818 L32.0794857,22.7360364 C30.3289714,21.0188364 27.8596,20.9340364 25.9934857,22.5269273 L24.2400571,23.6678727 L25.9099429,24.9263818 C27.6604571,26.6426182 30.1308,26.7274182 31.9959429,25.1345273 L33.7493714,23.9935818" id="Fill-270" fill="#F1B501"></path>
                                <path d="M33.6240571,31.8790182 L32.3058286,30.2610727 C31.0196571,28.1796182 28.6406286,27.5118182 26.4461714,28.6171091 L24.4683429,29.3099636 L25.7875429,30.9269455 C27.0737143,33.0084 29.4517714,33.6762 31.6462286,32.5718727 L33.6240571,31.8790182" id="Fill-271" fill="#F1B501"></path>
                                <path d="M31.4334857,40.6606364 L30.8632571,38.6582 C30.5057714,36.2433273 28.5833143,34.7015091 26.1275429,34.8605091 L24.0350857,34.7265636 L24.6062857,36.7280364 C24.9628,39.1438727 26.8852571,40.6847273 29.3410286,40.5257273 L31.4334857,40.6606364" id="Fill-272" fill="#F1B501"></path>
                                <path d="M27.7420571,48.3697273 L27.8392,46.2911636 C28.2724571,43.8878545 26.9416,41.8218182 24.5606286,41.2012364 L22.6187429,40.4158727 L22.5216,42.4944364 C22.0893143,44.8977455 23.4201714,46.9637818 25.8001714,47.5843636 L27.7420571,48.3697273" id="Fill-273" fill="#F1B501"></path>
                                <path d="M2.50531429,52.6463455 C14.9405714,50.2912182 23.5348,40.3416727 23.3356571,27.5397636 C23.2200571,20.0889273 18.5814857,13.2538545 11.4065143,10.7879091" id="Stroke-274" stroke="#F4C44E" stroke-width="1.5999999"></path>
                            </g>
                        </g>
                    </g>
                </g>
                <g id="j46-copy" transform="translate(43.000000, 40.500000) scale(-1, 1) translate(-43.000000, -40.500000) translate(26.000000, 14.000000)">
                    <g id="j46">
                        <g id="Page-1">
                            <g id="j46">
                                <path d="M0.220514286,8.1408 L1.59702857,9.71056364 C2.958,11.7448 5.35937143,12.3268364 7.51205714,11.1444545 L9.46365714,10.3822182 L8.08714286,8.81245455 C6.72617143,6.77821818 4.32577143,6.19618182 2.17211429,7.37856364 L0.220514286,8.1408" id="Fill-260" fill="#F1B501"></path>
                                <path d="M2.95508571,18.0306 L5.03297143,18.3168 C7.40617143,18.9624364 9.6016,17.8359455 10.4409143,15.5405636 L11.4065143,13.6942364 L9.3296,13.4080364 C6.95542857,12.7624 4.76,13.8888909 3.92068571,16.1833091 L2.95508571,18.0306" id="Fill-261" fill="#F1B501"></path>
                                <path d="M9.57731429,23.4452727 L11.5357143,22.7023091 C13.9293143,22.1347273 15.3058286,20.0976 14.9269714,17.6856182 L14.8764571,15.6060909 L12.9170857,16.3480909 C10.5234857,16.9166364 9.14697143,18.9528 9.52582857,21.3657455 L9.57731429,23.4452727" id="Fill-262" fill="#F1B501"></path>
                                <path d="M12.7626286,26.3737636 L14.8550857,26.2340364 C17.3108571,26.3891818 19.2304,24.8435091 19.5820571,22.4267091 L20.1493714,20.4242727 L18.0569143,20.5630364 C15.6001714,20.4088545 13.6816,21.9545273 13.3299429,24.3703636 L12.7626286,26.3737636" id="Fill-263" fill="#F1B501"></path>
                                <path d="M13.3493714,31.2064 L15.3922857,31.6747273 C17.6984571,32.5275455 19.9861714,31.5986 21.0285143,29.3870545 L22.1553714,27.6322727 L20.1124571,27.1649091 C17.8062857,26.3120909 15.5185714,27.2400727 14.4762286,29.4516182 L13.3493714,31.2064" id="Fill-264" fill="#F1B501"></path>
                                <path d="M11.7358286,37.0450727 L13.6242857,37.9499273 C15.6827429,39.2874545 18.1210286,38.8836909 19.6306286,36.9554545 L21.1208,35.4916909 L19.2323429,34.5868364 C17.1729143,33.2493091 14.7356,33.6530727 13.226,35.5813091 L11.7358286,37.0450727" id="Fill-265" fill="#F1B501"></path>
                                <path d="M12.3750286,0.444236364 L11.3647429,2.26743636 C9.9076,4.23518182 10.1844571,6.67221818 12.0447429,8.26992727 L13.4397143,9.82427273 L14.45,8.00107273 C15.9071429,6.03332727 15.6302857,3.59629091 13.7690286,1.99858182 L12.3750286,0.444236364" id="Fill-266" fill="#F1B501"></path>
                                <path d="M22.0261714,3.32550909 L20.1736571,4.30070909 C17.8694286,5.15738182 16.7552,7.3458 17.4303429,9.69418182 L17.7392571,11.7515455 L19.5908,10.7753818 C21.896,9.91967273 23.0102286,7.73029091 22.3350857,5.38287273 L22.0261714,3.32550909" id="Fill-267" fill="#F1B501"></path>
                                <path d="M28.8922286,10.0825273 L26.8007429,9.93027273 C24.3906286,9.43592727 22.2719429,10.7002182 21.5832,13.0447455 L20.7390286,14.9488909 L22.8314857,15.1011455 C25.2416,15.5954909 27.3593143,14.3312 28.0480571,11.9866727 L28.8922286,10.0825273" id="Fill-268" fill="#F1B501"></path>
                                <path d="M32.5982286,16.7296909 L30.5805714,16.1611455 C28.3200571,15.1965455 25.9886286,16.0108182 24.8374857,18.1684 L23.6241714,19.8653636 L25.6418286,20.4329455 C27.9023429,21.3985091 30.2337714,20.5842364 31.3849143,18.4266545 L32.5982286,16.7296909" id="Fill-269" fill="#F1B501"></path>
                                <path d="M33.7493714,23.9935818 L32.0794857,22.7360364 C30.3289714,21.0188364 27.8596,20.9340364 25.9934857,22.5269273 L24.2400571,23.6678727 L25.9099429,24.9263818 C27.6604571,26.6426182 30.1308,26.7274182 31.9959429,25.1345273 L33.7493714,23.9935818" id="Fill-270" fill="#F1B501"></path>
                                <path d="M33.6240571,31.8790182 L32.3058286,30.2610727 C31.0196571,28.1796182 28.6406286,27.5118182 26.4461714,28.6171091 L24.4683429,29.3099636 L25.7875429,30.9269455 C27.0737143,33.0084 29.4517714,33.6762 31.6462286,32.5718727 L33.6240571,31.8790182" id="Fill-271" fill="#F1B501"></path>
                                <path d="M31.4334857,40.6606364 L30.8632571,38.6582 C30.5057714,36.2433273 28.5833143,34.7015091 26.1275429,34.8605091 L24.0350857,34.7265636 L24.6062857,36.7280364 C24.9628,39.1438727 26.8852571,40.6847273 29.3410286,40.5257273 L31.4334857,40.6606364" id="Fill-272" fill="#F1B501"></path>
                                <path d="M27.7420571,48.3697273 L27.8392,46.2911636 C28.2724571,43.8878545 26.9416,41.8218182 24.5606286,41.2012364 L22.6187429,40.4158727 L22.5216,42.4944364 C22.0893143,44.8977455 23.4201714,46.9637818 25.8001714,47.5843636 L27.7420571,48.3697273" id="Fill-273" fill="#F1B501"></path>
                                <path d="M2.50531429,52.6463455 C14.9405714,50.2912182 23.5348,40.3416727 23.3356571,27.5397636 C23.2200571,20.0889273 18.5814857,13.2538545 11.4065143,10.7879091" id="Stroke-274" stroke="#F4C44E" stroke-width="1.5999999"></path>
                            </g>
                        </g>
                    </g>
                </g>
            </g>
        </g>
    </g>
</svg>