<?xml version="1.0" encoding="UTF-8" standalone="no"?>
<svg width="162px" height="143px" viewBox="0 0 162 143" version="1.1" xmlns="http://www.w3.org/2000/svg" xmlns:xlink="http://www.w3.org/1999/xlink">
    <!-- Generator: Sketch 3.8.3 (29802) - http://www.bohemiancoding.com/sketch -->
    <title>medal3</title>
    <desc>Created with Sketch.</desc>
    <defs></defs>
    <g id="Super-Gluten" stroke="none" stroke-width="1" fill="none" fill-rule="evenodd">
        <g id="medal3" transform="translate(0.000000, -18.000000)">
            <g id="i1" transform="translate(0.000000, 18.000000)">
                <g id="Page-1">
                    <g>
                        <g id="i1">
                            <path d="M68.5464,117.663 L24.4218,73.5384 L25.818,55.393 C25.9168,54.1268 27.6848,53.9084 28.0852,55.1148 L31.7772,66.1856 L75.8992,110.3076 L85.1708,112.6268 C86.398,112.9336 86.3278,114.699 85.0798,114.907 L68.5464,117.663" id="Fill-51" fill="#38454F"></path>
                            <path d="M20.0876,143 L3.3124,143 C1.482,143 0,141.518 0,139.6876 L0,122.9124 C0,121.082 1.482,119.6 3.3124,119.6 L20.0876,119.6 C21.918,119.6 23.4,121.082 23.4,122.9124 L23.4,139.6876 C23.4,141.518 21.918,143 20.0876,143" id="Fill-52" fill="#38454F"></path>
                            <path d="M20.0876,119.6 C21.918,119.6 23.4,121.082 23.4,122.9124 L23.4,129.7166 L52,101.1166 L40.9682,90.0848 L11.4556,119.6 L20.0876,119.6" id="Fill-53" fill="#AD8E72"></path>
                            <path d="M62.4,83.2 C61.7344,83.2 61.0688,82.9452 60.5618,82.4382 C59.5452,81.4216 59.5452,79.7784 60.5618,78.7618 L139.321,0 L123.7002,0 L44.6472,79.0556 L63.0318,97.4402 L143,18.3846 L143,3.6764 L64.2382,82.4382 C63.7312,82.9452 63.0656,83.2 62.4,83.2" id="Fill-474" fill="#E3E3E3"></path>
                        </g>
                    </g>
                </g>
            </g>
            <g id="Group-15" transform="translate(48.000000, 0.000000)">
                <path d="M25.8881911,28.467741 L23.5354426,29.1165968 C20.7769233,29.5263373 18.6096012,31.6879885 18.1990141,34.442021 L17.5488175,36.7899179 L19.901566,36.141062 C22.6612894,35.7313216 24.8274073,33.5696704 25.2391985,30.8156378 L25.8881911,28.467741 L25.8881911,28.467741 L25.8881911,28.467741 Z" id="Fill-283" opacity="0.600000024" transform="translate(21.718504, 32.628829) rotate(-138.000000) translate(-21.718504, -32.628829) "></path>
                <path d="M25.8881911,28.467741 L23.5354426,29.1165968 C20.7769233,29.5263373 18.6096012,31.6879885 18.1990141,34.442021 L17.5488175,36.7899179 L19.901566,36.141062 C22.6612894,35.7313216 24.8274073,33.5696704 25.2391985,30.8156378 L25.8881911,28.467741 L25.8881911,28.467741 L25.8881911,28.467741 Z" id="Stroke-284" stroke="#EFC75E" stroke-width="2.25523799" transform="translate(21.718504, 32.628829) rotate(-138.000000) translate(-21.718504, -32.628829) "></path>
                <path d="M27.620104,34.2667604 L26.4160362,36.3851545 C24.7544227,38.6225056 24.7544227,41.6793375 26.4160362,43.9166886 L27.620104,46.0350827 L28.8241718,43.9166886 C30.4845813,41.6793375 30.4845813,38.6225056 28.8241718,36.3851545 L27.620104,34.2667604 L27.620104,34.2667604 L27.620104,34.2667604 Z" id="Fill-285" opacity="0.600000024" transform="translate(27.619653, 40.150922) rotate(-138.000000) translate(-27.619653, -40.150922) "></path>
                <path d="M27.620104,34.2667604 L26.4160362,36.3851545 C24.7544227,38.6225056 24.7544227,41.6793375 26.4160362,43.9166886 L27.620104,46.0350827 L28.8241718,43.9166886 C30.4845813,41.6793375 30.4845813,38.6225056 28.8241718,36.3851545 L27.620104,34.2667604 L27.620104,34.2667604 L27.620104,34.2667604 Z" id="Stroke-286" stroke="#EFC75E" stroke-width="2.25523799" transform="translate(27.619653, 40.150922) rotate(-138.000000) translate(-27.619653, -40.150922) "></path>
                <path d="M32.6869615,24.6255422 L30.5641899,23.4239573 C28.3222157,21.7669718 25.2578632,21.7669718 23.0158889,23.4239573 L20.8931174,24.6255422 L23.0158889,25.8271271 C25.2578632,27.4841127 28.3222157,27.4841127 30.5641899,25.8271271 L32.6869615,24.6255422 L32.6869615,24.6255422 L32.6869615,24.6255422 Z" id="Fill-287" opacity="0.600000024" transform="translate(26.790039, 24.625542) rotate(-138.000000) translate(-26.790039, -24.625542) "></path>
                <path d="M32.6869615,24.6255422 L30.5641899,23.4239573 C28.3222157,21.7669718 25.2578632,21.7669718 23.0158889,23.4239573 L20.8931174,24.6255422 L23.0158889,25.8271271 C25.2578632,27.4841127 28.3222157,27.4841127 30.5641899,25.8271271 L32.6869615,24.6255422 L32.6869615,24.6255422 L32.6869615,24.6255422 Z" id="Stroke-288" stroke="#EFC75E" stroke-width="2.25523799" transform="translate(26.790039, 24.625542) rotate(-138.000000) translate(-26.790039, -24.625542) "></path>
                <path d="M38.4313562,33.7113552 L37.2272884,35.8297493 C35.5656748,38.0671004 35.5656748,41.1239323 37.2272884,43.3612834 L38.4313562,45.4796775 L39.635424,43.3612834 C41.2958334,41.1239323 41.2958334,38.0671004 39.635424,35.8297493 L38.4313562,33.7113552 L38.4313562,33.7113552 L38.4313562,33.7113552 Z" id="Fill-289" opacity="0.600000024" transform="translate(38.430905, 39.595516) rotate(-138.000000) translate(-38.430905, -39.595516) "></path>
                <path d="M38.4313562,33.7113552 L37.2272884,35.8297493 C35.5656748,38.0671004 35.5656748,41.1239323 37.2272884,43.3612834 L38.4313562,45.4796775 L39.635424,43.3612834 C41.2958334,41.1239323 41.2958334,38.0671004 39.635424,35.8297493 L38.4313562,33.7113552 L38.4313562,33.7113552 L38.4313562,33.7113552 Z" id="Stroke-290" stroke="#EFC75E" stroke-width="2.25523799" transform="translate(38.430905, 39.595516) rotate(-138.000000) translate(-38.430905, -39.595516) "></path>
                <path d="M43.4982136,24.070137 L41.3754421,22.8685521 C39.1334678,21.2115666 36.0691153,21.2115666 33.8271411,22.8685521 L31.7043695,24.070137 L33.8271411,25.2717219 C36.0691153,26.9287075 39.1334678,26.9287075 41.3754421,25.2717219 L43.4982136,24.070137 L43.4982136,24.070137 L43.4982136,24.070137 Z" id="Fill-291" opacity="0.600000024" transform="translate(37.601292, 24.070137) rotate(-138.000000) translate(-37.601292, -24.070137) "></path>
                <path d="M43.4982136,24.070137 L41.3754421,22.8685521 C39.1334678,21.2115666 36.0691153,21.2115666 33.8271411,22.8685521 L31.7043695,24.070137 L33.8271411,25.2717219 C36.0691153,26.9287075 39.1334678,26.9287075 41.3754421,25.2717219 L43.4982136,24.070137 L43.4982136,24.070137 L43.4982136,24.070137 Z" id="Stroke-292" stroke="#EFC75E" stroke-width="2.25523799" transform="translate(37.601292, 24.070137) rotate(-138.000000) translate(-37.601292, -24.070137) "></path>
                <path d="M49.2426083,33.15595 L48.0385405,35.2743441 C46.3769269,37.5116952 46.3769269,40.5685271 48.0385405,42.8058782 L49.2426083,44.9242723 L50.4466761,42.8058782 C52.1070856,40.5685271 52.1070856,37.5116952 50.4466761,35.2743441 L49.2426083,33.15595 L49.2426083,33.15595 L49.2426083,33.15595 Z" id="Fill-293" opacity="0.600000024" transform="translate(49.242157, 39.040111) rotate(-138.000000) translate(-49.242157, -39.040111) "></path>
                <path d="M60.0530733,32.6002427 L58.8490055,34.7186368 C57.1885961,36.9559879 57.1885961,40.0128198 58.8490055,42.2501709 L60.0530733,44.368565 L61.2571411,42.2501709 C62.9175506,40.0128198 62.9175506,36.9559879 61.2571411,34.7186368 L60.0530733,32.6002427 L60.0530733,32.6002427 L60.0530733,32.6002427 Z" id="Fill-297" opacity="0.600000024" transform="translate(60.053073, 38.484404) rotate(-138.000000) translate(-60.053073, -38.484404) "></path>
                <path d="M65.1207179,22.9593266 L62.9979463,21.7577417 C60.7559721,20.1007562 57.6916196,20.1007562 55.4496453,21.7577417 L53.3268738,22.9593266 L55.4496453,24.1609115 C57.6916196,25.8178971 60.7559721,25.8178971 62.9979463,24.1609115 L65.1207179,22.9593266 L65.1207179,22.9593266 L65.1207179,22.9593266 Z" id="Fill-299" opacity="0.600000024" transform="translate(59.223796, 22.959327) rotate(-138.000000) translate(-59.223796, -22.959327) "></path>
                <path d="M70.8639235,32.0446831 L69.6598557,34.1642789 C67.9994462,36.4004283 67.9994462,39.4584619 69.6598557,41.6958129 L70.8639235,43.8142071 L72.0679913,41.6958129 C73.7284008,39.4584619 73.7284008,36.4004283 72.0679913,34.1642789 L70.8639235,32.0446831 L70.8639235,32.0446831 L70.8639235,32.0446831 Z" id="Fill-301" opacity="0.600000024" transform="translate(70.863923, 37.929445) rotate(-138.000000) translate(-70.863923, -37.929445) "></path>
                <path d="M75.93197,22.4039214 L73.8091985,21.2023365 C71.5672242,19.545351 68.5028717,19.545351 66.2621015,21.2023365 L64.1381259,22.4039214 L66.2621015,23.6055063 C68.5028717,25.2624918 71.5672242,25.2624918 73.8091985,23.6055063 L75.93197,22.4039214 L75.93197,22.4039214 L75.93197,22.4039214 Z" id="Fill-303" opacity="0.600000024" transform="translate(70.035048, 22.403921) rotate(-138.000000) translate(-70.035048, -22.403921) "></path>
                <path d="M79.6950702,9.33676164 L36.6857685,52.2561721" id="Fill-305" opacity="0.600000024" transform="translate(58.190419, 30.796467) rotate(-138.000000) translate(-58.190419, -30.796467) "></path>
                <path d="M45.9837881,24.5742167 L32.8185199,37.7394846" id="Stroke-306" stroke="#EFC75E" stroke-width="2.25523799" transform="translate(39.491011, 31.395781) rotate(-138.000000) translate(-39.491011, -31.395781) "></path>
                <path d="M11.8235609,45.7756647 L18.6349724,38.9795006" id="Fill-307" opacity="0.600000024" transform="translate(15.229267, 42.377583) rotate(-138.000000) translate(-15.229267, -42.377583) "></path>
                <path d="M11.8235609,45.7756647 L18.6349724,38.9795006" id="Stroke-308" stroke="#EFC75E" stroke-width="2.25523799" transform="translate(15.229267, 42.377583) rotate(-138.000000) translate(-15.229267, -42.377583) "></path>
                <path d="M7.1118832,42.0059136 L15.6258466,33.5095069" id="Fill-309" opacity="0.600000024" transform="translate(11.368865, 37.757710) rotate(-138.000000) translate(-11.368865, -37.757710) "></path>
                <path d="M7.1118832,42.0059136 L15.6258466,33.5095069" id="Stroke-310" stroke="#EFC75E" stroke-width="2.25523799" transform="translate(11.368865, 37.757710) rotate(-138.000000) translate(-11.368865, -37.757710) "></path>
                <path d="M6.59753937,32.3976555 L15.1115028,23.9012488" id="Fill-311" opacity="0.600000024" transform="translate(10.854521, 28.149452) rotate(-138.000000) translate(-10.854521, -28.149452) "></path>
                <path d="M6.59753937,32.3976555 L15.1115028,23.9012488" id="Stroke-312" stroke="#EFC75E" stroke-width="2.25523799" transform="translate(10.854521, 28.149452) rotate(-138.000000) translate(-10.854521, -28.149452) "></path>
                <path d="M1.87472318,37.0541261 L9.53741064,29.4084415" id="Fill-313" opacity="0.600000024" transform="translate(5.706067, 33.231284) rotate(-138.000000) translate(-5.706067, -33.231284) "></path>
                <path d="M1.87472318,37.0541261 L9.53741064,29.4084415" id="Stroke-314" stroke="#EFC75E" stroke-width="2.25523799" transform="translate(5.706067, 33.231284) rotate(-138.000000) translate(-5.706067, -33.231284) "></path>
                <path d="M10.7960792,26.5584098 L17.6074908,19.7610442" id="Fill-315" opacity="0.600000024" transform="translate(14.201785, 23.159727) rotate(-138.000000) translate(-14.201785, -23.159727) "></path>
                <path d="M10.7960792,26.5584098 L17.6074908,19.7610442" id="Stroke-316" stroke="#EFC75E" stroke-width="2.25523799" transform="translate(14.201785, 23.159727) rotate(-138.000000) translate(-14.201785, -23.159727) "></path>
            </g>
            <g id="j45" transform="translate(135.174258, 60.784609) rotate(-81.000000) translate(-135.174258, -60.784609) translate(103.174258, 28.784609)">
                <path d="M52.8254861,11.2552456 L50.4727376,11.9041014 C47.7142183,12.3138419 45.5468963,14.4754931 45.1363092,17.2295256 L44.4861125,19.5774225 L46.838861,18.9285667 C49.5985844,18.5188262 51.7647024,16.357175 52.1764936,13.6031425 L52.8254861,11.2552456 L52.8254861,11.2552456 L52.8254861,11.2552456 Z" id="Fill-283" opacity="0.600000024"></path>
                <path d="M39.237581,7.89080792 L38.0335132,10.0092021 C36.3718997,12.2465531 36.3718997,15.3033851 38.0335132,17.5407361 L39.237581,19.6591303 L40.4416488,17.5407361 C42.1020583,15.3033851 42.1020583,12.2465531 40.4416488,10.0092021 L39.237581,7.89080792 L39.237581,7.89080792 L39.237581,7.89080792 Z" id="Fill-285" opacity="0.600000024"></path>
                <path d="M56.1390807,24.7574549 L54.0163092,23.55587 C51.7743349,21.8988845 48.7099824,21.8988845 46.4680081,23.55587 L44.3452366,24.7574549 L46.4680081,25.9590398 C48.7099824,27.6160254 51.7743349,27.6160254 54.0163092,25.9590398 L56.1390807,24.7574549 L56.1390807,24.7574549 L56.1390807,24.7574549 Z" id="Fill-287" opacity="0.600000024"></path>
                <path d="M23.9122061,23.1845803 L22.7081383,25.3029745 C21.0465247,27.5403255 21.0465247,30.5971575 22.7081383,32.8345085 L23.9122061,34.9529027 L25.1162739,32.8345085 C26.7766834,30.5971575 26.7766834,27.5403255 25.1162739,25.3029745 L23.9122061,23.1845803 L23.9122061,23.1845803 L23.9122061,23.1845803 Z" id="Fill-293" opacity="0.600000024"></path>
                <path d="M23.9122061,23.1845803 L22.7081383,25.3029745 C21.0465247,27.5403255 21.0465247,30.5971575 22.7081383,32.8345085 L23.9122061,34.9529027 L25.1162739,32.8345085 C26.7766834,30.5971575 26.7766834,27.5403255 25.1162739,25.3029745 L23.9122061,23.1845803 L23.9122061,23.1845803 L23.9122061,23.1845803 Z" id="Stroke-294" stroke="#EFC75E" stroke-width="2.25523799"></path>
                <path d="M40.8137058,40.0512273 L38.6909342,38.8496424 C36.44896,37.1926569 33.3846075,37.1926569 31.1426332,38.8496424 L29.0198617,40.0512273 L31.1426332,41.2528122 C33.3846075,42.9097977 36.44896,42.9097977 38.6909342,41.2528122 L40.8137058,40.0512273 L40.8137058,40.0512273 L40.8137058,40.0512273 Z" id="Fill-295" opacity="0.600000024"></path>
                <path d="M40.8137058,40.0512273 L38.6909342,38.8496424 C36.44896,37.1926569 33.3846075,37.1926569 31.1426332,38.8496424 L29.0198617,40.0512273 L31.1426332,41.2528122 C33.3846075,42.9097977 36.44896,42.9097977 38.6909342,41.2528122 L40.8137058,40.0512273 L40.8137058,40.0512273 L40.8137058,40.0512273 Z" id="Stroke-296" stroke="#EFC75E" stroke-width="2.25523799"></path>
                <path d="M16.2495186,30.8314665 L15.0454508,32.9498607 C13.3850414,35.1872117 13.3850414,38.2440436 15.0454508,40.4813947 L16.2495186,42.5997888 L17.4535864,40.4813947 C19.1139959,38.2440436 19.1139959,35.1872117 17.4535864,32.9498607 L16.2495186,30.8314665 L16.2495186,30.8314665 L16.2495186,30.8314665 Z" id="Fill-297" opacity="0.600000024"></path>
                <path d="M16.2495186,30.8314665 L15.0454508,32.9498607 C13.3850414,35.1872117 13.3850414,38.2440436 15.0454508,40.4813947 L16.2495186,42.5997888 L17.4535864,40.4813947 C19.1139959,38.2440436 19.1139959,35.1872117 17.4535864,32.9498607 L16.2495186,30.8314665 L16.2495186,30.8314665 L16.2495186,30.8314665 Z" id="Stroke-298" stroke="#EFC75E" stroke-width="2.25523799"></path>
                <path d="M33.1510183,47.6981135 L31.0282468,46.4965286 C28.7862725,44.8395431 25.72192,44.8395431 23.4799458,46.4965286 L21.3571742,47.6981135 L23.4799458,48.8996984 C25.72192,50.5566839 28.7862725,50.5566839 31.0282468,48.8996984 L33.1510183,47.6981135 L33.1510183,47.6981135 L33.1510183,47.6981135 Z" id="Fill-299" opacity="0.600000024"></path>
                <path d="M33.1510183,47.6981135 L31.0282468,46.4965286 C28.7862725,44.8395431 25.72192,44.8395431 23.4799458,46.4965286 L21.3571742,47.6981135 L23.4799458,48.8996984 C25.72192,50.5566839 28.7862725,50.5566839 31.0282468,48.8996984 L33.1510183,47.6981135 L33.1510183,47.6981135 L33.1510183,47.6981135 Z" id="Stroke-300" stroke="#EFC75E" stroke-width="2.25523799"></path>
                <path d="M8.58683119,38.4771511 L7.38276339,40.5967468 C5.7223539,42.8328963 5.7223539,45.8909298 7.38276339,48.1282809 L8.58683119,50.246675 L9.79089898,48.1282809 C11.4513085,45.8909298 11.4513085,42.8328963 9.79089898,40.5967468 L8.58683119,38.4771511 L8.58683119,38.4771511 L8.58683119,38.4771511 Z" id="Fill-301" opacity="0.600000024"></path>
                <path d="M8.58683119,38.4771511 L7.38276339,40.5967468 C5.7223539,42.8328963 5.7223539,45.8909298 7.38276339,48.1282809 L8.58683119,50.246675 L9.79089898,48.1282809 C11.4513085,45.8909298 11.4513085,42.8328963 9.79089898,40.5967468 L8.58683119,38.4771511 L8.58683119,38.4771511 L8.58683119,38.4771511 Z" id="Stroke-302" stroke="#EFC75E" stroke-width="2.25523799"></path>
                <path d="M25.4883308,55.3449997 L23.3655593,54.1434148 C21.1235851,52.4864293 18.0592325,52.4864293 15.8184624,54.1434148 L13.6944868,55.3449997 L15.8184624,56.5465846 C18.0592325,58.2035701 21.1235851,58.2035701 23.3655593,56.5465846 L25.4883308,55.3449997 L25.4883308,55.3449997 L25.4883308,55.3449997 Z" id="Fill-303"></path>
                <path d="M25.4883308,55.3449997 L23.3655593,54.1434148 C21.1235851,52.4864293 18.0592325,52.4864293 15.8184624,54.1434148 L13.6944868,55.3449997 L15.8184624,56.5465846 C18.0592325,58.2035701 21.1235851,58.2035701 23.3655593,56.5465846 L25.4883308,55.3449997 L25.4883308,55.3449997 L25.4883308,55.3449997 Z" id="Stroke-304" stroke="#EFC75E" stroke-width="2.25523799"></path>
                <path d="M44.2826251,19.7228143 L1.27332339,62.6422247" id="Fill-305" opacity="0.600000024"></path>
                <path d="M27.9800952,35.9354523 L1.27332339,62.6422247" id="Stroke-306" stroke="#EFC75E" stroke-width="2.25523799"></path>
                <path d="M43.5493478,7.22753307 L50.3607593,0.431368973" id="Fill-307" opacity="0.600000024"></path>
                <path d="M48.6582075,8.92777568 L57.1721708,0.431368973" id="Fill-309" opacity="0.600000024"></path>
                <path d="M55.469619,15.7239398 L63.9835824,7.22753307" id="Fill-311" opacity="0.600000024"></path>
                <path d="M56.3208949,8.07705358 L63.9835824,0.431368973" id="Fill-313" opacity="0.600000024"></path>
                <path d="M57.1721708,20.8222644 L63.9835824,14.0248988" id="Fill-315" opacity="0.600000024"></path>
            </g>
        </g>
    </g>
</svg>