<?xml version="1.0" encoding="UTF-8" standalone="no"?>
<svg width="1000px" height="844px" viewBox="0 0 1000 844" version="1.1" xmlns="http://www.w3.org/2000/svg" xmlns:xlink="http://www.w3.org/1999/xlink" style="background: #FFFFFF;">
    <!-- Generator: Sketch 39.1 (31720) - http://www.bohemiancoding.com/sketch -->
    <title>sr-alergeno-2</title>
    <desc>Created with Sketch.</desc>
    <defs></defs>
    <g id="Feria" stroke="none" stroke-width="1" fill="none" fill-rule="evenodd">
        <g id="sr-alergeno-2">
            <g id="Group" transform="translate(138.000000, 71.000000)">
                <g id="trigo-si-o-no-copy" transform="translate(216.000000, 0.000000)">
                    <g id="mr">
                        <g id="Group-12">
                            <polyline id="Fill-31" fill="#774E32" points="288.340317 75.5698345 276.140688 86.3866581 279.60423 78.5312643 288.340317 75.5698345"></polyline>
                            <path d="M278.950732,45.5439783 C278.950732,45.5439783 276.535758,60.9326769 272.136525,66.7690497 L273.568281,54.4819492 L278.950732,45.5439783" id="Fill-32" fill="#774E32"></path>
                            <path d="M263.721247,24.4680223 C263.721247,24.4680223 273.312822,35.5443065 265.245087,48.952754 L264.00641,38.8695776 L263.721247,24.4680223" id="Fill-33" fill="#774E32"></path>
                            <g id="Group-11">
                                <path d="M209.147776,410.603299 C209.147776,410.603299 212.487448,415.697989 215.623204,418.697585 C216.594851,419.627043 217.54692,420.355342 218.373986,420.668582 C221.870203,421.992726 222.471632,434.516048 222.471632,434.516048 C222.471632,434.516048 209.15066,498.717065 201.492846,493.99011 C193.835033,489.263155 187.506989,427.519099 187.506989,427.519099" id="Fill-2" fill="#E3BC96"></path>
                                <path d="M46.2250775,435.605736 C46.2250775,435.605736 43.2546299,444.552654 52.1659726,468.411102 C61.0773153,492.269549 64.0477628,492.269549 64.0477628,492.269549 L87.8113432,474.375713 L61.0773153,420.694207 L46.2250775,435.605736 Z" id="Path-2338" stroke="#D3A784" stroke-width="1.30208333" fill="#E3BC96"></path>
                                <path d="M126.242994,542.023359 C106.967759,541.754951 87.8648113,541.722146 68.9876171,539.222974 C68.8153311,528.865425 69.047026,526.849386 69.047026,526.849386 L207.036197,528.277911 C207.036197,528.277911 207.443148,530.961986 207.817424,535.196861 C180.533864,536.810288 153.767161,542.402112 126.242994,542.023359" id="Fill-12" fill="#466D89"></path>
                                <g id="Group-10" transform="translate(37.313735, 375.959618)">
                                    <path d="M26.4904513,0.438398973 C26.4904513,0.438398973 10.5213252,9.28093607 0.0623793986,59.687871 L37.9534084,79.496347 L26.4904513,0.438398973" id="Fill-14" fill="#365370"></path>
                                    <path d="M17.7751581,55.2800228 C17.6622811,38.6894549 19.5574267,22.2778253 20.9713597,5.78865582 C24.2804383,1.66412671 26.4904513,0.438398973 26.4904513,0.438398973 L37.9534084,79.496347 L18.0187348,69.0761701 C17.9088283,64.4774543 17.8048626,59.8787386 17.7751581,55.2800228" id="Fill-15" fill="#2E4B63"></path>
                                </g>
                                <path d="M212.680047,379.684518 C212.680047,379.684518 224.508369,387.906735 235.06831,430.225656 L200.661616,446.082577 C200.661616,446.082577 189.843246,393.987657 212.680047,379.684518" id="Fill-16" fill="#365370"></path>
                                <path d="M212.680047,379.684518 C212.680047,379.684518 214.996996,381.300928 218.493213,386.755565 C212.252303,393.334532 210.383891,404.172232 209.498698,412.803025 C208.500627,422.543236 209.219476,432.044863 210.669054,441.471932 L200.661616,446.082577 C200.661616,446.082577 189.843246,393.987657 212.680047,379.684518" id="Fill-17" fill="#2E4B63"></path>
                                <path d="M207.811483,374.742837 C210.333393,376.41591 215.742578,382.872603 215.742578,382.872603 C215.742578,382.872603 213.03056,386.415582 212.014667,388.157249 C202.105254,405.0878 205.019263,420.718065 203.560773,452.121747 C201.573544,494.768721 209.290766,531.13496 209.290766,531.13496 C209.290766,531.13496 170.348199,545.861587 66.2963916,533.994991 C66.2963916,533.994991 53.6927826,382.472974 63.3259438,374.742837 C71.9990124,367.783126 72.9591049,361.048088 110.666895,357.08075 C148.374685,353.113412 119.957451,357.281344 125.42018,357.609489 L145.616253,365.029466 L164.439979,357.126356 C164.439979,357.126356 183.970671,358.862058 207.811483,374.742837 Z" id="Fill-18" fill="#EEEEEE"></path>
                                <path d="M158.205009,385.884732 C147.401492,392.114769 148.928302,376.905009 145.853888,370.534803 C145.53308,369.875713 144.520157,369.660987 143.943891,370.069563 C140.848684,372.2377 139.283258,375.65244 137.869325,379.073145 C136.43757,382.517708 133.211664,393.155594 127.817331,387.334132 C121.858613,380.907263 123.370571,369.771333 117.26036,363.845491 C110.030291,356.843037 106.709331,358.340154 102.663582,358.065782 C107.091604,357.29282 120.506041,355.830231 126.427162,355.083476 C131.8145,354.40404 120.376346,357.345453 132.368057,358.065782 L145.616253,365.029466 L164.439979,357.126356 C164.439979,357.126356 175.852438,358.161216 191.872062,365.721361 C186.257916,364.960873 179.416975,364.233191 174.512766,367.048487 C167.021298,371.348973 165.57469,381.631963 158.205009,385.884732 Z" id="Fill-20" fill="#D5D5D5"></path>
                                <path d="M155.264266,350.249158 C155.264266,350.249158 164.416215,351.456992 166.620287,357.692994 C168.82733,363.923031 168.726335,377.522346 152.590863,386.206821 C152.590863,386.206821 151.500709,367.978967 146.614323,364.364412 C146.614323,364.364412 134.604804,371.572646 132.418554,383.820976 C132.418554,383.820976 117.233626,368.089312 128.666879,350.777026 C140.097161,333.470705 155.264266,350.249158 155.264266,350.249158" id="Fill-21" fill="#365370"></path>
                                <path d="M282.334072,216.52256 C282.334072,216.52256 287.110551,153.676427 280.364665,117.095462 C280.364665,117.095462 289.56117,90.4157534 288.340317,75.5698345 L279.60423,78.5312643 C279.60423,78.5312643 286.157038,58.8778682 278.950732,45.5439783 L273.568281,54.4819492 C273.568281,54.4819492 277.373424,35.8156963 263.721247,24.4680223 L264.00641,38.8695776 C264.00641,38.8695776 209.599691,-2.7932363 147.220292,0.189069638 C96.7226839,0.189069634 69.9886559,18.0829049 61.0773133,24.4680213 C46.4876603,34.9217358 28.4023916,59.8351908 22.4614972,80.7113324 C16.5206028,101.587474 14.3016777,147.040796 14.3016777,147.040796 C14.3016777,147.040796 11.5569841,195.434675 15.6621426,215.803824 L37.1295671,271.15244 L234.26926,267.215796 L261.407269,258.307648 L269.878985,218.628068 L282.334072,216.52256 L19.4910495,38.9590468" id="Fill-22" fill="#8E5C3A"></path>
                                <path d="M69.4064502,171.045377 C69.4064502,171.045377 66.5696728,150.413784 76.9632688,143.584304 C87.3568647,136.751841 80.5070127,147.118336 80.5070127,147.118336 L69.4064502,171.045377" id="Fill-23" fill="#774E32"></path>
                                <path d="M86.8726818,164.651313 C86.8726818,164.651313 84.2052199,146.700813 97.506884,140.736201 C110.814489,134.774572 104.965678,143.378525 104.965678,143.378525 L86.8726818,164.651313" id="Fill-24" fill="#774E32"></path>
                                <path d="M102.607142,164.338171 C102.607142,164.338171 106.822208,143.432206 125.29245,140.989697 C143.759723,138.550171 89.6856956,184.116824 89.6856956,184.116824 L102.607142,164.338171" id="Fill-25" fill="#774E32"></path>
                                <path d="M171.592816,135.53506 C171.592816,135.53506 176.042547,148.555808 159.304075,152.05107 C142.562632,155.549315 171.592816,135.53506 171.592816,135.53506" id="Fill-26" fill="#774E32"></path>
                                <path d="M219.042746,138.311587 C225.592582,141.848602 223.804373,152.071946 221.680503,157.541495 C220.424004,160.76835 216.110914,163.932577 214.569252,166.398944 C213.027589,166.214041 211.646331,164.669207 210.122492,164.415711 C215.097991,156.96591 217.21295,146.939398 219.042746,138.311587" id="Fill-27" fill="#774E32"></path>
                                <path d="M192.038407,145.355793 C195.44551,141.914212 194.001873,135.713998 195.142525,136.587814 C196.898059,137.935816 199.247683,142.767152 198.017918,146.978168 C196.791123,151.183219 188.233264,160.133119 179.728872,160.47012 C179.232808,160.490996 178.891206,160.726598 178.677334,161.042723 C178.25256,160.992023 177.818874,160.941324 177.3941,160.872731 C178.193151,160.997988 180.991312,157.377469 181.543816,156.757149 C182.803285,155.349501 183.89344,153.789755 185.343018,152.647531 C188.399609,150.228881 189.33827,148.087586 192.038407,145.355793" id="Fill-28" fill="#774E32"></path>
                                <path d="M37.7503906,206.051684 C40.1029851,213.033262 41.6060316,224.336201 49.142057,227.956721 C59.4940667,232.925243 73.6571606,228.82159 84.6804915,228.600899 C101.585309,228.263898 118.510919,228.1625 135.386031,226.889055 C168.057984,224.425671 200.575473,219.13506 233.027613,214.643707 C244.101441,213.10782 251.940452,209.057848 257.486278,199.293779 C260.88447,193.299344 264.457918,187.576299 271.512731,185.604994 C275.41887,184.510488 279.8686,183.812628 283.795532,184.769949 C283.364817,202.95605 282.334072,216.52256 282.334072,216.52256 L269.878985,218.628068 L261.407269,258.307648 L234.26926,267.215796 L37.1295671,271.15244 L15.6621426,215.803824 C14.1769189,208.419635 13.5857998,197.352297 13.4461888,186.24619 C21.5525401,193.272503 33.8917793,194.593664 37.7503906,206.051684" id="Fill-30" fill="#774E32"></path>
                                <path d="M249.73341,253.434561 C249.73341,253.434561 260.174533,196.054994 268.004633,194.038955 C275.834732,192.019934 290.672118,193.120405 291.08501,214.029352 C291.500873,234.932334 281.047868,244.905166 270.648331,245.579167 C270.648331,245.579167 266.19563,336.303896 224.656891,342.706906 C183.115182,349.115882 161.846778,350.472831 161.846778,350.472831 C161.846778,350.472831 158.80801,360.761787 145.390499,361.024229 C131.970017,361.292637 127.54702,348.364341 127.54702,348.364341 C127.54702,348.364341 73.2026822,349.48867 57.2959355,338.454138 C20.1950456,312.722803 24.5734853,268.15224 22.182275,264.484004 C19.7970056,260.812785 -2.46946922,258.468693 0.269283422,233.312942 C3.01397696,208.157192 13.5085682,200.513542 21.8584962,201.277012 C30.2054538,202.040482 36.3839848,256.762814 39.6395953,257.627683 C42.8952058,258.492551 52.2461747,262.954081 53.4967331,255.954609 C54.7472915,248.958119 59.2178151,147.544806 59.2178151,147.544806 C59.2178151,147.544806 59.0128542,160.559589 69.4064502,171.045377 C69.4064502,171.045377 72.6590903,148.203896 80.5070127,147.118336 C80.5070127,147.118336 79.8564847,161.075528 86.8726818,164.651313 C86.8726818,164.651313 90.5946526,142.269107 104.965678,143.378525 C104.965678,143.378525 93.23241,158.483904 102.607142,164.338171 C102.607142,164.338171 117.931681,143.456064 129.035214,142.835745 C129.035214,142.835745 122.512112,164.406764 127.624252,165.235845 C132.730451,166.061943 144.154792,154.905137 167.386663,139.340482 C167.386663,139.340482 168.961,148.606507 159.304075,152.05107 C159.304075,152.05107 169.136256,157.437115 192.038407,145.355793 C192.038407,145.355793 190.386838,155.152668 183.070626,159.945234 C183.070626,159.945234 211.782972,160.300128 217.94368,143.909375 C217.94368,143.909375 223.64991,151.696176 215.561381,163.944506 C215.561381,163.944506 239.987371,158.343736 241.5023,141.580194 C241.5023,141.580194 250.208681,160.461173 241.894399,254.982377 C241.894399,254.982377 248.87198,257.988542 249.73341,253.434561" id="Fill-34" fill="#E3BC96"></path>
                                <path d="M9.4004392,255.90391 C16.095828,256.050043 24.5823966,258.304666 28.1380224,264.62119 C31.2005538,270.066881 32.4570531,309.546647 54.5987691,326.668065 C79.1613999,345.659389 125.265716,343.899829 129.522368,345.244849 C135.198893,347.046162 134.955316,351.86855 139.464456,354.20966 C141.475449,355.253467 144.321137,354.451227 146.412333,354.257377 C152.679977,353.684775 153.392884,348.64766 158.40997,346.157434 C166.263834,342.27149 178.404053,343.822289 187.006469,342.999172 C196.384172,342.101498 205.818313,341.08155 215.038582,339.056564 C226.982752,336.435117 241.757758,330.947674 246.718405,317.742023 C253.182099,300.552012 258.849713,283.537957 261.211219,265.393607 C262.3489,256.679309 262.735059,243.428924 274.040582,242.57002 C276.589226,242.373188 279.019052,241.913913 281.321149,241.18623 C278.089302,243.879252 274.367331,245.334618 270.648331,245.579167 C270.648331,245.579167 266.19563,336.303896 224.656891,342.706906 C183.115182,349.115882 161.846778,350.472831 161.846778,350.472831 C161.846778,350.472831 158.80801,360.761787 145.390499,361.024229 C131.970017,361.292637 127.54702,348.364341 127.54702,348.364341 C127.54702,348.364341 67.3390187,350.958947 49.652974,334.502583 C21.1218252,307.951113 24.5734853,268.15224 22.182275,264.484004 C20.8990417,262.506735 13.8679923,260.884361 8.06670824,255.915839 C8.50336404,255.900928 8.94893117,255.891981 9.4004392,255.90391" id="Fill-35" fill="#D3A784"></path>
                                <path d="M240.091337,151.499344 C235.181187,156.43506 231.649325,161.985131 224.760857,164.529038 C222.610253,165.328296 209.670984,168.555151 212.608756,164.302383 C214.655395,161.343936 216.924817,158.555479 217.117896,154.845491 C217.156511,153.953781 216.146559,153.255922 215.329686,153.536259 C205.420273,156.92714 196.336645,162.173017 185.675708,162.793336 C184.526145,162.858947 175.585098,163.753639 178.107008,161.114298 C179.749665,159.390525 181.5052,157.800956 182.916162,155.880351 C183.667686,154.863385 182.378511,153.524329 181.312121,153.867295 C177.055469,155.227226 172.914666,156.971875 168.637221,158.260231 C165.948966,159.065454 163.156745,159.948216 160.343732,160.133119 C159.301104,160.201712 149.124351,161.203767 153.868156,155.349501 C154.996926,153.959746 153.202776,152.203168 151.869045,153.416966 C145.408321,159.292109 137.055423,165.680208 128.438154,167.818522 C116.110797,170.869421 119.571368,159.572446 121.885347,152.584903 C122.324973,151.24883 120.438739,150.261687 119.532753,151.275671 C114.462199,156.97784 109.765921,161.952326 105.467683,168.209204 C98.8079401,177.892751 95.8107585,161.847945 95.6444134,157.616053 C95.5939158,156.327697 93.6185682,155.629837 93.0423014,156.96591 C92.3442462,158.594249 91.8333292,160.189783 91.3669689,161.904609 C90.7372341,164.23379 88.2390877,174.11417 82.4615672,167.818522 C79.8891596,165.012172 78.4960197,161.600414 77.5454765,157.956036 C77.2098159,156.682591 75.0770346,156.619963 74.8661328,158.009717 C74.402743,161.138156 74.4948268,164.102568 74.7384035,167.248901 C75.219616,173.535602 67.5885363,173.150885 63.5368458,170.618907 C61.5852618,169.393179 59.8713135,167.857292 58.3771784,166.106678 C58.8880954,155.060217 59.2178151,147.544806 59.2178151,147.544806 C59.2178151,147.544806 59.0128542,160.559589 69.4064502,171.045377 C69.4064502,171.045377 72.6590903,148.203896 80.5070127,147.118336 C80.5070127,147.118336 79.8564847,161.075528 86.8726818,164.651313 C86.8726818,164.651313 90.5946526,142.269107 104.965678,143.378525 C104.965678,143.378525 93.23241,158.483904 102.607142,164.338171 C102.607142,164.338171 117.931681,143.456064 129.035214,142.835745 C129.035214,142.835745 122.512112,164.406764 127.624252,165.235845 C132.730451,166.061943 144.154792,154.905137 167.386663,139.340482 C167.386663,139.340482 168.961,148.606507 159.304075,152.05107 C159.304075,152.05107 169.136256,157.437115 192.038407,145.355793 C192.038407,145.355793 190.386838,155.152668 183.070626,159.945234 C183.070626,159.945234 211.782972,160.300128 217.94368,143.909375 C217.94368,143.909375 223.64991,151.696176 215.561381,163.944506 C215.561381,163.944506 239.987371,158.343736 241.5023,141.580194 C241.5023,141.580194 242.429079,143.614127 243.385563,149.596632 C242.123123,149.86504 240.854742,150.738856 240.091337,151.499344" id="Fill-36" fill="#D3A784"></path>
                                <path d="M249.73341,253.434561 C249.73341,253.434561 260.174533,196.054994 268.004633,194.038955 C274.088109,192.473245 284.362887,192.831122 288.857174,202.83974 C287.282837,201.822774 285.524332,201.098074 283.682655,200.69248 C276.589226,196.487429 269.475004,199.022389 265.170826,207.06865 C262.283551,212.481535 261.380535,218.347731 260.735947,224.249715 C259.737877,227.747959 258.772482,231.264098 257.96452,234.798131 C256.601084,240.792566 255.683216,248.215525 252.077093,253.342109 C250.030454,256.249857 248.661078,256.619663 247.719446,255.74883 C248.696724,255.444635 249.480922,254.770634 249.73341,253.434561" id="Fill-37" fill="#D3A784"></path>
                                <path d="M21.8584962,201.277012 C30.2054538,202.040482 36.3839848,256.762814 39.6395953,257.627683 C42.8952058,258.492551 52.2461747,262.954081 53.4967331,255.954609 C53.6125806,255.298502 53.7581325,253.786473 53.9304184,251.627283 C54.8869026,256.079866 55.2492972,260.66367 52.002598,263.487914 C51.3431586,264.057534 50.6272808,264.516809 49.8846689,264.919421 C41.5109772,266.589512 37.587016,261.576256 34.0284198,254.71397 C30.7668684,242.558091 30.4727941,228.314598 25.4794718,216.400285 C22.0901911,208.321219 10.826254,206.5378 5.96957227,213.749015 C5.50618246,214.187414 5.04873353,214.637743 4.6031664,215.111929 C9.1568625,204.336858 16.0275077,200.743179 21.8584962,201.277012" id="Fill-38" fill="#D3A784"></path>
                                <path d="M233.951422,202.571333 L202.910245,179.17216 C202.910245,179.17216 211.842381,163.398744 230.045283,176.383704 C248.248186,189.365682 233.951422,202.571333 233.951422,202.571333" id="Fill-43" fill="#8E5C3A"></path>
                                <path d="M105.491447,186.98282 L70.5589838,201.685588 C70.5589838,201.685588 63.6259593,186.97089 78.7425668,178.659204 C93.8621449,170.350499 105.491447,186.98282 105.491447,186.98282" id="Fill-44" fill="#8E5C3A"></path>
                                <path d="M74.5572062,218.502811 C74.7621671,228.758961 83.2071495,236.906621 93.4254891,236.700842 C103.634917,236.498045 111.756121,228.022332 111.55116,217.763199 C111.35214,207.501084 102.898246,199.353425 92.6888181,199.556221 C82.473449,199.762001 74.3552158,208.240696 74.5572062,218.502811" id="Fill-45" fill="#47413E"></path>
                                <path d="M93.9393765,215.222275 C96.3632617,219.129095 100.566445,220.900585 103.328961,219.170848 C106.082566,217.450057 106.358818,212.887129 103.934933,208.971361 C101.511047,205.064541 97.3108345,203.299015 94.5542592,205.019806 C91.7947134,206.749543 91.5154913,211.318436 93.9393765,215.222275" id="Fill-46" fill="#FFFFFF"></path>
                                <path d="M185.105382,214.428981 C185.307373,224.688114 193.755326,232.835773 203.973665,232.629994 C214.186064,232.427197 222.307267,223.951484 222.102307,213.689369 C221.900316,203.430237 213.452363,195.282577 203.236994,195.485374 C193.015684,195.691153 184.900421,204.169849 185.105382,214.428981" id="Fill-47" fill="#47413E"></path>
                                <path d="M204.487553,211.148445 C206.905497,215.055265 211.114621,216.83272 213.877137,215.1 C216.630742,213.379209 216.909964,208.813299 214.486079,204.903496 C212.056253,200.996675 207.861981,199.228168 205.099465,200.951941 C202.339919,202.678696 202.060697,207.244606 204.487553,211.148445" id="Fill-48" fill="#FFFFFF"></path>
                                <path d="M174.477121,201.136844 C174.477121,201.136844 185.458866,262.453054 169.587764,274.781906 C153.716663,287.110759 131.212552,285.354181 119.693157,270.630537 C108.16782,255.906892 115.748402,219.555565 123.56068,207.098473 C131.369986,194.641381 162.327991,179.55986 174.477121,201.136844" id="Fill-49" fill="#D3A784"></path>
                                <path d="M171.785896,197.814555 C171.785896,197.814555 182.197314,255.939697 167.154968,267.624372 C152.10668,279.312029 130.775897,277.650885 119.856531,263.690711 C108.925284,249.730537 116.119708,215.275956 123.522064,203.466025 C130.924419,191.659075 160.26947,177.361901 171.785896,197.814555" id="Fill-50" fill="#E3BC96"></path>
                                <path d="M89.6262867,276.022546 C89.6262867,276.022546 85.3250786,268.862029 80.4416628,269.539013 C75.5552766,270.218978 75.6235969,272.917965 74.3106591,274.746119 C72.9947508,276.57129 70.746122,274.623844 71.1530733,272.091866 C71.5570542,269.556906 73.8116239,263.106179 82.440774,265.158005 C91.0639833,267.212814 92.097699,273.800728 92.097699,273.800728 C92.097699,273.800728 92.2640441,277.862628 89.6262867,276.022546" id="Fill-51" fill="#D3A784"></path>
                                <path d="M208.753115,278.676798 C208.753115,278.676798 208.084765,333.918051 137.506931,330.01123 C66.9320674,326.107392 80.1386772,279.016781 80.1386772,279.016781 C80.1386772,279.016781 81.8050983,274.752083 84.3002742,278.933276 C86.7954502,283.120434 83.4210217,295.288242 90.172849,304.124814 C96.9276468,312.961387 110.683789,326.766481 139.601096,325.421461 C168.512462,324.073459 196.850532,315.210046 203.575625,278.781179 C203.575625,278.781179 206.364875,272.759903 208.753115,278.676798" id="Fill-52" fill="#D3A784"></path>
                                <path d="M20.7802238,245.385317 C20.7802238,245.385317 25.8270142,218.896475 14.7918015,224.568821 C8.01918108,228.043208 8.44989598,236.614355 12.0203739,241.403938 C14.2690027,244.40712 17.9701804,245.98476 20.7802238,245.385317" id="Fill-53" fill="#D3A784"></path>
                                <path d="M20.7772533,245.054281 L21.7188852,238.254623 C21.7188852,238.254623 8.35187121,226.519249 9.82818364,236.533833 C11.3044961,246.554381 20.7772533,245.054281 20.7772533,245.054281" id="Fill-54" fill="#C4987A"></path>
                            </g>
                            <path d="M269.51362,232.534561 C269.51362,232.534561 269.177959,205.571533 279.051727,213.09589 C285.105499,217.709518 283.18659,226.071904 278.831914,230.160645 C276.090191,232.719463 272.175141,233.62012 269.51362,232.534561" id="Fill-55" fill="#D3A784"></path>
                            <path d="M269.573029,232.209489 L269.834428,225.350186 C269.834428,225.350186 285.04609,216.149772 281.838007,225.752797 C278.638835,235.358804 269.573029,232.209489 269.573029,232.209489" id="Fill-56" fill="#C4987A"></path>
                        </g>
                    </g>
                </g>
                <path d="M76.1960961,642.342693 L63.3320616,642.869236 C55.4286284,642.869236 50.1107066,642.584028 47.3781366,642.013603 C44.6455666,641.443178 42.2073099,640.763066 40.0632935,639.973247 C37.919277,639.183428 36.2167012,638.261986 34.9555151,637.208894 C31.8445892,634.751679 30.2891497,631.460816 30.2891497,627.336205 C30.2891497,626.107597 31.0038111,624.264713 32.4331554,621.807498 C33.8624997,619.350283 36.3217758,616.432384 39.8110575,613.053713 C43.3003392,609.675043 47.4621911,606.471936 52.296738,603.444296 C57.1312849,600.416656 63.5001794,597.762026 71.4036127,595.480326 C79.3070459,593.198626 87.8829831,591.882281 97.1316815,591.53125 C100.410766,591.53125 103.878975,591.948093 107.536415,592.781791 C111.193855,593.615489 114.220656,594.602748 116.61691,595.743598 C119.013164,596.884447 121.136129,598.617636 122.985868,600.943214 C124.835608,603.268793 125.760464,605.967301 125.760464,609.03882 C125.760464,611.496035 123.490363,614.128726 118.950093,616.936971 C113.905348,620.096248 107.242181,621.675862 98.9603923,621.675862 C90.6786032,621.675862 86.5377708,621.061568 86.5377708,619.83296 C86.5377708,618.867626 88.955008,617.726793 93.7895549,616.410428 C98.6241019,615.094063 103.479596,613.558326 108.356182,611.803173 C113.232769,610.048019 115.671025,608.073501 115.671025,605.879559 C115.671025,604.738709 113.821313,604.168293 110.121834,604.168293 C85.7389017,604.168293 64.8035256,610.75002 47.3150776,623.913672 C44.0359936,626.458645 42.3964762,628.652554 42.3964762,630.495465 C42.3964762,633.391469 51.140569,634.839449 68.629017,634.839449 C84.3518044,635.014964 92.2130801,639.402782 92.2130801,648.003035 C92.2130801,654.146073 88.2193839,659.981871 80.2318716,665.510605 C72.2443593,671.039338 62.8486634,675.3394 52.044502,678.410919 C41.2403406,681.482438 31.0879444,683.062052 21.5870087,683.14981 C17.1308176,683.14981 12.42246,681.921221 7.46179443,679.464006 C2.5011289,677.006791 0.0208333333,674.023075 0.0208333333,670.512767 C0.0208333333,669.371918 0.945689306,668.757623 2.795429,668.669865 C12.7167601,667.529015 19.0646351,666.300426 21.8392447,664.984061 C22.5118773,664.808546 23.0583831,664.720789 23.4787785,664.720789 C23.8991739,664.720789 24.1093684,664.808546 24.1093684,664.984061 C24.1093684,665.335092 23.6049015,665.905508 22.5959526,666.695327 C21.6710827,667.221873 20.662149,667.704533 19.569121,668.143322 C17.2149068,669.020899 16.0378174,669.591315 16.0378174,669.854588 C16.0378174,670.117861 16.8785955,670.249496 18.5601771,670.249496 C20.2417586,670.249496 24.4876883,669.547445 31.2980935,668.143322 C38.1084988,666.739199 45.4022493,664.940194 53.1795639,662.746252 C60.9568785,660.552309 67.8302399,657.831862 73.7998544,654.584828 C79.7694688,651.337794 82.7542313,648.222443 82.7542313,645.238682 C82.7542313,643.308013 80.5682081,642.342693 76.1960961,642.342693 L76.1960961,642.342693 Z M100.158513,650.240845 C104.782862,646.906053 109.617337,643.308042 114.662081,639.446704 C111.971551,637.516035 110.247956,635.629273 109.491244,633.786362 C109.239007,633.172058 109.11289,632.733276 109.11289,632.470003 C109.11289,630.71485 109.659396,629.552078 110.752424,628.981653 C111.845452,628.411228 113.611086,628.12602 116.049379,628.12602 C116.974249,628.12602 119.706778,629.310731 124.247048,631.680188 C128.787318,634.049645 131.666984,635.234356 132.88613,635.234356 C134.105277,635.234356 135.807853,634.861392 137.993909,634.115451 C140.179965,633.369511 141.924579,632.996547 143.227805,632.996547 C144.531031,632.996547 145.476906,633.303694 146.06546,633.917998 C148.167436,636.814001 149.218409,638.569128 149.218409,639.183432 C149.218409,639.797736 148.945156,640.302335 148.398642,640.697245 C147.852128,641.092154 146.128533,642.342682 143.227805,644.448867 C140.327077,646.555051 137.48945,648.705082 134.714841,650.899024 C131.940231,653.092966 129.333819,655.550144 126.895526,658.270632 C124.457233,660.99112 123.238104,663.185029 123.238104,664.852425 C123.238104,665.115698 123.448299,665.247333 123.868694,665.247333 C128.408964,665.247333 143.711127,655.638011 169.775641,636.419079 C170.364194,636.419079 170.658467,636.967556 170.658467,638.064527 C170.658467,639.161498 167.337393,642.935022 160.695146,649.385211 C154.052899,655.835401 146.548954,662.153859 138.183086,668.340776 C129.817217,674.527692 123.742595,677.621104 119.959037,677.621104 C114.073501,677.621104 111.130778,674.549631 111.130778,668.406594 C111.130778,665.071802 112.20277,661.846755 114.346786,658.731358 C116.490803,655.61596 121.009985,651.425594 127.90447,646.160133 C126.475125,646.160133 124.541336,645.787168 122.103042,645.041228 C119.664749,644.295288 118.10931,643.395785 117.436677,642.342693 C115.250621,644.361119 111.467119,647.73974 106.086058,652.478654 C104.824872,653.443989 103.185355,653.926649 101.167457,653.926649 C99.1495592,653.926649 98.1406254,653.597562 98.1406254,652.93938 C98.1406254,652.281197 98.8132479,651.381694 100.158513,650.240845 L100.158513,650.240845 Z M159.81232,663.667703 C160.653111,663.667703 161.199616,663.843215 161.451854,664.194246 C162.628961,665.686127 163.217505,666.892777 163.217505,667.814232 C163.217505,668.735688 162.965272,669.525495 162.460798,670.183678 C161.956323,670.84186 161.346759,671.587789 160.632087,672.421487 C159.917415,673.255185 158.488092,674.396018 156.344075,675.84402 C154.200059,677.292022 152.119133,678.016012 150.101235,678.016012 C148.587812,677.752738 147.831111,676.787418 147.831111,675.120023 C147.831111,672.487292 149.344512,669.920419 152.371359,667.419325 C155.398206,664.918231 157.878501,663.667703 159.81232,663.667703 L159.81232,663.667703 Z" id="Sr.-" fill="#2E4B63"></path>
                <path d="M211.36054,639.575181 L213.378428,631.67703 C215.648551,623.120699 217.792557,613.116373 219.810445,604.033499 L220.314917,604.033499 C222.458923,612.984737 224.729046,623.120699 226.99917,631.67703 L228.89094,639.575181 L211.36054,639.575181 Z M237.719199,675.116864 L257.393604,675.116864 L231.665535,589.290282 L209.342652,589.290282 L183.614583,675.116864 L202.532281,675.116864 L207.577,654.713306 L232.674479,654.713306 L237.719199,675.116864 Z M262.312206,654.844942 C262.312206,668.008528 266.600217,676.696495 279.338134,676.696495 C283.500027,676.696495 286.652977,676.038315 288.670865,675.116864 L286.400741,660.768555 C285.391797,661.031827 284.887325,661.031827 284.130617,661.031827 C282.617201,661.031827 280.85155,659.715468 280.85155,655.634757 L280.85155,582.840125 L262.312206,582.840125 L262.312206,654.844942 Z M292.202168,642.47117 C292.202168,664.059452 305.949028,676.696495 323.857782,676.696495 C331.298743,676.696495 339.62253,673.932142 346.054548,669.324886 L339.874766,657.609295 C335.334519,660.505284 331.046507,661.953278 326.380142,661.953278 C318.056355,661.953278 311.750456,657.609295 310.110922,647.736605 L347.567963,647.736605 C347.946317,646.156975 348.324671,642.997714 348.324671,639.575181 C348.324671,621.80434 339.496412,608.245846 321.713777,608.245846 C306.705736,608.245846 292.202168,621.277797 292.202168,642.47117 L292.202168,642.47117 Z M309.984804,635.757741 C311.245984,627.069775 316.290703,622.989063 322.09213,622.989063 C329.533092,622.989063 332.559923,628.254497 332.559923,635.757741 L309.984804,635.757741 Z M340.505356,579.8125 L322.596602,579.8125 L311.372102,599.557879 L324.866726,599.557879 L340.505356,579.8125 Z M358.666346,675.116864 L377.20569,675.116864 L377.20569,637.205736 C380.484757,628.386133 386.286185,625.226872 390.95255,625.226872 C393.601028,625.226872 395.492798,625.62178 397.762921,626.279959 L400.789753,609.562205 C399.024101,608.77239 396.880095,608.245846 393.348792,608.245846 C386.916775,608.245846 380.106403,612.458194 375.566156,621.277797 L375.061684,621.277797 L373.800504,609.825477 L358.666346,609.825477 L358.666346,675.116864 Z M416.428383,683.278288 C416.428383,680.908842 417.563445,678.934304 419.833569,676.828131 C421.851456,677.354674 424.373816,677.617946 428.661828,677.617946 L435.093845,677.617946 C441.273626,677.617946 444.678812,678.671033 444.678812,682.751744 C444.678812,687.227364 438.625148,690.781532 430.301361,690.781532 C421.977574,690.781532 416.428383,688.148815 416.428383,683.278288 L416.428383,683.278288 Z M401.168107,686.305913 C401.168107,697.889868 412.770961,702.892031 427.400648,702.892031 C448.840705,702.892031 462.335329,693.019342 462.335329,679.460848 C462.335329,667.745256 453.885424,662.874729 438.49903,662.874729 L428.409592,662.874729 C421.473102,662.874729 418.950743,661.295099 418.950743,658.004202 C418.950743,655.766393 419.581333,654.58167 421.220866,653.133675 C423.995462,654.055126 426.517822,654.450034 428.787946,654.450034 C442.534806,654.450034 453.380953,647.473333 453.380953,632.466845 C453.380953,629.044313 452.498127,625.885052 451.363065,623.910514 L461.326386,623.910514 L461.326386,609.825477 L438.49903,609.825477 C435.724435,608.77239 432.319249,608.245846 428.787946,608.245846 C415.293321,608.245846 402.933759,616.143998 402.933759,631.808666 C402.933759,639.443546 406.969534,645.630431 411.383664,648.789692 L411.383664,649.316235 C407.347888,652.212224 404.321056,656.819479 404.321056,661.55837 C404.321056,666.955441 406.843416,670.377973 410.122484,672.615783 L410.122484,673.142326 C404.321056,676.564859 401.168107,680.908842 401.168107,686.305913 L401.168107,686.305913 Z M428.787946,642.734442 C423.869344,642.734442 420.211923,639.048638 420.211923,631.808666 C420.211923,624.831965 423.869344,621.277797 428.787946,621.277797 C433.706547,621.277797 437.363968,624.963601 437.363968,631.808666 C437.363968,639.048638 433.706547,642.734442 428.787946,642.734442 L428.787946,642.734442 Z M463.974863,642.47117 C463.974863,664.059452 477.721724,676.696495 495.630477,676.696495 C503.071438,676.696495 511.395225,673.932142 517.827243,669.324886 L511.647461,657.609295 C507.107214,660.505284 502.819203,661.953278 498.152837,661.953278 C489.82905,661.953278 483.523151,657.609295 481.883617,647.736605 L519.340659,647.736605 C519.719012,646.156975 520.097366,642.997714 520.097366,639.575181 C520.097366,621.80434 511.269107,608.245846 493.486472,608.245846 C478.478431,608.245846 463.974863,621.277797 463.974863,642.47117 L463.974863,642.47117 Z M481.757499,635.757741 C483.018679,627.069775 488.063398,622.989063 493.864826,622.989063 C501.305787,622.989063 504.332618,628.254497 504.332618,635.757741 L481.757499,635.757741 Z M530.439041,675.116864 L548.978385,675.116864 L548.978385,631.01885 C553.01416,626.938139 555.914874,624.700329 560.58124,624.700329 C565.878195,624.700329 568.274437,627.596318 568.274437,637.0741 L568.274437,675.116864 L586.81378,675.116864 L586.81378,634.573019 C586.81378,618.250172 581.012353,608.245846 567.391611,608.245846 C558.941706,608.245846 552.635806,612.853101 547.338851,618.118536 L546.834379,618.118536 L545.573199,609.825477 L530.439041,609.825477 L530.439041,675.116864 Z M596.398747,642.47117 C596.398747,664.191088 611.028433,676.696495 626.919299,676.696495 C642.684048,676.696495 657.313734,664.191088 657.313734,642.47117 C657.313734,620.751253 642.684048,608.245846 626.919299,608.245846 C611.028433,608.245846 596.398747,620.751253 596.398747,642.47117 L596.398747,642.47117 Z M615.442563,642.47117 C615.442563,631.150486 619.226102,623.910514 626.919299,623.910514 C634.486379,623.910514 638.396036,631.150486 638.396036,642.47117 C638.396036,653.791855 634.486379,661.031827 626.919299,661.031827 C619.226102,661.031827 615.442563,653.791855 615.442563,642.47117 L615.442563,642.47117 Z" id="Alérgeno" fill="#2E4B63"></path>
            </g>
        </g>
    </g>
</svg>