<?xml version="1.0" encoding="UTF-8" standalone="no"?>
<svg width="319px" height="197px" viewBox="0 0 319 197" version="1.1" xmlns="http://www.w3.org/2000/svg" xmlns:xlink="http://www.w3.org/1999/xlink">
    <!-- Generator: Sketch 3.7.2 (28276) - http://www.bohemiancoding.com/sketch -->
    <title>sr-ok</title>
    <desc>Created with Sketch.</desc>
    <defs></defs>
    <g id="Super-Gluten-tablet" stroke="none" stroke-width="1" fill="none" fill-rule="evenodd">
        <g id="iPad-Landscape-Copy-7" transform="translate(-353.000000, -220.000000)">
            <g id="sr-ok" transform="translate(352.000000, 220.000000)">
                <g id="Group-3-Copy" transform="translate(0.000000, 30.000000)">
                    <g id="Group-2" transform="translate(0.000000, 3.933003)" font-size="20.9760164" font-family="SourceSansPro-Bold, Source Sans Pro" fill="#FFFFFF" opacity="0.5" font-weight="bold">
                        <text id="Ingredientes:">
                            <tspan x="1.30394464" y="21">Ingredientes:</tspan>
                        </text>
                        <text id="TRIGO">
                            <tspan x="113.648603" y="104.904066">TRIGO</tspan>
                        </text>
                    </g>
                    <text id="------------swfgjdfg" font-family="RedactedScript, Redacted Script" font-size="23.5980185" font-weight="normal" fill-opacity="0.3" fill="#000000">
                        <tspan x="2.63525505" y="23">            swfgjdfgc salse </tspan>
                        <tspan x="2.63525505" y="50">38jldk waduswadus asda d </tspan>
                        <tspan x="2.63525505" y="77">asdda waduswadus  skas ksa </tspan>
                        <tspan x="2.63525505" y="104">lkj asdd        asdalacs       </tspan>
                        <tspan x="2.63525505" y="131">alkjasdlkj  jka</tspan>
                    </text>
                </g>
                <g id="Group-Copy" transform="translate(196.000000, 0.000000)">
                    <path d="M65.0026875,190.267612 C58.1323299,190.174163 51.3254886,190.161563 44.5991015,189.28272 C44.5377023,185.6361 44.6202736,184.926306 44.6202736,184.926306 L93.7893803,185.429252 C93.7893803,185.429252 93.9375852,186.374244 94.0699111,187.865232 C84.3466083,188.433277 74.8096203,190.402011 65.0026875,190.267612" id="Fill-186" fill="#686868"></path>
                    <path d="M42.7507741,127.763721 C42.7507741,127.763721 37.0607629,130.876945 33.3344673,148.621801 L46.8380547,155.595844 L42.7507741,127.763721" id="Fill-188" fill="#365370"></path>
                    <path d="M39.644822,147.069914 C39.6045949,141.227761 40.2810446,135.451758 40.7838828,129.647405 C41.9652879,128.195267 42.7507741,127.763721 42.7507741,127.763721 L46.8380547,155.595844 L39.7326863,151.926124 C39.6935179,150.308087 39.6575252,148.687951 39.644822,147.069914" id="Fill-189" fill="#2E4B63"></path>
                    <path d="M95.8007331,133.119727 C95.8007331,133.119727 100.016105,136.014554 103.780511,150.910782 L91.5197275,156.493587 C91.5197275,156.493587 87.6632231,138.155486 95.8007331,133.119727" id="Fill-190" fill="#5C5C5C"></path>
                    <path d="M95.8007331,133.119727 C95.8007331,133.119727 96.6275049,133.689872 97.873485,135.609257 C95.6493523,137.925538 94.9834887,141.740157 94.6680239,144.778832 C94.312332,148.207054 94.5674562,151.552327 95.0872321,154.8703 L91.5197275,156.493587 C91.5197275,156.493587 87.6632231,138.155486 95.8007331,133.119727" id="Fill-191" fill="#8D8D8D"></path>
                    <path d="M78.611077,125.178642 C78.611077,125.178642 85.5703576,125.790787 94.0677939,131.380941 C94.9633751,131.968936 96.8932152,134.242168 96.8932152,134.242168 C96.8932152,134.242168 95.9267073,135.488508 95.5636052,136.102753 C92.0342103,142.062504 93.0716449,147.56446 92.5529276,158.61982 C91.8447197,173.632598 94.5939214,186.436194 94.5939214,186.436194 C94.5939214,186.436194 80.7177044,191.618951 43.6400038,187.442085 C43.6400038,187.442085 40.0100413,129.849004 42.2024158,128.134368 C44.3969076,126.422882 45.1771007,124.18955 64.7083949,125.34979 L71.9048034,127.961119 L78.611077,125.178642" id="Fill-192" fill="#FFFFFF"></path>
                    <path d="M65.6050348,189.009723 C65.493881,183.509867 64.6448785,178.119211 65.0503248,172.592056 C65.493881,166.596605 65.1921781,160.979151 64.6173547,155.006799 C63.6646086,145.12323 63.0654372,135.17561 62.7425622,125.242691 C45.1273462,124.344948 44.3185707,126.482731 42.2024158,128.134368 C40.0100413,129.849004 43.6400038,187.442085 43.6400038,187.442085 C52.1512018,188.400728 59.4259473,188.862724 65.6050348,189.009723" id="Fill-193" fill="#CECECE"></path>
                    <path d="M82.2008124,128.670913 C79.5310063,130.187101 79.0165234,133.806422 76.3911787,135.302659 C72.5399674,137.496092 73.0851499,132.142185 71.9905505,129.898353 C71.8751624,129.667355 71.5131189,129.591756 71.3098664,129.735605 C70.204681,130.497898 69.6489125,131.701189 69.1450157,132.905529 C68.63265,134.116169 67.4840617,137.862539 65.5595147,135.812955 C63.4380668,133.551274 63.9768976,129.630605 61.8025194,127.544272 C59.2226948,125.078892 55.3439597,125.533539 52.0559272,125.625938 C50.6035188,125.665838 49.157462,125.616488 47.7166983,125.519889 C50.7305516,125.000143 55.7377614,124.816395 64.7083949,125.34979 L71.9048034,127.961119 L78.611077,125.178642 C78.611077,125.178642 82.6793027,125.542989 88.3862515,128.204717 C86.3865434,127.936969 83.9496307,127.680771 82.2008124,128.670913" id="Fill-194" fill="#DADADA"></path>
                    <path d="M75.343158,122.757361 C75.343158,122.757361 78.6036668,123.183658 79.3870357,125.37919 C80.1746392,127.571572 80.1407637,132.358483 74.3893534,135.416058 C74.3893534,135.416058 74.0008447,128.999561 72.2604953,127.726971 C72.2604953,127.726971 67.9805483,130.26585 67.2014137,134.576065 C67.2014137,134.576065 61.7908747,129.03841 65.8633348,122.94321 C69.9379121,116.851159 75.343158,122.757361 75.343158,122.757361" id="Fill-195" fill="#365370"></path>
                    <path d="M119.921087,40.6805787 C119.921087,40.6805787 123.197475,31.2905051 122.761329,26.0625976 L119.647967,27.1052391 C119.647967,27.1052391 121.98537,20.1868454 119.416132,15.4923335 L117.500054,18.6391579 C117.500054,18.6391579 118.854012,12.0683114 113.989714,8.07309386 L114.09134,13.1435026 C114.09134,13.1435026 102.449609,-8.4726139e-09 81.0422288,0 C59.6348483,8.47261661e-09 53.5184504,6.0911125 44.3438601,9.59587178 C38.3586181,11.8822771 21.4073806,18.6391582 23.5831702,51.222493 C25.7589598,83.8058279 24.1341162,68.2586045 25.5981693,75.4300462 L33.2487201,94.9126378 L103.495745,93.526649 L113.166118,90.3913745 L116.182088,76.4233381 L120.622944,75.6820441 C120.622944,75.6820441 122.324125,53.559774 119.921087,40.6805787 Z" id="Fill-196" fill="#8E5C3A"></path>
                    <path d="M44.7473064,59.6728243 C44.7473064,59.6728243 43.7373956,52.4089834 47.4414605,50.0055529 C51.1465841,47.6000225 48.7022611,51.2497928 48.7022611,51.2497928 L44.7473064,59.6728243" id="Fill-197" fill="#774E32"></path>
                    <path d="M50.9708553,57.4226926 C50.9708553,57.4226926 50.0202265,51.102794 54.7627846,49.0028111 C59.5032256,46.9038781 57.4209461,49.9331035 57.4209461,49.9331035 L50.9708553,57.4226926" id="Fill-198" fill="#774E32"></path>
                    <path d="M56.5782952,57.3124435 C56.5782952,57.3124435 58.0804581,49.9520033 64.6618162,49.0920603 C71.2431742,48.2342173 51.9744145,64.2738869 51.9744145,64.2738869 L56.5782952,57.3124435" id="Fill-199" fill="#774E32"></path>
                    <path d="M81.160202,47.1726759 C81.160202,47.1726759 82.7459949,51.7558887 76.7828632,52.9864787 C70.8165557,54.2170687 81.160202,47.1726759 81.160202,47.1726759" id="Fill-200" fill="#774E32"></path>
                    <path d="M98.0682687,48.149168 C100.402497,49.3944579 99.7652153,52.9927786 99.0104287,54.918463 C98.5615794,56.0545537 97.0244824,57.1685947 96.4740069,58.0369376 C95.9256487,57.9728881 95.4344551,57.4268926 94.8903313,57.3386933 C96.6634975,54.7168646 97.4182841,51.1867933 98.0682687,48.149168" id="Fill-201" fill="#774E32"></path>
                    <path d="M88.4465921,50.6292478 C89.6597554,49.4186077 89.1463312,47.2356754 89.5528362,47.5422729 C90.1795313,48.0179191 91.0158307,49.7178552 90.5775675,51.1993932 C90.1393043,52.6809312 87.0894583,55.8309055 84.0597258,55.9506046 C83.8839971,55.9569045 83.7622574,56.0409038 83.6849791,56.1522029 C83.5335983,56.1333031 83.3790417,56.1154532 83.2287196,56.0913034 C83.5124262,56.1354031 84.5096337,54.8607134 84.7044173,54.6433652 C85.1553838,54.1477692 85.5438925,53.5986237 86.0604926,53.196477 C87.1497989,52.3459839 87.4843186,51.59209 88.4465921,50.6292478" id="Fill-202" fill="#774E32"></path>
                    <path d="M33.4689103,71.9955241 C34.3073268,74.4546041 34.839806,78.4319718 37.5265499,79.7066614 C41.2147357,81.4559472 46.2621726,80.0122089 50.1917208,79.9345096 C56.2141345,79.8158605 62.245017,79.7791108 68.2579032,79.3318145 C79.90046,78.4634715 91.4890279,76.6028866 103.051131,75.0205495 C106.998675,74.4798039 109.792338,73.0539155 111.76664,69.6172934 C112.980862,67.5057606 114.25119,65.491877 116.765381,64.7978326 C118.157449,64.4135358 119.743241,64.1678378 121.141661,64.503835 C120.99028,70.906683 120.622944,75.6820441 120.622944,75.6820441 L116.182088,76.4233381 L113.166118,90.3913745 L103.495745,93.526649 L33.2487201,94.9126378 L25.5981693,75.4300462 C25.0667487,72.8302673 24.8571446,68.934799 24.8063315,65.0225308 C27.6963278,67.4973607 32.0927216,67.9635569 33.4689103,71.9955241" id="Fill-204" fill="#774E32"></path>
                    <polyline id="Fill-205" fill="#774E32" points="122.761329 26.0625976 118.41469 29.8698666 119.647967 27.1052391 122.761329 26.0625976"></polyline>
                    <path d="M119.416132,15.4923335 C119.416132,15.4923335 118.556543,20.9081895 116.987688,22.9651228 L117.500054,18.6391579 L119.416132,15.4923335" id="Fill-206" fill="#774E32"></path>
                    <path d="M113.989714,8.07309386 C113.989714,8.07309386 117.405838,11.9738121 114.532779,16.6924738 L114.09134,13.1435026 L113.989714,8.07309386" id="Fill-207" fill="#774E32"></path>
                    <path d="M109.005793,88.6756885 C109.005793,88.6756885 112.724679,68.4759527 115.515166,67.7672085 C118.303536,67.0574143 123.593394,67.4438111 123.74054,74.8032013 C123.887687,82.1636414 120.164567,85.6737629 116.456268,85.910011 C116.456268,85.910011 114.870475,117.847601 100.067977,120.102983 C85.2675961,122.359415 77.6879719,122.836111 77.6879719,122.836111 C77.6879719,122.836111 76.6050173,126.457531 71.8232907,126.552031 C67.0415641,126.64548 65.4652987,122.094817 65.4652987,122.094817 C65.4652987,122.094817 39.8872429,121.050075 36.3207968,116.636961 C30.0549036,108.884874 28.7708137,93.8584463 27.9207525,92.5659068 C27.0706912,91.2733674 19.1364338,90.4480741 20.1114106,81.5924461 C21.0885046,72.7389181 24.8296208,70.04569 27.8043057,70.3155378 C30.7789906,70.5832856 32.9819512,89.847479 34.1411256,90.1519765 C35.3013586,90.456474 38.6327939,92.0272612 39.0784674,89.5639813 C39.5230822,87.1017513 41.1184025,51.3988916 41.1184025,51.3988916 C41.1184025,51.3988916 41.0453587,55.9821043 44.7473064,59.6728243 C44.7473064,59.6728243 45.9064808,51.6319897 48.7022611,51.2497928 C48.7022611,51.2497928 48.4704263,56.1627028 50.9708553,57.4226926 C50.9708553,57.4226926 52.2983482,49.5425067 57.4209461,49.9331035 C57.4209461,49.9331035 53.2362737,55.2513103 56.5782952,57.3124435 C56.5782952,57.3124435 62.0385887,49.9614533 65.9967192,49.7409551 C65.9967192,49.7409551 63.6730775,57.3355433 65.493881,57.6263909 C67.3125674,57.9182886 71.3829103,53.9923705 79.6612149,48.512465 C79.6612149,48.512465 80.2233351,51.7737385 76.7828632,52.9864787 C76.7828632,52.9864787 80.2847343,54.8817133 88.4465921,50.6292478 C88.4465921,50.6292478 87.8580068,54.0763698 85.2495998,55.7647561 C85.2495998,55.7647561 95.483151,55.8897051 97.6765842,50.120002 C97.6765842,50.120002 99.7091091,52.8604797 96.8275816,57.1727946 C96.8275816,57.1727946 105.531446,55.2009107 106.072394,49.3010086 C106.072394,49.3010086 109.17517,55.9474546 106.213189,89.221684 C106.213189,89.221684 108.69668,90.2800754 109.005793,88.6756885" id="Fill-208" fill="#E3BC96"></path>
                    <path d="M23.3645091,89.5450814 C25.7527259,89.596531 28.7750481,90.3903245 30.0422003,92.6142065 C31.1336239,94.5304409 31.5253084,96.6965733 31.695744,98.8700556 C32.0990732,104.071713 35.0102417,110.849408 38.3840214,114.989525 C42.0298629,119.462488 64.6522887,120.52298 66.1692721,120.995476 C68.1922696,121.629671 68.1065225,123.326457 69.7124289,124.1507 C70.4301642,124.519247 71.4421923,124.236799 72.18851,124.16855 C74.420053,123.968002 74.6762358,122.194566 76.4642226,121.317823 C79.2631788,119.949684 83.5875872,120.49568 86.6533123,120.205882 C89.9953338,119.889835 93.3564101,119.530738 96.6423254,118.817793 C100.897924,117.893801 106.163434,115.963917 107.930249,111.315604 C110.232719,105.262404 112.25254,99.2743023 113.09625,92.8851043 C113.499579,89.8191292 113.639315,85.1540171 117.667314,84.8505696 C118.57454,84.7823201 119.439421,84.6216714 120.2609,84.3644235 C119.109136,85.3125658 117.781643,85.8260116 116.456268,85.910011 C116.456268,85.910011 114.870475,117.847601 100.067977,120.102983 C85.2675961,122.359415 77.6879719,122.836111 77.6879719,122.836111 C77.6879719,122.836111 76.6050173,126.457531 71.8232907,126.552031 C67.0415641,126.64548 65.4652987,122.094817 65.4652987,122.094817 C65.4652987,122.094817 41.375644,121.73992 36.5441629,116.869009 C30.4275332,110.703459 28.7708137,93.8584463 27.9207525,92.5659068 C27.4623757,91.8697625 24.9577122,91.2985672 22.8891947,89.5503314 C23.0469271,89.5440314 23.2046595,89.5408814 23.3645091,89.5450814" id="Fill-209" fill="#D3A784"></path>
                    <path d="M105.569556,52.7911803 C103.820738,54.5278661 102.559937,56.4829502 100.107145,57.378593 C99.340714,57.6610407 94.7304817,58.7960814 95.7774437,57.2998436 C96.5047065,56.2582521 97.3145407,55.27651 97.3822915,53.9692707 C97.397112,53.6553232 97.0361271,53.4096252 96.7471275,53.5083244 C93.2134982,54.7032147 89.9773375,56.5490997 86.1769393,56.7674979 C85.7704343,56.7905977 82.5829695,57.1055952 83.480668,56.1753027 C84.0671361,55.5705077 84.6927727,55.0108622 85.1956109,54.3346677 C85.4634384,53.9755706 85.004003,53.5051745 84.6239632,53.6248735 C83.1069798,54.1036696 81.631282,54.7189646 80.1068883,55.1715109 C79.1509664,55.4560586 78.1548175,55.7668561 77.1501997,55.8309055 C76.780746,55.8561053 73.1539593,56.2089025 74.8445543,54.1477692 C75.2478834,53.6584732 74.6074264,53.0400282 74.1331706,53.4673748 C71.8317595,55.5358579 68.8549574,57.7849397 65.7828807,58.5367335 C61.3896628,59.6119248 62.6229396,55.6335071 63.4475942,53.1733771 C63.604268,52.702981 62.9331114,52.3564838 62.6102363,52.7124309 C60.8042532,54.7210646 59.1295374,56.4724503 57.5977335,58.6742824 C55.2243372,62.0825547 54.1583202,56.4346506 54.0958624,54.9457627 C54.0799833,54.4921664 53.3760098,54.2443684 53.1716987,54.7168646 C52.9229262,55.2891099 52.7397872,55.8508554 52.5746445,56.4546005 C52.3491613,57.2746438 51.4599317,60.7532655 49.4009416,58.5367335 C48.4841881,57.5486916 47.9877016,56.3475013 47.650006,55.0654618 C47.5282663,54.6160654 46.767128,54.5950656 46.6940842,55.0843616 C46.5278829,56.1847527 46.5617583,57.2294942 46.6475055,58.3372352 C46.8200584,60.5485172 44.1004977,60.4141183 42.6565581,59.5216255 C41.9599949,59.092179 41.3502374,58.5503834 40.8188168,57.9350884 C40.9998386,54.0459201 41.1184025,51.3988916 41.1184025,51.3988916 C41.1184025,51.3988916 41.0453587,55.9821043 44.7473064,59.6728243 C44.7473064,59.6728243 45.9064808,51.6319897 48.7022611,51.2497928 C48.7022611,51.2497928 48.4704263,56.1627028 50.9708553,57.4226926 C50.9708553,57.4226926 52.2983482,49.5425067 57.4209461,49.9331035 C57.4209461,49.9331035 53.2362737,55.2513103 56.5782952,57.3124435 C56.5782952,57.3124435 62.0385887,49.9614533 65.9967192,49.7409551 C65.9967192,49.7409551 63.6730775,57.3355433 65.493881,57.6263909 C67.3125674,57.9182886 71.3829103,53.9923705 79.6612149,48.512465 C79.6612149,48.512465 80.2233351,51.7737385 76.7828632,52.9864787 C76.7828632,52.9864787 80.2847343,54.8817133 88.4465921,50.6292478 C88.4465921,50.6292478 87.8580068,54.0763698 85.2495998,55.7647561 C85.2495998,55.7647561 95.483151,55.8897051 97.6765842,50.120002 C97.6765842,50.120002 99.7091091,52.8604797 96.8275816,57.1727946 C96.8275816,57.1727946 105.531446,55.2009107 106.072394,49.3010086 C106.072394,49.3010086 106.401621,50.0160528 106.742492,52.1212857 C106.292584,52.2178849 105.839501,52.5244824 105.569556,52.7911803" id="Fill-210" fill="#D3A784"></path>
                    <path d="M109.005793,88.6756885 C109.005793,88.6756885 112.724679,68.4759527 115.515166,67.7672085 C117.682134,67.215963 121.345972,67.3419619 122.946585,70.8657333 C122.385524,70.5066362 121.759887,70.2525383 121.101434,70.1107894 C118.57454,68.6282015 116.039176,69.5217442 114.507373,72.3535712 C113.47629,74.2603557 113.15659,76.3235889 112.925814,78.401522 C112.571181,79.635262 112.227134,80.8711019 111.938134,82.1163918 C111.451175,84.2268747 111.124065,86.8392534 109.838917,88.6431387 C109.111654,89.6668804 108.620461,89.7981294 108.285941,89.4904819 C108.635281,89.3823327 108.914753,89.1450347 109.005793,88.6756885" id="Fill-211" fill="#D3A784"></path>
                    <path d="M27.8043057,70.3155378 C30.7789906,70.5832856 32.9819512,89.847479 34.1411256,90.1519765 C35.3013586,90.456474 38.6327939,92.0272612 39.0784674,89.5639813 C39.119753,89.3319331 39.1726834,88.8006375 39.2340826,88.0393937 C39.5738953,89.6059809 39.7030453,91.2208678 38.5449296,92.2152097 C38.3109775,92.4168081 38.0569119,92.5774568 37.7912016,92.7181556 C34.8069892,93.3072008 33.4096283,91.5411152 32.1424761,89.1261348 C30.9790673,84.8474196 30.8732066,79.8326604 29.0926301,75.6389945 C27.8879356,72.7945676 23.8736989,72.1666727 22.1439355,74.7055521 C21.9787929,74.8599008 21.8147088,75.0184495 21.6569764,75.1853982 C23.2787619,71.393879 25.7262607,70.1265393 27.8043057,70.3155378" id="Fill-212" fill="#D3A784"></path>
                    <path d="M103.379299,70.7712341 L92.3200341,62.533001 C92.3200341,62.533001 95.5043232,56.9806462 101.990407,61.551259 C108.474373,66.1218719 103.379299,70.7712341 103.379299,70.7712341" id="Fill-217" fill="#8E5C3A"></path>
                    <path d="M57.6072609,65.2839787 L45.1580458,70.4593866 C45.1580458,70.4593866 42.6883163,65.2787287 48.0745073,62.3534525 C53.4628156,59.4281763 57.6072609,65.2839787 57.6072609,65.2839787" id="Fill-218" fill="#8E5C3A"></path>
                    <path d="M46.5839891,76.3792385 C46.6559743,79.9901591 49.6645346,82.8566358 53.3072004,82.7862864 C56.9466903,82.7148869 59.8388039,79.7297612 59.7668186,76.1188406 C59.6937748,72.5068699 56.6830973,69.6382933 53.0436073,69.7096927 C49.4041174,69.7810921 46.5120038,72.7672678 46.5839891,76.3792385" id="Fill-219" fill="#47413E"></path>
                    <path d="M53.4903394,75.2242479 C54.3552211,76.5986867 55.852091,77.2234316 56.8355366,76.6144365 C57.8179237,76.0085915 57.9142569,74.4021045 57.052551,73.0234657 C56.1876693,71.6490269 54.6929166,71.026382 53.7084123,71.6332771 C52.7260253,72.2412221 52.6265163,73.849809 53.4903394,75.2242479" id="Fill-220" fill="#FFFFFF"></path>
                    <path d="M85.9768626,74.9460001 C86.0488479,78.5569208 89.0574082,81.4244474 92.6990154,81.353048 C96.3385053,81.2816486 99.2316775,78.2965229 99.157575,74.6845522 C99.0866483,71.0736316 96.0759708,68.2050549 92.4364809,68.2764543 C88.7948737,68.3478538 85.9027602,71.3329795 85.9768626,74.9460001" id="Fill-221" fill="#47413E"></path>
                    <path d="M92.8832129,73.7910095 C93.7449188,75.1664983 95.2449645,75.7912432 96.226293,75.1811982 C97.20868,74.5764031 97.308189,72.9688662 96.4454246,71.5912774 C95.5794843,70.2147386 94.0826143,69.5931436 93.1012859,70.2010887 C92.1178403,70.8090338 92.016214,72.4165707 92.8832129,73.7910095" id="Fill-222" fill="#FFFFFF"></path>
                    <path d="M82.1891678,70.2661882 C82.1891678,70.2661882 86.1007196,91.8508627 80.4477597,96.1904774 C74.7905653,100.531142 66.7716194,99.9126971 62.6674011,94.7288893 C58.5610656,89.5461314 61.2615713,76.7498854 64.0446484,72.3651211 C66.8287841,67.9782568 77.8594662,62.6694999 82.1891678,70.2661882" id="Fill-223" fill="#D3A784"></path>
                    <path d="M81.2300701,69.0964977 C81.2300701,69.0964977 84.939428,89.5576813 79.5797022,93.6725978 C74.2178591,97.7854144 66.6160042,97.2005692 62.7245658,92.2866091 C58.8310103,87.3715991 61.3938972,75.2431477 64.0319452,71.0851815 C66.6699931,66.9282653 77.1269104,61.8956562 81.2300701,69.0964977" id="Fill-224" fill="#E3BC96"></path>
                    <path d="M100.123024,101.795332 C100.123024,101.795332 100.307222,98.8553557 98.7373081,98.0720621 C97.1673944,97.2866685 96.6423254,98.082562 95.8885974,98.3471598 C95.1369866,98.6138577 94.8691591,97.5985159 95.5000888,96.9443712 C96.1299598,96.2933765 98.0894408,94.8758881 100.205596,97.2037191 C102.323868,99.5305002 101.297019,101.646233 101.297019,101.646233 C101.297019,101.646233 100.526353,102.856873 100.123024,101.795332" id="Fill-225" fill="#D3A784"></path>
                    <path d="M27.4189729,85.8417615 C27.4189729,85.8417615 29.2196629,76.5178373 25.2848217,78.5138711 C22.8711984,79.7371112 23.0268135,82.7558366 24.2992588,84.4410729 C25.1006241,85.4973643 26.4185895,86.0538598 27.4189729,85.8417615" id="Fill-226" fill="#D3A784"></path>
                    <path d="M27.4189729,85.7262625 L27.7534926,83.3322819 C27.7534926,83.3322819 22.9929381,79.1995155 23.5180071,82.7274868 C24.043076,86.2544082 27.4189729,85.7262625 27.4189729,85.7262625" id="Fill-227" fill="#C4987A"></path>
                    <path d="M116.053997,81.3194483 C116.053997,81.3194483 115.934374,71.8275255 119.451066,74.4756039 C121.611682,76.0999407 120.925705,79.0430668 119.373788,80.4826051 C118.397752,81.3845478 116.999333,81.7016452 116.053997,81.3194483" id="Fill-228" fill="#D3A784"></path>
                    <path d="M116.075169,81.2049992 L116.167268,78.7910689 C116.167268,78.7910689 121.589452,75.5507952 120.447215,78.9317677 C119.30392,82.3137902 116.075169,81.2049992 116.075169,81.2049992" id="Fill-229" fill="#C4987A"></path>
                    <path d="M49.4835129,103.727316 L96.6550287,101.272436 C96.6550287,101.272436 93.8349004,115.330772 73.0692708,117.142007 C58.0603446,118.449246 49.4835129,103.727316 49.4835129,103.727316" id="Fill-230" fill="#5B1313"></path>
                    <path d="M85.916522,109.508569 C82.9248994,107.913632 79.5405337,107.298337 76.1519336,107.515685 C70.0723551,107.903132 65.488588,110.879858 61.3123845,114.791076 C64.6067686,116.468962 68.5447856,117.535754 73.0692708,117.142007 C80.5313896,116.491012 85.6666909,114.25768 89.1971443,111.665252 C88.1491236,110.871458 87.0735792,110.124914 85.916522,109.508569" id="Fill-231" fill="#7F2E2E"></path>
                    <path d="M76.5139771,111.053107 C79.6019329,110.841008 82.5670904,110.140664 85.5078998,109.310121 C82.6179035,107.871632 79.3902116,107.308837 76.1519336,107.515685 C72.0964112,107.773983 68.7088697,109.188322 65.6632581,111.258905 C69.2656968,111.049957 72.8808388,111.305104 76.5139771,111.053107" id="Fill-232" fill="#722828"></path>
                    <path d="M69.1810083,109.785767 C72.6066597,109.562119 76.0185491,109.201972 79.4431419,108.979373 C82.8455039,108.758875 86.3346717,108.510027 89.6100009,107.509385 C91.6785185,106.87834 92.8535719,105.939648 92.6143268,103.646467 C92.5370485,102.898873 92.3697887,102.196429 92.1675948,101.506584 L54.0429321,103.490018 C54.2864116,110.095514 63.4730008,110.158514 69.1810083,109.785767" id="Fill-233" fill="#FFFFFF"></path>
                    <path d="M61.8183985,194.438179 C59.3327899,196.435262 10.4812652,198.232848 8.09093122,195.49867 C5.6963628,192.762392 5.45288326,129.350258 6.70627362,126.543631 C7.95860538,123.739103 58.7219738,123.850402 60.4358581,125.485239 C62.1497424,127.121126 64.3029485,192.443195 61.8183985,194.438179" id="Fill-240" fill="#D19F62"></path>
                    <path d="M18.9077748,146.581668 C17.4850073,145.827774 15.9913132,145.520126 14.3854068,145.410927 C11.5832748,145.216679 8.78114281,145.00983 5.97795219,144.798782 C5.92078743,153.71006 6.01817925,164.473522 6.28812396,173.799546 C8.28571486,173.784846 10.2875402,173.687197 12.2258491,173.2882 C14.8501352,172.747455 19.3153384,171.587214 20.5644943,168.889786 C22.0634814,165.653713 18.7987383,165.261016 18.7341633,162.742086 C18.6769985,160.486705 21.0705083,158.832968 20.2088024,156.455787 C19.4953015,154.492303 18.885544,153.294263 19.7324294,151.24678 C20.4364029,149.547894 21.1985997,147.796508 18.9077748,146.581668" id="Fill-241" fill="#BC8E5C"></path>
                    <path d="M24.4834564,134.189668 C29.2164871,135.132561 34.1781768,134.444816 38.960962,134.585515 C42.3612068,134.685264 47.9665295,135.504258 48.5635836,130.956745 C48.8494075,128.783262 48.621807,126.62448 48.3867963,124.463597 C39.8459572,124.233649 28.417239,124.291399 19.6805577,124.713495 C19.5831659,128.678263 20.2966668,133.352825 24.4834564,134.189668" id="Fill-242" fill="#BC8E5C"></path>
                    <path d="M57.6263158,188.225379 C55.5186299,189.964165 14.0868797,191.505552 12.0575306,189.125222 C10.0281815,186.741741 9.79317084,131.50064 10.8538948,129.05521 C11.9156773,126.61083 54.969213,126.729479 56.42268,128.156417 C57.876147,129.580206 59.7329432,186.487643 57.6263158,188.225379" id="Fill-243" fill="#BC8E5C"></path>
                    <path d="M56.5052513,187.788583 C54.503426,189.497969 15.1020836,190.990007 13.1701263,188.643276 C11.2371104,186.295495 10.9766932,131.899637 11.9844868,129.493057 C12.9891046,127.088576 53.9370714,127.234525 55.3185532,128.639414 C56.7021522,130.042202 58.5091939,186.077097 56.5052513,187.788583" id="Fill-244" fill="#FFFFFF"></path>
                    <path d="M18.9077748,146.581668 C17.4850073,145.827774 15.9913132,145.520126 14.3854068,145.410927 C13.3945509,145.341628 12.4047536,145.263928 11.4149563,145.192529 C11.3726121,153.917958 11.4943519,164.70452 11.7992306,173.36275 C11.9410839,173.33545 12.0839958,173.31655 12.2258491,173.2882 C14.8501352,172.747455 19.3153384,171.587214 20.5644943,168.889786 C22.0634814,165.653713 18.7987383,165.261016 18.7341633,162.742086 C18.6769985,160.486705 21.0705083,158.832968 20.2088024,156.455787 C19.4953015,154.492303 18.885544,153.294263 19.7324294,151.24678 C20.4364029,149.547894 21.1985997,147.796508 18.9077748,146.581668" id="Fill-245" fill="#E0E0E0"></path>
                    <path d="M24.4834564,134.189668 C29.2164871,135.132561 34.1781768,134.444816 38.960962,134.585515 C42.3612068,134.685264 47.9665295,135.504258 48.5635836,130.956745 C48.6990853,129.923553 48.7117886,128.894561 48.6694443,127.86662 C40.8992709,127.507523 28.0901295,127.525373 19.8435831,128.086068 C20.2490295,130.978795 21.4611342,133.584873 24.4834564,134.189668" id="Fill-246" fill="#E0E0E0"></path>
                    <polyline id="Fill-247" fill="#D3D3D3" points="20.899014 142.480401 16.2877231 142.5707 16.201976 138.345535 20.8164427 138.253135 20.899014 142.480401"></polyline>
                    <polyline id="Fill-248" fill="#D3D3D3" points="48.8515247 141.929155 28.099657 142.336552 28.0160271 138.112437 48.7668361 137.70399 48.8515247 141.929155"></polyline>
                    <polyline id="Fill-249" fill="#D3D3D3" points="21.3139879 155.879342 16.6995211 155.970691 16.6158912 151.743426 21.2282407 151.652076 21.3139879 155.879342"></polyline>
                    <polyline id="Fill-250" fill="#D3D3D3" points="49.2654399 155.329147 28.5146308 155.737593 28.4288837 151.509278 49.1796928 151.101881 49.2654399 155.329147"></polyline>
                    <polyline id="Fill-251" fill="#D3D3D3" points="21.582874 169.281433 16.9694659 169.372782 16.8847773 165.145517 21.499244 165.056267 21.582874 169.281433"></polyline>
                    <polyline id="Fill-252" fill="#D3D3D3" points="49.534326 168.731238 28.7824583 169.138634 28.6967112 164.914519 49.4496375 164.503972 49.534326 168.731238"></polyline>
                    <polyline id="Fill-253" fill="#D3D3D3" points="21.8517601 182.683524 17.238352 182.774873 17.1526048 178.547608 21.7670715 178.458358 21.8517601 182.683524"></polyline>
                    <polyline id="Fill-254" fill="#D3D3D3" points="49.8021535 182.133329 29.0502858 182.540725 28.9666559 178.31661 49.717465 177.906063 49.8021535 182.133329"></polyline>
                    <path d="M21.7310789,136.4839 L18.2165046,140.695416 L16.70799,138.735081 L16.2379686,140.10322 L18.1064095,142.533951 L22.024313,138.067287 C21.930097,137.538091 21.8263535,137.010995 21.7310789,136.4839" id="Fill-255" fill="#3A773A"></path>
                    <path d="M22.14817,150.112789 L18.6335956,154.324305 L17.1271983,152.362921 L16.6561183,153.73211 L18.5235005,156.16284 L22.4403454,151.695126 C22.3503638,151.16698 22.2434446,150.639885 22.14817,150.112789" id="Fill-256" fill="#3A773A"></path>
                    <path d="M22.4138803,163.284932 L18.8982473,167.498548 L17.3907913,165.537164 L16.9186527,166.903202 L18.7892108,169.336033 L22.7060557,164.868319 C22.6128983,164.340173 22.5091549,163.813078 22.4138803,163.284932" id="Fill-257" fill="#3A773A"></path>
                    <path d="M22.8595537,176.491724 L19.3439207,180.70324 L17.8354062,178.741856 L17.3643262,180.111045 L19.2338256,182.540725 L23.1517291,178.075112 C23.0585717,177.545916 22.9548283,177.01882 22.8595537,176.491724" id="Fill-258" fill="#3A773A"></path>
                    <path d="M3.94013424,160.699853 C3.94013424,160.699853 -0.0179963144,163.262882 0.362043501,167.322149 C0.743141923,171.382466 4.59223599,171.190318 8.12692385,171.148318 C11.6584359,171.106318 18.1064095,169.488281 17.5792233,165.425864 C17.0530958,161.364497 12.958405,160.788052 12.958405,160.788052 L3.94013424,160.699853" id="Fill-259" fill="#E3BC96"></path>
                    <path d="M8.12692385,171.148318 C11.168301,171.113668 16.3681772,169.901978 17.4140807,166.969352 C15.047036,167.903844 12.5455483,168.578989 10.137218,169.005285 C7.35308233,169.496681 4.42709334,169.594331 2.82012832,166.909502 C1.51592483,164.73497 4.73091347,163.424581 6.30612028,163.301732 C8.16185787,163.156833 10.0186541,163.873977 11.8722745,163.614629 C13.3786718,163.403581 14.8130839,162.985684 16.2379686,162.515288 C14.8596626,161.05895 12.958405,160.788052 12.958405,160.788052 L3.94013424,160.699853 C3.94013424,160.699853 -0.0179963144,163.262882 0.362043501,167.322149 C0.743141923,171.382466 4.59223599,171.190318 8.12692385,171.148318" id="Fill-260" fill="#D3A784"></path>
                    <path d="M3.43623744,154.418804 C3.43623744,154.418804 0.257241435,154.771601 0.448849253,158.904367 C0.63728125,163.038184 3.54527393,162.22654 5.31208856,162.24334 C7.07890319,162.26119 13.4421882,162.935285 16.0453022,161.200699 C18.6515919,159.465063 18.944826,155.873042 16.2729026,154.544803 C13.6030965,153.217614 3.43623744,154.418804 3.43623744,154.418804" id="Fill-261" fill="#E3BC96"></path>
                    <path d="M5.31208856,162.24334 C7.07890319,162.26119 13.4421882,162.935285 16.0453022,161.200699 C16.5439059,160.868901 16.955704,160.470955 17.2806962,160.032058 C15.4757718,160.708253 13.5872174,161.167099 11.669022,161.349798 C9.90220733,161.518846 5.07496065,161.996592 3.81310143,160.265156 C2.47713974,158.430821 4.50543023,157.786127 6.06687516,157.681127 C8.60223827,157.506829 11.3016854,157.275831 13.687785,156.331888 C14.8067323,155.890892 15.8727493,155.385846 16.9842863,155.016249 C16.7746822,154.84195 16.5439059,154.678152 16.2729026,154.544803 C13.6030965,153.217614 3.43623744,154.418804 3.43623744,154.418804 C3.43623744,154.418804 0.257241435,154.771601 0.448849253,158.904367 C0.63728125,163.038184 3.54527393,162.22654 5.31208856,162.24334" id="Fill-262" fill="#D3A784"></path>
                    <path d="M2.04416959,148.590301 C2.04416959,148.590301 -0.513424263,151.931374 0.97074237,154.93015 C2.4538504,157.929975 7.19746714,156.751885 10.1065184,156.015841 C13.0155697,155.279797 16.043185,155.154848 17.1282569,153.942108 C18.2122701,152.727268 18.4991526,149.286446 17.17907,148.73835 C15.8621632,148.188155 8.49320178,146.968065 2.04416959,148.590301" id="Fill-263" fill="#E3BC96"></path>
                    <path d="M10.1065184,156.015841 C13.0155697,155.279797 16.043185,155.154848 17.1282569,153.942108 C17.4151393,153.61976 17.6437983,153.142014 17.8047066,152.603369 C16.8000888,152.824917 15.8060571,153.166164 15.0449188,153.367762 C12.8546615,153.942108 10.5998292,154.967949 8.31429724,155.118098 C5.59791238,155.297647 2.37127907,154.242405 2.30564545,151.082981 C2.24636348,148.233304 7.68760206,147.825908 9.51581588,147.807008 C12.2501971,147.777608 15.0375086,148.112555 17.6014541,149.070147 C17.4850073,148.919999 17.3452712,148.8066 17.17907,148.73835 C15.8621632,148.188155 8.49320178,146.968065 2.04416959,148.590301 C2.04416959,148.590301 -0.513424263,151.931374 0.97074237,154.93015 C2.4538504,157.929975 7.19746714,156.751885 10.1065184,156.015841" id="Fill-264" fill="#D3A784"></path>
                    <path d="M44.7091966,131.601439 C43.2440848,132.556932 24.0314313,133.113427 22.7960373,132.032986 C21.5606432,130.953595 21.3838559,124.470947 22.6224258,123.382106 C23.8620543,122.293265 43.394407,121.973018 44.535585,122.95056 C45.6778217,123.927052 46.1743083,130.643847 44.7091966,131.601439" id="Fill-265" fill="#353331"></path>
                    <path d="M104.454843,159.218315 C105.075187,156.699385 105.24774,154.178356 105.114355,151.624777 C103.89484,148.682701 101.921597,142.749199 104.05469,139.244327 C106.974327,134.444816 108.761255,133.801172 105.442523,132.71758 C102.122732,131.628739 94.3303283,134.097269 95.7488613,144.550984 C95.7488613,144.550984 84.7520546,143.486293 82.6221379,148.041156 C80.4964556,152.588669 82.9365441,153.770959 82.9365441,153.770959 C82.9365441,153.770959 79.7289657,154.645602 79.6633321,159.056616 C79.5976985,163.46868 82.672951,163.938027 82.672951,163.938027 C82.672951,163.938027 80.8383856,164.629971 79.9978518,166.891653 C79.4420833,168.38054 79.1869591,171.786713 80.6806532,173.3239 C82.1690542,174.865288 91.2773065,176.458125 98.8675168,174.205893 C100.263819,173.774347 101.257851,172.413558 101.257851,172.413558 L104.447433,159.357964 C104.441081,159.318064 104.44214,159.269764 104.454843,159.218315" id="Fill-266" fill="#E3BC96"></path>
                    <path d="M104.454843,159.218315 C105.075187,156.699385 105.24774,154.178356 105.114355,151.624777 C103.89484,148.682701 101.921597,142.749199 104.05469,139.244327 C106.608049,135.047511 108.29441,134.03007 106.458786,133.115527 C105.462637,134.064719 104.37333,134.925712 103.544441,136.042903 C101.940652,138.201686 100.843936,140.776265 100.379207,143.427493 C99.9240063,146.016772 99.9176546,148.69215 100.679851,151.22893 C101.184807,152.926766 102.012637,154.558453 101.830557,156.373888 C101.607191,158.61667 101.021781,160.839502 100.452251,163.016134 C99.9388268,164.977518 99.5227943,167.20665 98.5880446,169.012635 C97.1832735,171.725813 94.8712764,173.629448 92.3697887,175.275834 C94.5198189,175.162435 96.7513619,174.833788 98.8675168,174.205893 C100.263819,173.774347 101.257851,172.413558 101.257851,172.413558 L104.447433,159.357964 C104.441081,159.318064 104.44214,159.269764 104.454843,159.218315" id="Fill-267" fill="#D3A784"></path>
                    <path d="M94.5441669,152.272621 C94.3102148,152.44272 94.0561492,152.585519 93.7925561,152.713618 C93.6612889,152.894216 93.4845015,153.050665 93.2325531,153.185064 C91.2794237,154.237155 89.1431554,154.118506 87.160385,153.391912 C85.1479736,153.418162 82.9693609,152.369221 82.4644055,150.480286 C82.3913616,150.436186 82.3214936,150.388937 82.2431567,150.350087 C82.1870505,150.317537 82.137296,150.280788 82.0843657,150.247188 C81.9954427,150.379487 81.8938165,150.501286 81.8048935,150.635685 C81.4820185,153.058015 82.9365441,153.770959 82.9365441,153.770959 C82.9365441,153.770959 80.8002757,154.355804 79.9819727,156.970283 C81.4312053,155.921342 83.0942765,155.353296 84.8409776,155.210497 C86.3134996,154.9207 87.8527138,154.87555 89.2458402,154.95115 C91.6086504,155.088698 93.3193589,156.039991 94.177889,157.845976 C94.6373243,155.948641 94.907269,153.966258 94.5441669,152.272621" id="Fill-268" fill="#D3A784"></path>
                    <path d="M98.9162127,167.743196 C96.0071614,169.834779 89.5687153,172.899704 86.1377709,172.16996 C84.1232422,172.328508 81.4502603,171.902212 79.9745625,170.412274 C79.8496469,170.412274 79.7247313,170.409124 79.5976985,170.381824 C79.6887387,171.512665 79.9936174,172.617256 80.6806532,173.3239 C81.5084836,174.180693 86.5834443,176.411925 96.5121168,174.776038 C96.6148016,174.150243 98.3593855,169.813779 98.6007479,169.226834 C98.0248658,169.298233 99.9335337,167.535297 98.9162127,167.743196" id="Fill-269" fill="#D3A784"></path>
                    <path d="M92.2279354,163.336381 C91.1407462,163.746928 90.1075461,163.851927 89.0616426,163.752178 C87.9342265,163.949576 86.7157701,163.864527 85.6455187,163.47498 C84.4365898,163.355281 83.2848257,162.994084 82.3013801,162.29899 C81.8281829,162.124691 81.3761578,161.898943 80.9569495,161.587096 C80.659481,161.569246 80.3588367,161.553496 80.053958,161.534596 C80.8680266,163.652429 82.672951,163.938027 82.672951,163.938027 C82.672951,163.938027 81.6291648,164.332823 80.7568729,165.503564 C83.9739787,163.628279 88.8890897,164.269824 91.1894422,167.14785 C91.6202951,165.885761 92.0553825,164.624721 92.4777665,163.357381 C92.3962538,163.355281 92.3083895,163.345831 92.2279354,163.336381" id="Fill-270" fill="#D3A784"></path>
                </g>
            </g>
        </g>
    </g>
</svg>