<?xml version="1.0" encoding="UTF-8" standalone="no"?>
<svg width="278px" height="264px" viewBox="0 0 278 264" version="1.1" xmlns="http://www.w3.org/2000/svg" xmlns:xlink="http://www.w3.org/1999/xlink">
    <!-- Generator: Sketch 3.7.2 (28276) - http://www.bohemiancoding.com/sketch -->
    <title>sr-showing-gluten</title>
    <desc>Created with Sketch.</desc>
    <defs>
        <polygon id="path-1" points="0.126965247 208.114002 0.126965247 0.533253375 103.819482 0.533253375 207.511999 0.533253375 207.511999 208.114002 103.819482 208.114002"></polygon>
        <polygon id="path-3" points="0.0330508298 54.2481196 0.0330508298 0.139000705 27.0256635 0.139000705 54.0182762 0.139000705 54.0182762 54.2481196 27.0256635 54.2481196"></polygon>
    </defs>
    <g id="Super-Gluten-tablet" stroke="none" stroke-width="1" fill="none" fill-rule="evenodd">
        <g id="iPad-Landscape-Copy-3" transform="translate(-347.000000, -174.000000)">
            <g id="sr-showing-gluten" transform="translate(347.000000, 174.000000)">
                <g id="glutenfree" opacity="0.2" transform="translate(0.000000, 14.829495)">
                    <g id="Group-3">
                        <mask id="mask-2" fill="white">
                            <use xlink:href="#path-1"></use>
                        </mask>
                        <g id="Clip-2"></g>
                        <path d="M103.756,6.95497908 C50.0856738,6.95497908 6.41809323,50.6515089 6.41809323,104.364915 C6.41809323,158.03174 50.0856738,201.692276 103.756,201.692276 C157.428442,201.692276 201.093906,158.03174 201.093906,104.364915 C201.093906,50.6515089 157.428442,6.95497908 103.756,6.95497908 L103.756,6.95497908 Z M103.756,208.114002 C46.5454595,208.114002 0,161.573958 0,104.364915 C0,47.1114082 46.5454595,0.533253375 103.756,0.533253375 C160.96654,0.533253375 207.511999,47.1114082 207.511999,104.364915 C207.511999,161.573958 160.96654,208.114002 103.756,208.114002 L103.756,208.114002 Z" id="Fill-1" fill="#FFFFFF" mask="url(#mask-2)"></path>
                    </g>
                    <path d="M145.550112,78.3883474 C146.999518,77.7011224 155.934562,72.5555492 155.934562,71.4490978 C155.934562,71.0011573 155.903011,68.8782255 155.934562,66.812722 C155.934562,65.82687 158.553353,62.8061429 159.353977,61.5197496 C160.09347,60.3520414 156.18106,60.9665239 154.57784,61.849005 C146.875283,66.2594963 145.088668,67.6205464 145.088668,68.4283707 C145.088668,69.1615383 144.964434,73.8419425 144.964434,75.4135629 C144.871751,77.580523 144.810619,78.7922596 145.550112,78.3883474 M129.435086,89.4260613 C130.821388,88.6488653 139.726853,83.2793219 139.726853,82.0675854 C139.726853,81.3650462 139.819536,75.1283358 139.819536,73.5433155 C139.819536,72.0023235 140.004902,70.193333 138.401682,71.1944992 C130.730677,76.0414453 128.94209,77.580523 128.94209,78.3883474 C128.94209,79.2421144 128.819828,84.4164017 128.788276,86.1507355 C128.758696,88.5435802 128.634461,89.8299735 129.435086,89.4260613 M170.631735,64.6457619 C169.677296,66.2594963 169.028514,65.5722713 166.656221,65.9302409 C164.838055,66.2594963 163.637119,66.8873788 162.990309,67.4425187 C161.757821,68.4283707 158.492221,71.2251276 156.703635,72.8407763 C154.270211,75.0096507 154.394445,75.7868467 155.626933,75.7868467 C158.060358,75.7868467 164.715792,76.0414453 165.455285,75.4135629 C166.656221,74.3511399 171.339676,69.2055667 173.74352,65.9015268 C175.00756,64.0925362 171.864222,62.5209158 170.631735,64.6457619 M139.819536,87.1825301 C142.962873,87.3911862 153.93103,87.6917275 154.763206,87.063845 C156.088377,86.1507355 161.572455,81.9929286 163.915168,79.8240542 C165.240339,78.6123176 164.530426,78.7922596 154.91702,78.3883474 C152.544727,78.2849765 149.833254,78.2849765 149.125313,78.7922596 C147.739011,79.6460265 142.284512,83.2486935 140.344083,84.7150287 C137.662189,86.7039612 137.725293,87.063845 139.819536,87.1825301 M127.680023,97.3511628 C130.791808,97.6957325 140.744395,98.4595285 141.576571,97.9503311 C143.024005,97.0984784 148.4154,93.9418378 150.943479,91.9988479 C152.329782,90.8923965 151.92947,90.666512 142.531009,89.68066 C140.188296,89.4566897 137.169194,89.2767478 136.400121,89.68066 C134.921136,90.4884843 130.452628,93.3598979 128.387964,94.6750054 C125.583807,96.470596 125.67649,97.0984784 127.680023,97.3511628 M117.202889,101.330942 C118.405798,100.402518 121.456452,98.2795866 122.965017,97.0984784 C124.505134,95.9307702 126.108354,93.9418378 126.108354,93.0593566 C126.108354,92.2515323 126.169486,84.8643422 126.169486,83.0553516 C126.169486,81.2310469 126.262169,80.1533096 125.33731,80.7524779 C123.211515,82.1728705 116.709894,88.4689234 116.709894,89.4566897 C116.709894,90.4138276 116.709894,95.7814567 116.648763,97.8316461 C116.648763,100.626489 116.524528,101.809511 117.202889,101.330942 M165.6091,148.783923 C163.144124,149.681719 156.581372,154.64735 150.265118,154.796663 C145.457429,154.825378 138.865097,153.240357 132.45616,142.922411 C130.267261,139.333144 121.856764,125.513987 112.489855,110.408438 C112.489855,109.824584 112.519435,109.631242 114.183787,109.631242 C116.341134,109.631242 116.494948,109.420671 119.452919,109.22733 C122.349759,109.047388 124.783183,108.823417 128.326832,106.803856 C131.900062,104.784296 135.351028,102.841306 135.536394,101.987539 C135.72176,101.181629 136.275887,100.597774 134.272354,100.597774 C132.300374,100.597774 123.982559,100.597774 123.797193,100.70306 C122.318207,101.405599 116.001953,104.709639 115.201329,105.846719 C114.337601,106.95317 112.704801,107.866279 112.704801,107.282425 C112.704801,107.282425 112.612118,107.760994 112.426752,103.901814 C112.211806,100.044549 112.365621,99.5200373 112.951299,99.0127542 C113.566557,98.5341852 113.322031,96.5452528 113.322031,95.2588595 C113.322031,93.8978094 113.505426,92.2075039 112.057992,93.3139553 C110.608586,94.3763783 108.390108,96.8438798 107.713718,97.7703892 C107.281854,98.3848717 105.988235,98.1302731 104.663064,98.0556163 C92.9849943,79.9446536 82.3244666,66.5600376 70.6759766,63.9566226 C66.0240741,62.8501712 56.7814006,62.4022307 44.578784,70.7925013 C40.388325,73.692629 38.3867646,75.2029926 38.2309781,76.219473 C38.0475839,77.2225535 38.7870767,77.9557211 40.2029588,77.1478967 C41.5596815,76.296044 50.8339068,69.5807647 61.2479369,71.9582952 C71.6935187,74.3511399 75.1760366,79.6460265 79.0884463,84.3111165 C80.7823777,86.300049 89.441345,98.0996447 98.7767016,112.353342 C98.9324881,113.519136 99.455063,114.208275 97.1439016,115.973237 C94.5251112,118.006198 62.4508451,140.588909 45.7185888,162.304453 C43.1924815,165.564464 46.211584,168.345907 48.3373792,166.431631 C51.1415358,163.830131 53.6065116,159.253097 55.302415,157.637449 C56.9647948,156.0218 62.5731079,147.826785 69.6604065,143.75895 C76.7772849,139.721742 78.3489535,139.392487 78.4731883,141.636018 C78.5954511,143.818292 72.6183776,152.612475 71.354338,166.9102 C71.0782607,170.260183 71.7862017,171.755232 72.2791969,171.186692 C72.8037438,170.679409 75.2982994,166.789601 76.5307873,165.353894 C77.7948269,163.948816 81.8926028,160.390177 81.9852859,159.343068 C82.077969,158.355302 87.4082329,144.118833 88.6722725,141.605389 C89.9027885,139.063231 90.766516,134.756111 93.4779895,131.915326 C94.4028484,130.958188 95.3888388,129.342539 92.8607595,129.043912 C90.3662039,128.743371 85.960799,133.619031 82.9397246,132.811207 C81.5849739,132.483865 85.7754329,127.996803 88.0865942,126.051899 C90.3662039,124.196966 91.5375605,123.329799 94.4639798,121.716064 C97.3608195,120.100416 100.472605,118.574738 101.766224,118.75468 C102.136957,118.75468 102.505717,118.844651 102.906029,118.814022 C113.322031,135.383993 121.825212,150.878141 125.67649,154.64735 C129.928081,158.774528 132.886052,162.783022 142.284512,161.525343 C149.001078,160.568205 150.880376,159.940322 166.070543,151.35671 C168.8747,149.741061 168.105627,147.916756 165.6091,148.783923" id="Fill-4" fill="#FFFFFF"></path>
                </g>
                <path d="M251.357977,132.611281 C251.357977,132.611281 254.179881,153.661024 257.564489,155.835258 C260.949096,158.008869 267.115238,157.436375 267.000958,152.516969 C266.886989,147.597874 261.698437,128.607244 261.698437,128.607244 L251.357977,132.611281" id="Fill-496" fill="#E3BC96"></path>
                <path d="M261.576083,145.763092 C259.832073,145.991779 258.150483,146.497379 256.39312,146.64548 C256.129469,146.666949 255.957118,146.418349 255.936933,146.187485 C255.688809,143.36235 254.570854,139.164474 255.846875,136.498953 C256.44436,135.250667 259.41812,135.097898 260.431732,134.403126 C261.233554,133.853967 261.995626,133.24227 262.776331,132.666353 C262.144687,130.240719 261.698437,128.607244 261.698437,128.607244 L251.357977,132.611281 C251.357977,132.611281 254.179881,153.661024 257.564489,155.835258 C260.949096,158.008869 267.115238,157.436375 267.000958,152.516969 C266.972388,151.291085 266.628306,149.190591 266.128643,146.727621 C264.734615,145.978711 263.185006,145.552141 261.576083,145.763092" id="Fill-497" fill="#D3A784"></path>
                <path d="M201.469559,131.316635 C201.469559,131.316635 196.785018,144.750649 197.130342,149.621206 C197.475976,154.490519 209.576594,147.562093 209.576594,147.562093 L210.375621,131.888818 L201.469559,131.316635" id="Fill-498" fill="#E3BC96"></path>
                <path d="M201.469559,131.316635 C201.469559,131.316635 200.988528,132.696222 200.347878,134.727021 C202.268276,135.108476 204.742371,135.57425 206.011871,137.183457 C207.273607,138.783952 205.59357,140.537215 204.2042,141.275235 C202.376655,142.247853 200.213413,142.778655 198.743923,144.3163 C198.309163,144.771184 197.894899,145.236336 197.476908,145.695887 C197.204562,147.23851 197.059228,148.615296 197.130342,149.621206 C197.475976,154.490519 209.576594,147.562093 209.576594,147.562093 L210.375621,131.888818 L201.469559,131.316635" id="Fill-499" fill="#D3A784"></path>
                <path d="M208.244675,164.226344 C208.244675,164.226344 206.417751,178.031234 211.213466,182.836141 C216.009181,187.641048 221.870679,188.327108 221.870679,188.327108 L223.088629,239.885817 L224.382662,244.461415 L226.894644,244.461415 L228.493319,239.885817 C228.493319,239.885817 225.970157,188.861332 227.416356,188.632956 C228.862865,188.40427 232.66888,188.174028 232.66888,189.165936 C232.66888,190.157534 231.766752,228.827654 232.908308,240.648727 L234.278424,242.783135 L237.323298,242.70784 L238.84589,240.571565 L238.808004,188.518458 C238.808004,188.518458 253.385822,188.175583 253.614071,176.353577 C253.84232,164.531259 253.614071,162.853913 253.614071,162.853913 L208.244675,164.226344" id="Fill-500" fill="#6184A3"></path>
                <path d="M214.221696,175.474611 C215.979058,175.377536 218.27925,175.861045 219.945002,175.188986 C223.254459,173.852026 221.507344,169.141394 225.854946,169.660683 C228.596109,169.988001 231.2733,170.338653 234.043032,170.285138 C235.890142,170.249668 237.55341,170.000135 239.262328,169.290118 C239.952665,169.004182 240.652318,168.662552 241.400727,168.562677 C244.350575,168.169709 247.31036,168.987691 250.249028,169.15415 C251.426296,169.220112 252.575926,169.19771 253.711582,169.098456 C253.740152,163.782661 253.614071,162.853913 253.614071,162.853913 L208.244675,164.226344 C208.244675,164.226344 207.449996,170.2366 208.286909,175.705476 C210.26662,175.655383 212.246021,175.583199 214.221696,175.474611" id="Fill-501" fill="#466D89"></path>
                <path d="M234.902305,168.206734 C241.240176,167.993294 247.52246,167.857949 253.714066,166.912088 C253.703197,163.513215 253.614071,162.853913 253.614071,162.853913 L208.244675,164.226344 C208.244675,164.226344 208.128221,165.108732 208.031332,166.503564 C217.014719,166.852661 225.853704,168.512583 234.902305,168.206734" id="Fill-502" fill="#466D89"></path>
                <path d="M236.848167,236.911335 C235.428054,235.831686 235.477741,233.523974 235.434575,231.925346 C235.347313,228.705999 235.083972,225.499409 234.983046,222.279751 C234.73399,214.336704 234.39612,206.09372 235.039565,198.165608 C235.244834,195.641966 235.393273,192.16313 236.902823,190.018144 C237.412734,189.294436 238.072327,189.000099 238.808004,188.86351 L238.808004,188.518458 C238.808004,188.518458 243.449689,188.404892 247.534572,186.182121 C244.105246,186.972412 240.551702,187.309686 236.915865,187.110246 C230.952819,186.784484 224.697552,186.61647 218.864934,185.231905 C215.303006,184.387165 212.475202,182.687417 209.696774,180.623948 C210.108554,181.473667 210.606665,182.227866 211.213466,182.836141 C216.009181,187.641048 221.870679,188.327108 221.870679,188.327108 L221.871301,188.371911 C222.782744,188.344842 223.617173,188.634823 224.079572,189.661579 C225.441303,192.685531 225.00499,196.211349 224.98822,199.438786 C224.966793,203.659375 224.534207,207.872186 224.596005,212.089042 C224.659666,216.470179 225.063372,220.826425 225.355282,225.195738 C225.497511,227.315523 225.46863,229.477 225.836934,231.571893 C226.041893,232.734928 226.358025,234.027707 226.192817,235.212832 C225.950593,236.961118 224.681404,237.88862 223.047637,238.149665 L223.088629,239.885817 L224.382662,244.461415 L226.894644,244.461415 L228.493319,239.885817 C228.493319,239.885817 225.970157,188.861332 227.416356,188.632956 C228.862865,188.40427 232.66888,188.174028 232.66888,189.165936 C232.66888,190.157534 231.766752,228.827654 232.908308,240.648727 L234.278424,242.783135 L237.323298,242.70784 L238.84589,240.571565 L238.843716,237.769455 C238.154621,237.654333 237.482917,237.3936 236.848167,236.911335" id="Fill-503" fill="#466D89"></path>
                <path d="M205.419044,115.496814 C205.419044,115.496814 201.583528,118.274967 198.386488,132.232004 L209.804843,137.210526 C209.804843,137.210526 213.022379,120.042543 205.419044,115.496814" id="Fill-504" fill="#365370"></path>
                <path d="M205.419044,115.496814 C205.419044,115.496814 204.667841,116.043484 203.554544,117.857108 C205.649157,119.974715 206.334525,123.518579 206.681712,126.345892 C207.073928,129.536925 206.900334,132.659197 206.482654,135.761555 L209.804843,137.210526 C209.804843,137.210526 213.022379,120.042543 205.419044,115.496814" id="Fill-505" fill="#2E4B63"></path>
                <path d="M263.452073,130.705871 L252.034029,135.68346 C252.034029,135.68346 248.816182,118.51641 256.419517,113.971615 C256.419517,113.971615 260.255343,116.748834 263.452073,130.705871 Z" id="Fill-506" fill="#365370"></path>
                <path d="M256.419517,113.971615 C256.419517,113.971615 257.171031,114.517351 258.284017,116.330042 C256.189715,118.449204 255.504346,121.993068 255.157159,124.819137 C254.764944,128.009859 254.938537,131.133064 255.355907,134.236045 L252.034029,135.68346 C252.034029,135.68346 248.816182,118.51641 256.419517,113.971615" id="Fill-507" fill="#1E3349"></path>
                <path d="M223.927406,107.585192 C223.927406,107.585192 214.906753,106.870508 206.987597,113.843737 C206.241362,114.501794 204.433692,116.565263 204.433692,116.565263 C204.433692,116.565263 205.34793,117.709007 205.694496,118.274967 C209.062645,123.766556 208.206478,128.914649 208.891225,139.211145 C209.821923,153.193072 207.52111,165.180293 207.52111,165.180293 C207.52111,165.180293 220.42417,169.756514 254.565265,165.180293 C254.843822,158.618389 253.437994,138.763728 253.272474,134.746934 C252.663499,119.951068 253.861264,118.428669 254.821152,116.938006 C255.958981,115.171053 256.863904,114.394452 256.863904,114.394452 C256.863904,114.394452 251.357977,108.243561 240.560087,107.779343 C237.863953,107.66391 234.026263,107.660488 231.569868,108.61786 C230.894437,108.880461 228.047069,110.512692 227.379401,110.248224 L223.927406,107.585192 L224.975569,113.9314" id="Fill-508" fill="#FFFFFF"></path>
                <path d="M224.975569,115.347142 C225.944308,117.241849 227.805451,121.010108 229.220392,115.347142 C229.757458,113.197663 232.050273,112.515659 233.465214,115.347142 C234.167778,116.753065 234.849999,118.425494 236.295095,116.762883 C237.760376,115.07705 237.710036,112.515659 240.489904,109.914684 C241.514619,108.955913 245.681872,109.707466 248.221493,109.768138 C248.704387,109.779028 249.253738,109.801741 249.8329,109.81232 C247.374331,108.783074 244.29064,107.939268 240.560087,107.779343 C237.863953,107.66391 234.026263,107.660488 231.569868,108.61786 C230.894437,108.880461 228.047069,110.512692 227.379401,110.248224 L223.927406,107.585192 C223.927406,107.585192 220.209896,107.303923 215.459209,108.934288 C217.852564,109.061854 222.145688,109.81232 224.975569,115.347142 Z" id="Fill-509" fill="#DDDDDD"></path>
                <path d="M228.142767,106.06273 C228.142767,106.06273 225.033934,106.202239 224.111726,108.2232 C223.189835,110.24448 222.82821,114.798571 227.996016,118.178625 C227.996016,118.178625 228.893076,112.109052 230.638492,111.041398 C230.638492,111.041398 234.462936,113.805449 234.842388,117.968725 C234.842388,117.968725 240.398877,113.144854 237.0618,107.016038 C233.724087,100.887859 228.142767,106.06273 228.142767,106.06273" id="Fill-511" fill="#365370"></path>
                <path d="M253.108197,128.070842 C252.710702,129.081107 252.394259,130.147067 252.186816,131.275254 C251.329407,135.942949 251.874099,140.557751 251.779694,145.247225 C251.749571,146.739755 251.701127,150.601602 249.226099,149.784242 C247.524634,149.222016 246.795169,147.372921 246.065082,145.941064 C244.641243,143.152332 240.041791,142.515743 237.277337,141.652646 C235.376193,141.058061 233.730937,140.886624 231.889417,141.811949 C230.832329,142.343373 229.710647,143.105039 228.5399,143.368573 C227.056437,143.700869 225.151566,143.635218 224.146649,142.287057 C222.998882,140.747856 223.08335,138.717991 223.311909,136.897521 C223.617484,134.466909 223.932374,132.115327 223.853496,129.652668 C223.753812,126.531019 223.682698,121.876703 221.294933,119.481872 C219.571419,117.754122 217.01534,117.436761 214.678194,117.358354 C212.636684,117.288348 210.033092,117.872665 208.569813,116.002725 C208.003694,115.281195 207.579492,114.483748 207.205909,113.659232 C207.133242,113.722082 207.059954,113.779954 206.987597,113.843737 C206.241362,114.501794 204.433692,116.565263 204.433692,116.565263 C204.433692,116.565263 205.34793,117.709007 205.694496,118.274967 C209.062645,123.766556 208.206478,128.914649 208.891225,139.211145 C209.821923,153.193072 207.52111,165.180293 207.52111,165.180293 C207.52111,165.180293 220.42417,169.756514 254.565265,165.180293 C254.843822,158.618389 253.437994,138.763728 253.272474,134.746934 C253.164405,132.127461 253.114718,129.93207 253.108197,128.070842" id="Fill-510" fill="#E3E3E3"></path>
                <path d="M223.088629,239.885817 C223.088629,239.885817 224.199441,240.709399 228.493319,239.885817 C228.493319,239.885817 230.12988,261.393555 228.987703,261.965116 C227.845837,262.537299 215.935272,260.592685 209.730002,261.279056 C203.524732,261.965116 192.106378,264.939597 191.649569,262.537299 C191.19276,260.135312 194.960578,249.380821 205.579906,248.808949 C216.199233,248.236765 223.392961,252.698798 223.392961,252.698798 L223.088629,239.885817" id="Fill-548" fill="#333333"></path>
                <path d="M223.345137,252.901038 C224.179877,254.774401 226.09158,258.35249 226.133503,257.630338 C226.227908,255.97695 224.936981,252.698798 223.31253,249.323571 L223.392961,252.698798 C223.392961,252.698798 223.31253,252.650261 223.195456,252.582433 C223.244832,252.689464 223.297314,252.793073 223.345137,252.901038" id="Fill-549" fill="#2B2B2B"></path>
                <path d="M224.78233,259.920316 C220.024812,261.076816 215.196179,259.740167 210.415991,259.49499 C207.110572,259.325108 204.061351,260.167359 200.846299,260.778435 C198.716906,261.182603 196.140331,261.643399 194.01187,260.967607 C193.098252,260.676692 192.480582,260.220875 192.073771,259.67016 C191.673481,260.928403 191.5415,261.968538 191.649569,262.537299 C192.106378,264.939597 203.524732,261.965116 209.730002,261.279056 C215.935272,260.592685 227.845837,262.537299 228.987703,261.965116 C229.342033,261.786522 229.428364,259.592998 229.379919,256.652742 C228.364754,258.215278 226.863279,259.414405 224.78233,259.920316" id="Fill-550" fill="#2B2B2B"></path>
                <path d="M232.813593,239.481337 C232.813593,239.481337 231.842214,261.164868 234.011978,262.308612 C236.181431,263.452667 248.056905,261.049747 257.191216,262.308612 C266.326148,263.566855 270.322525,262.537299 270.208246,261.164868 C270.094276,259.791504 264.398608,250.295878 255.542854,249.495631 C246.686479,248.694761 239.150222,253.38548 239.150222,253.38548 L238.867317,239.885817 C238.867317,239.885817 235.724622,240.952398 232.813593,239.481337" id="Fill-551" fill="#333333"></path>
                <path d="M237.258705,255.474773 C237.174858,255.782489 237.072068,256.093316 237.002507,256.404143 C236.879532,256.962325 237.017102,258.490324 237.492854,256.990638 C237.928856,255.612607 238.412372,254.287781 239.144322,253.115412 L239.07445,249.765076 C238.607703,250.852504 238.28567,252.00496 238.035994,252.804585 C237.759611,253.689151 237.502481,254.579317 237.258705,255.474773" id="Fill-552" fill="#2B2B2B"></path>
                <path d="M266.893199,261.144955 C264.345815,261.557836 261.728559,261.1434 259.201982,260.742654 C256.055871,260.243899 252.938019,259.966675 249.754954,259.865244 C246.590521,259.76288 243.676696,260.022369 240.611948,260.805504 C239.229721,261.157712 237.562416,261.643399 236.133297,261.250742 C234.483693,260.798347 233.499272,259.636557 232.90334,258.191943 C233.116993,260.41907 233.464491,262.018631 234.011978,262.308612 C236.181431,263.452667 248.056905,261.049747 257.191216,262.308612 C266.326148,263.566855 270.322525,262.537299 270.208246,261.164868 C270.185886,260.898223 269.948011,260.318884 269.522256,259.562818 C268.982843,260.354664 268.150277,260.94116 266.893199,261.144955" id="Fill-553" fill="#2B2B2B"></path>
                <path d="M209.628783,198.786903 C206.377453,201.142066 143.465104,202.148797 140.457277,198.786903 C137.449449,195.422029 138.773533,118.727246 140.457277,115.362869 C142.141021,111.999486 207.466025,113.345435 209.628783,115.362869 C211.790476,117.382787 212.879049,196.43025 209.628783,198.786903" id="Fill-554" fill="#D19F62"></path>
                <path d="M207.228675,194.316526 C204.233987,196.487449 146.28575,197.41852 143.515591,194.316526 C140.745432,191.21085 141.964718,120.447826 143.515591,117.342149 C145.066463,114.239103 205.236267,115.47948 207.228675,117.342149 C209.219926,119.206397 210.221628,192.142447 207.228675,194.316526" id="Fill-557" fill="#BC8E5C"></path>
                <g id="Group-8" transform="translate(142.930778, 115.451807)" fill="#FFFFFF">
                    <path d="M63.5506545,76.2381947 C60.6650318,78.3180498 4.81122389,79.2088315 2.1420229,76.2381947 C-0.528351111,73.2644881 0.64701228,5.48986526 2.1420229,2.51615858 C3.63644701,-0.454989846 61.6310116,0.732548557 63.5506545,2.51615858 C65.4702974,4.30079191 66.4362772,74.1552698 63.5506545,76.2381947" id="Fill-558"></path>
                </g>
                <g id="Group" transform="translate(152.813594, 104.021210)">
                    <path d="M1.04405649,13.5943745 C1.40490742,14.7082492 1.84246247,15.9577801 2.67316491,16.8246111 C3.32499461,17.5041369 4.18830407,18.1485041 5.21930673,18.0672971 C6.73693023,17.9471977 6.27701609,17.7163332 7.58253874,17.3491901 C8.32970513,17.1388607 8.96445496,17.0626318 9.618769,17.5305837 C11.7717634,19.0716511 14.0790977,18.2029533 15.801369,16.5137841 C15.9932846,16.3252343 16.2516563,16.3566593 16.4469878,16.5137841 C18.7055669,18.3336313 22.609092,20.0168889 24.8943777,17.234069 C26.2020742,15.6413526 26.6740995,13.4907655 26.8163282,11.47459 C26.8706732,10.7007893 26.8896163,9.92543298 26.8880636,9.14945434 C19.826627,8.59500609 5.24539234,8.3905883 0.109943234,9.15598824 C0.294095215,10.668431 0.579484206,12.159094 1.04405649,13.5943745" id="Fill-562" fill="#E0E0E0" style="mix-blend-mode: multiply;"></path>
                    <path d="M108.618396,44.2381445 C108.618396,44.2381445 96.0966827,45.9329142 92.4428341,51.3202719 C92.4428341,51.3202719 94.4983181,45.6108862 91.8717456,44.2381445 C89.2457942,42.8650917 83.1939328,38.060807 80.6816402,38.9752421 C78.1696581,39.8906106 77.8271292,42.5290625 76.5712934,42.8112648 C75.3151471,43.0944006 63.1632901,38.2216654 61.3605882,38.860121 C59.5578862,39.4988877 58.3955239,41.6140051 60.3469759,42.8112648 C62.2981174,44.0097691 71.8895476,49.6569272 71.8895476,49.6569272 C71.8895476,49.6569272 68.2502945,47.7543172 66.9298658,49.6569272 C65.6094371,51.5595372 69.2635962,55.2029654 69.2635962,55.2029654 C69.2635962,55.2029654 66.2948054,53.504462 65.0386591,56.2502565 C63.7825128,58.996051 74.7443691,65.8603817 80.3391113,65.1736997 C85.9344746,64.4879511 87.1906209,62.2598906 87.6468085,60.5137831 C87.6468085,60.5137831 106.998604,63.2216187 112.5095,54.0162843 C118.020085,44.8100165 108.618396,44.2381445 108.618396,44.2381445" id="Fill-571" fill="#E3BC96"></path>
                    <path d="M73.420835,51.0418033 C74.7307052,51.7860458 76.3740987,52.6021613 77.9044544,51.9833074 C79.2404103,51.4437938 76.7389866,49.9493971 76.2228642,49.6668836 C74.1819758,48.5480307 71.9780524,47.825879 69.7915193,47.0520783 C67.7028073,46.3131251 65.6193745,45.502299 63.571033,44.6563143 C63.4083085,44.5906641 63.2378204,44.5169243 63.0670218,44.44194 C66.5888896,46.5352778 71.8895476,49.6569272 71.8895476,49.6569272 C71.8895476,49.6569272 70.8321488,49.1083906 69.6514644,48.8968166 C71.2563505,49.6363921 72.7994385,50.6886614 73.420835,51.0418033" id="Fill-572" fill="#D3A784"></path>
                    <path d="M67.1901008,54.6905208 C68.2170664,55.1693625 69.1750915,55.8401764 70.1899459,56.3538655 C71.4535453,56.99201 73.486049,58.2452746 74.9884559,57.7415418 C76.5393075,57.2213188 73.352205,56.0467721 72.9106129,55.8694234 C71.9423399,55.4795672 69.8396535,54.7729724 68.0375726,53.7623956 C68.6630061,54.6006018 69.2635962,55.2029654 69.2635962,55.2029654 C69.2635962,55.2029654 68.2704798,54.639183 67.1901008,54.6905208" id="Fill-573" fill="#D3A784"></path>
                    <path d="M112.701726,45.7344081 C112.241191,49.0909668 110.892813,52.2664432 108.293879,54.6827423 C105.927542,56.8834227 102.907511,58.6030835 99.7033288,59.180556 C95.9174994,59.862882 92.3779307,59.3569713 88.6048336,59.1453973 C87.0229277,59.0570341 86.1478176,59.4842268 84.9795549,60.4493775 C84.6115615,60.7530484 84.2047502,61.0411623 83.7572578,61.216022 C82.1337391,61.8541664 80.4037042,62.4086146 78.6578317,62.5607612 C75.0126783,62.8781222 71.4662775,62.1226787 68.1245246,60.6637517 C71.5414289,63.2104178 76.9327655,65.590936 80.3391113,65.1736997 C85.9344746,64.4879511 87.1906209,62.2598906 87.6468085,60.5137831 C87.6468085,60.5137831 106.998604,63.2216187 112.5095,54.0162843 C115.224266,49.4798896 114.318102,47.0427441 112.701726,45.7344081" id="Fill-574" fill="#D3A784"></path>
                    <path d="M79.852801,42.2225914 C80.4574282,41.7381492 81.1238534,41.1267627 81.8955527,40.9416354 C84.0355043,40.4285686 86.1782508,41.1336077 88.1756632,41.9419447 C85.4587227,40.2129498 82.3197544,38.3787902 80.6816402,38.9752421 C78.1696581,39.8906106 77.8271292,42.5290625 76.5712934,42.8112648 C76.3647824,42.8579355 75.8604606,42.7636607 75.1604967,42.5791557 C76.7687988,43.3458002 78.2264875,43.5253269 79.852801,42.2225914" id="Fill-575" fill="#D3A784"></path>
                    <path d="M13.6558276,12.4755216 C13.6558276,12.4755216 15.9172015,15.8022111 19.3893825,15.4114215 C22.861874,15.0196985 22.6333144,11.7459025 22.540462,8.73875193 C22.446678,5.73129022 20.9529663,0.266770244 17.4823381,0.783570772 C14.0098466,1.29850447 13.5834711,4.79476428 13.5834711,4.79476428 L13.6558276,12.4755216" id="Fill-576" fill="#E3BC96"></path>
                    <path d="M22.540462,8.73875193 C22.4594103,6.14790425 21.3364869,1.74156525 18.8071144,0.899314178 C19.6471332,2.89775475 20.2669769,5.01629467 20.6706828,7.06109483 C21.1371183,9.42387822 21.2687886,11.9139171 18.9962351,13.3271068 C17.1544047,14.4724064 15.9774469,11.7567923 15.8460872,10.4192093 C15.6914368,8.84080526 16.2758787,7.24684433 16.0237178,5.67279624 C15.8175172,4.39370715 15.436481,3.1784014 15.0088633,1.97398548 C13.7837713,3.17124522 13.5834711,4.79476428 13.5834711,4.79476428 L13.6558276,12.4755216 C13.6558276,12.4755216 15.9172015,15.8022111 19.3893825,15.4114215 C22.861874,15.0196985 22.6333144,11.7459025 22.540462,8.73875193" id="Fill-577" fill="#D3A784"></path>
                    <path d="M8.2825026,13.0091235 C8.2825026,13.0091235 8.6359005,15.7091807 12.1754693,15.4786273 C15.7150381,15.2499408 14.9700455,12.7847929 14.9557605,11.2813732 C14.9430282,9.77826462 15.4169168,4.34734756 13.8871821,2.15973497 C12.357758,-0.0297444481 9.27375576,-0.219538742 8.17971287,2.07666108 C7.08598053,4.37254976 8.2825026,13.0091235 8.2825026,13.0091235" id="Fill-578" fill="#E3BC96"></path>
                    <path d="M14.9557605,11.2813732 C14.9430282,9.77826462 15.4169168,4.34734756 13.8871821,2.15973497 C13.5949612,1.74156525 13.2452898,1.396513 12.8645641,1.12768961 C13.47416,2.65413355 13.8983617,4.25369497 14.0862402,5.88499248 C14.2585915,7.38530082 14.7486283,11.4885912 13.2859709,12.5918872 C11.736051,13.7580332 11.150988,12.0417949 11.0339133,10.7141683 C10.8435505,8.5592252 10.601327,6.26364766 9.75354465,4.24933904 C9.35636019,3.30347895 8.9076256,2.40460073 8.57254973,1.46278543 C8.42597345,1.64449014 8.29057671,1.84517427 8.17971287,2.07666108 C7.08598053,4.37254976 8.2825026,13.0091235 8.2825026,13.0091235 C8.2825026,13.0091235 8.6359005,15.7091807 12.1754693,15.4786273 C15.7150381,15.2499408 14.9700455,12.7847929 14.9557605,11.2813732" id="Fill-579" fill="#D3A784"></path>
                    <path d="M3.31070963,14.2916352 C3.31070963,14.2916352 6.21614967,16.412353 8.76073877,15.0999722 C11.3071911,13.7857245 10.2199802,9.76830819 9.54113326,7.30316034 C8.86290741,4.8389459 8.7067043,2.26241057 7.64899494,1.35855414 C6.59128558,0.4562534 3.63833247,0.268325935 3.18990842,1.40086894 C2.7402422,2.53341194 1.81513469,8.82711518 3.31070963,14.2916352" id="Fill-580" fill="#E3BC96"></path>
                    <path d="M9.54113326,7.30316034 C8.86290741,4.8389459 8.7067043,2.26241057 7.64899494,1.35855414 C7.36950626,1.11928888 6.9549314,0.933539378 6.4909802,0.805039307 C6.69687019,1.6572468 7.0077237,2.49763104 7.19063351,3.14262051 C7.7188671,4.99824865 8.6359005,6.90085866 8.80266207,8.84516119 C9.00047795,11.1544288 8.14896912,13.9185805 5.44289767,14.0274788 C3.00296155,14.1251762 2.56385379,9.49761797 2.51727234,7.94192704 C2.44677909,5.61492454 2.68869206,3.23502855 3.46660221,1.03714839 C3.3408323,1.13857944 3.24580615,1.25930106 3.18990842,1.40086894 C2.7402422,2.53341194 1.81513469,8.82711518 3.31070963,14.2916352 C3.31070963,14.2916352 6.21614967,16.412353 8.76073877,15.0999722 C11.3071911,13.7857245 10.2199802,9.76830819 9.54113326,7.30316034" id="Fill-581" fill="#D3A784"></path>
                </g>
                <g id="glutenfree" transform="translate(149.140593, 128.088815)">
                    <g id="Group-3">
                        <mask id="mask-4" fill="white">
                            <use xlink:href="#path-3"></use>
                        </mask>
                        <g id="Clip-2"></g>
                        <path d="M27.0091381,1.81292241 C13.0380015,1.81292241 1.67071944,13.2030959 1.67071944,27.2043223 C1.67071944,41.1934068 13.0380015,52.5741979 27.0091381,52.5741979 C40.9808255,52.5741979 52.3475567,41.1934068 52.3475567,27.2043223 C52.3475567,13.2030959 40.9808255,1.81292241 27.0091381,1.81292241 L27.0091381,1.81292241 Z M27.0091381,54.2481196 C12.1164342,54.2481196 0,42.1167405 0,27.2043223 C0,12.2803141 12.1164342,0.139000705 27.0091381,0.139000705 C41.901842,0.139000705 54.0182762,12.2803141 54.0182762,27.2043223 C54.0182762,42.1167405 41.901842,54.2481196 27.0091381,54.2481196 L27.0091381,54.2481196 Z" id="Fill-1" fill="#D0011B" mask="url(#mask-4)"></path>
                    </g>
                    <path d="M38.9930516,20.8115855 C39.3447203,20.6427845 41.5126267,19.3788927 41.5126267,19.1071184 C41.5126267,18.9970921 41.5049714,18.4756427 41.5126267,17.9682992 C41.5126267,17.7261473 42.1480228,16.9841752 42.342278,16.6682022 C42.5217008,16.3813816 41.5724344,16.5323151 41.1834456,16.7490763 C39.3145773,17.8324121 38.8810917,18.1667227 38.8810917,18.3651462 C38.8810917,18.545232 38.8509487,19.6948657 38.8509487,20.0808981 C38.828461,20.613162 38.8136287,20.9107973 38.9930516,20.8115855 M35.0830689,23.5227462 C35.419427,23.3318459 37.5801565,22.012941 37.5801565,21.7153057 C37.5801565,21.5427431 37.6026441,20.0108386 37.6026441,19.6215148 C37.6026441,19.2430055 37.6476195,18.7986686 37.2586307,19.0445821 C35.3974178,20.235123 34.9634537,20.613162 34.9634537,20.8115855 C34.9634537,21.0212937 34.9337891,22.2922385 34.9261338,22.7182377 C34.9189568,23.305985 34.8888138,23.6219579 35.0830689,23.5227462 M45.078596,17.4360353 C44.8470209,17.8324121 44.6896072,17.663611 44.1140187,17.751538 C43.6728778,17.8324121 43.3814951,17.9866369 43.2245599,18.1229943 C42.9255218,18.3651462 42.1331906,19.0521052 41.6992265,19.4489522 C41.1088057,19.9816863 41.1389488,20.1725867 41.4379868,20.1725867 C42.0284076,20.1725867 43.6432132,20.235123 43.822636,20.0808981 C44.1140187,19.8199383 45.2503634,18.5560465 45.8336073,17.7444851 C46.1403007,17.3001481 45.377634,16.9141157 45.078596,17.4360353 M37.6026441,22.9716743 C38.3653108,23.0229259 41.0265104,23.096747 41.228421,22.9425221 C41.5499467,22.7182377 42.8805465,21.696968 43.4489581,21.1642339 C43.7704838,20.8665987 43.5982379,20.9107973 41.2657409,20.8115855 C40.6901524,20.7861948 40.0322687,20.7861948 39.8605012,20.9107973 C39.5241432,21.1205055 38.2007203,22.0054178 37.7299147,22.3655893 C37.0792079,22.8541249 37.0945186,22.9425221 37.6026441,22.9716743 M34.6572387,25.4693652 C35.41225,25.5540008 37.8270423,25.7416098 38.0289528,25.6165371 C38.3801431,25.4072991 39.6882553,24.6319429 40.3016422,24.1546921 C40.6380002,23.8829177 40.5408726,23.8274344 38.2605279,23.5852825 C37.6921163,23.5302694 36.9595927,23.4860708 36.7729929,23.5852825 C36.4141472,23.783706 35.3299548,24.4890027 34.8290062,24.8120286 C34.1486348,25.2530742 34.1711224,25.4072991 34.6572387,25.4693652 M32.1151759,26.4469065 C32.407037,26.2188606 33.1472161,25.6974112 33.5132387,25.4072991 C33.8869166,25.1204784 34.2759054,24.6319429 34.2759054,24.4151817 C34.2759054,24.2167582 34.2907377,22.4022648 34.2907377,21.9579278 C34.2907377,21.5098293 34.3132253,21.2451079 34.0888272,21.3922798 C33.5730463,21.7411666 31.9955606,23.2876473 31.9955606,23.5302694 C31.9955606,23.7653683 31.9955606,25.083803 31.9807284,25.5873849 C31.9807284,26.2738737 31.9505853,26.564456 32.1151759,26.4469065 M43.859956,38.1026405 C43.2618799,38.3231633 41.6695619,39.5428565 40.1370516,39.5795319 C38.9705639,39.5865849 37.371069,39.1972611 35.8160711,36.6628948 C35.2849794,35.7812738 33.2443436,32.3869157 30.9716543,28.6765846 C30.9716543,28.5331743 30.9788312,28.4856843 31.3826522,28.4856843 C31.9060884,28.4856843 31.9434084,28.4339625 32.6610998,28.3864726 C33.3639589,28.342274 33.9543796,28.2872608 34.8141739,27.7912021 C35.6811451,27.2951434 36.5184517,26.8178926 36.563427,26.6081844 C36.6084023,26.4102311 36.7428499,26.2668207 36.2567336,26.2668207 C35.7782727,26.2668207 33.7601245,26.2668207 33.7151492,26.2926816 C33.3563035,26.4652442 31.8237932,27.2768057 31.629538,27.5561032 C31.4199722,27.8278775 31.0238065,28.0521619 31.0238065,27.9087516 C31.0238065,27.9087516 31.0013189,28.026301 30.9563435,27.0783822 C30.9041913,26.1309336 30.9415112,26.0020994 31.0836141,25.8774969 C31.2328939,25.7599475 31.1735648,25.2714119 31.1735648,24.955439 C31.1735648,24.6211283 31.2180617,24.2059436 30.8668713,24.477718 C30.5152026,24.7386778 29.976934,25.3447628 29.8128219,25.5723385 C29.708039,25.723272 29.3941686,25.6607357 29.0726429,25.642398 C26.2391973,21.1938563 23.6526376,17.9062331 20.826369,17.2667641 C19.6976797,16.9949897 17.4551334,16.8849634 14.4944172,18.9458405 C13.4776878,19.6581902 12.9920499,20.0291763 12.9542515,20.2788514 C12.9097547,20.525235 13.0891775,20.7053208 13.4327124,20.5068973 C13.7618936,20.2976593 16.0120952,18.6482053 18.5388474,19.232191 C21.0732548,19.8199383 21.9182168,21.1205055 22.8674833,22.2663776 C23.2784812,22.7549131 25.3794031,25.6532126 27.6444371,29.1543056 C27.6822355,29.4406561 27.8090276,29.6099273 27.2482714,30.0434497 C26.6128753,30.5427998 18.8307085,36.0897236 14.7709676,41.4236478 C14.1580592,42.2243947 14.8905829,42.9075921 15.4063637,42.4373943 C16.0867352,41.7983955 16.6848113,40.6741524 17.0962877,40.2773055 C17.4996302,39.8804585 18.8603731,37.8675416 20.5799616,36.8683712 C22.3067271,35.876724 22.6880604,35.79585 22.7182035,36.3469218 C22.747868,36.8829473 21.297653,39.0430362 20.9909596,42.5549438 C20.923975,43.37779 21.0957425,43.7450145 21.2153577,43.6053657 C21.3426283,43.4807633 21.9478814,42.5253213 22.2469195,42.1726729 C22.5536129,41.8275477 23.5478547,40.95345 23.5703424,40.6962517 C23.59283,40.4536297 24.8861099,36.9567684 25.1928033,36.3393987 C25.4913629,35.7149759 25.7009288,34.6570308 26.3588126,33.9592572 C26.5832107,33.7241583 26.8224412,33.3273114 26.2090543,33.2539605 C25.6038013,33.1801394 24.5349196,34.3777333 23.8019174,34.1793098 C23.4732148,34.098906 24.4899442,32.9967623 25.0507004,32.5190413 C25.6038013,32.0634196 25.888007,31.85042 26.598043,31.4540432 C27.3009021,31.0571962 28.0559135,30.6824486 28.3697838,30.7266472 C28.4597345,30.7266472 28.5492067,30.7487465 28.6463342,30.7412233 C31.1735648,34.8112557 33.2366883,38.6170369 34.1711224,39.5428565 C35.2026842,40.556603 35.9203755,41.5411972 38.2007203,41.2322773 C39.8303582,40.9971784 40.2863314,40.8429535 43.9719159,38.7345864 C44.6522873,38.3377394 44.4656875,37.8896409 43.859956,38.1026405" id="Fill-4" fill="#D0011B"></path>
                </g>
                <g id="head" transform="translate(181.284310, 0.437700)">
                    <path d="M3.04344872,37.4813581 C3.04344872,37.4813581 3.94048988,31.036873 4.244822,26.155426 C4.244822,26.155426 8.48964355,7.75078713 28.2988132,3.50356262 C48.1079828,-0.74366189 53.2534867,-0.987007333 70.7476097,4.8960288 C79.2366779,7.75078722 85.5944423,8.91787632 87.7263221,21.9082015 L90.7370571,40.6806513 C90.7370571,40.6806513 91.9550067,56.5443429 90.7370571,63.2562159 L84.0380242,81.5604754 L19.1811247,81.5604754 L10.1986693,78.8146809 L7.154106,65.8495527 L3.04344869,65.2394107 C3.04344869,65.2394107 1.06435837,49.53174 3.04344872,37.4813581 Z" id="Fill-512" fill="#8E5C3A"></path>
                    <path d="M72.7721463,48.9189682 C72.7721463,48.9189682 73.5702417,42.129933 70.107377,39.9560105 C66.6442018,37.7827102 68.9658211,41.1395801 68.9658211,41.1395801 L72.7721463,48.9189682" id="Fill-513" fill="#774E32"></path>
                    <path d="M66.9864202,46.9360845 C66.9864202,46.9360845 67.7481821,41.0272592 63.3328821,39.1566965 C58.9172716,37.2864448 60.8969831,40.0717539 60.8969831,40.0717539 L66.9864202,46.9360845" id="Fill-514" fill="#774E32"></path>
                    <path d="M61.8106005,46.9360845 C61.8106005,46.9360845 60.2876978,40.1019343 54.1979501,39.4224085 C48.1082024,38.7425715 66.1873931,53.3414864 66.1873931,53.3414864 L61.8106005,46.9360845" id="Fill-515" fill="#774E32"></path>
                    <path d="M38.9350736,37.9348568 C38.9350736,37.9348568 37.5559523,42.2375868 43.0842383,43.2752326 C48.6122137,44.3131896 38.9350736,37.9348568 38.9350736,37.9348568" id="Fill-516" fill="#774E32"></path>
                    <path d="M23.3489219,39.1566965 C21.217355,40.3617347 21.8726006,43.7042922 22.6070348,45.4855583 C23.0399317,46.536272 24.4799194,47.5462265 25.0044265,48.3458517 C25.5087483,48.2749122 25.9531353,47.7584228 26.4521778,47.6657036 C24.7681033,45.2531381 24.0066519,41.9771641 23.3489219,39.1566965" id="Fill-517" fill="#774E32"></path>
                    <path d="M32.274548,41.2926601 C31.1326815,40.1850082 31.5668206,38.1408303 31.1972744,38.4348559 C30.6283597,38.8888065 29.8883358,40.4902347 30.3203011,41.8629764 C30.7516453,43.2360292 33.6238572,46.1168577 36.4230915,46.1719292 C36.5858161,46.1750405 36.6991642,46.2509583 36.7718313,46.3533227 C36.9121967,46.3330987 37.0528727,46.3131859 37.192617,46.288606 C36.9305188,46.3346544 35.9880208,45.1644637 35.8023161,44.9650241 C35.378425,44.5113847 35.010121,44.0060962 34.5253634,43.64082 C33.503056,42.8679528 33.1813335,42.1719366 32.274548,41.2926601" id="Fill-518" fill="#774E32"></path>
                    <path d="M83.4107274,60.1999055 C82.681883,62.5069951 82.2620289,66.2257187 79.8059446,67.4631153 C76.4350006,69.1616187 71.7504599,67.9086652 68.1245602,67.9086652 C62.562425,67.9086652 56.9950106,67.9855163 51.4387758,67.6787341 C40.6772197,67.084149 29.9488917,65.5611276 19.2494442,64.2997733 C15.595285,63.868847 12.9926244,62.5903801 11.1048337,59.42206 C9.94619785,57.476824 8.73570135,55.6218182 6.40259201,55.0216326 C5.10918053,54.6887148 3.64341771,54.4886529 2.35776981,54.8287269 C2.61645211,60.7941794 3.04344869,65.2394107 3.04344869,65.2394107 L7.154106,65.8495527 L10.1986693,78.8146809 L19.1811247,81.5604754 L84.0380242,81.5604754 L90.7370571,63.2562159 C91.1780282,60.8234264 91.2994505,57.1871544 91.274607,53.540926 C88.6533138,55.9002869 84.6053862,56.4145983 83.4107274,60.1999055" id="Fill-520" fill="#774E32"></path>
                    <path d="M7.61060417,57.7664937 C5.0222285,57.1560406 0.151051463,57.6137248 0.151051463,64.4780555 C0.151051463,71.3420751 3.65242346,74.5455538 7.07771243,74.6980115 C7.07771243,74.6980115 9.13319635,104.442822 22.8352839,106.273559 C36.5373714,108.103985 43.541047,108.408901 43.541047,108.408901 C43.541047,108.408901 44.607141,111.764837 49.0215093,111.764837 C53.4364987,111.764837 54.8069249,107.493532 54.8069249,107.493532 C54.8069249,107.493532 81.0077459,109.029621 82.2260059,102.775433 C83.4448871,96.521244 88.1486815,80.4948271 88.9104434,79.274232 C89.6712737,78.0536369 96.9780392,77.1385795 95.9131874,68.9015071 C94.848025,60.6647459 91.3457214,58.2235557 88.6051796,58.5287823 C85.8646379,58.83432 84.1895691,76.8333529 83.1244068,77.1385795 C82.0595549,77.443806 79.0137494,78.9690054 78.5569407,76.6808952 C78.100132,74.3930961 75.9694967,41.1395801 75.9694967,41.1395801 C75.9694967,41.1395801 76.1216628,45.410574 72.7721463,48.9189682 C72.7721463,48.9189682 71.5535757,41.4444956 68.9658211,41.1395801 C68.9658211,41.1395801 69.2701532,45.7158006 66.9864202,46.9360845 C66.9864202,46.9360845 65.6169257,39.6143807 60.8969831,40.0717539 C60.8969831,40.0717539 64.8554743,44.9532009 61.8106005,46.9360845 C61.8106005,46.9360845 56.6335386,40.1834525 52.97969,40.0515299 C52.97969,40.0515299 55.2640441,47.0885423 53.5892859,47.3937688 C51.9142171,47.6993065 48.0849117,44.1128166 40.3436965,39.1566965 C40.3436965,39.1566965 39.8868878,42.2074064 43.0842383,43.2752326 C43.0842383,43.2752326 39.8868878,45.1062809 32.274548,41.2926601 C32.274548,41.2926601 32.8838333,44.4955166 35.3194218,46.0210271 C35.3194218,46.0210271 25.8798471,46.3262537 23.7485907,40.9871224 C23.7485907,40.9871224 21.9216664,43.5801481 24.6622082,47.5462265 C24.6622082,47.5462265 16.5927491,45.8685694 15.9840848,40.3772916 C15.9840848,40.3772916 13.2444747,46.630858 16.5933701,77.5962638 C16.5933701,77.5962638 14.3201956,78.6286203 14.005305,77.1385795 C14.005305,77.1385795 10.1992904,58.3769468 7.61060417,57.7664937 Z" id="Fill-524" fill="#E3BC96"></path>
                    <path d="M93.0583658,76.3744241 C90.8569267,76.4668321 88.0806726,77.2621013 86.9534016,79.3585505 C85.9817126,81.1647076 85.1326881,84.3501404 84.6494833,87.0352629 C83.7880371,91.8211905 82.6728773,96.19486 80.3326254,100.406738 C78.302606,104.060122 74.5329249,105.252715 70.7061039,105.493847 C67.2072162,105.714133 67.6289336,105.973 64.1278721,106.147237 C62.3981478,106.233111 60.6671813,106.311829 58.9352831,106.334231 C57.4903267,106.351966 55.5289373,106.012203 54.1380153,106.482333 C52.2815894,107.11021 52.3933849,108.69017 50.9266905,109.489172 C50.2720659,109.844803 49.3304996,109.600249 48.6407836,109.551711 C46.5759834,109.403298 46.309227,107.755199 44.6419218,106.972376 C42.0339819,105.748047 38.0522,106.336098 35.2181848,106.121413 C32.1282823,105.88837 29.0181944,105.616435 25.9742522,105.012516 C22.0288038,104.228448 17.134336,102.5259 15.4170334,98.225659 C13.1792607,92.6251716 11.2048285,87.0791334 10.3086015,81.1388832 C9.87849948,78.2866794 9.66453537,73.9407012 5.94174624,73.7328609 C5.10203805,73.6861902 4.30176881,73.5514673 3.53752256,73.3265144 C4.61945427,74.1905452 5.85199932,74.6435624 7.07771243,74.6980115 C7.07771243,74.6980115 9.13319635,104.442822 22.8352839,106.273559 C36.5373714,108.103985 43.541047,108.408901 43.541047,108.408901 C43.541047,108.408901 44.607141,111.764837 49.0215093,111.764837 C53.4364987,111.764837 54.8069249,107.493532 54.8069249,107.493532 C54.8069249,107.493532 77.0054681,109.154699 81.2940665,104.449045 C85.1758536,100.189874 88.9104434,79.274232 88.9104434,79.274232 C89.3107333,78.6118188 91.6516062,78.0576817 93.5307017,76.353889 C93.3862992,76.3513999 93.2068054,76.3682013 93.0583658,76.3744241" id="Fill-525" fill="#D3A784"></path>
                    <path d="M16.5120079,43.6233963 C18.1594383,45.210201 19.3578237,47.0085797 21.6375196,47.7988707 C22.3523895,48.047159 26.6273241,49.0213327 25.6338971,47.6454796 C24.9416968,46.6874851 24.1768295,45.7870512 24.0914302,44.5705009 C24.0706238,44.2783422 24.3991783,44.0428105 24.6693506,44.129307 C27.9511688,45.1775315 30.9727519,46.8393206 34.4818874,46.9727989 C34.8604393,46.9871112 37.8078026,47.2217094 36.9603309,46.3716799 C36.4091171,45.818165 35.8209487,45.3072761 35.3439547,44.6871777 C35.0899306,44.3570601 35.5063687,43.9099545 35.859456,44.0148081 C37.268079,44.4336001 38.6403684,44.9793365 40.0555127,45.3735486 C40.9442867,45.6205923 41.8684625,45.8919048 42.7951228,45.9342196 C43.1379622,45.9500876 46.4918263,46.2123771 44.8922194,44.3219015 C44.5118043,43.8723068 45.0912775,43.2848779 45.5384594,43.6747341 C47.7017017,45.5602315 50.4891354,47.6031648 53.3374355,48.2469097 C57.4111382,49.168501 56.1997101,45.4827581 55.3941616,43.2046043 C55.2398218,42.7696331 55.8543863,42.4329816 56.1571657,42.7593655 C57.8629782,44.5981922 59.4392944,46.1999316 60.8944987,48.2251301 C63.1468669,51.3595362 64.02943,46.0732984 64.0558262,44.6846886 C64.0635897,44.2609184 64.708898,44.0185418 64.9067139,44.4538241 C65.1473847,44.9833813 65.3253258,45.5036043 65.4902242,46.0630308 C65.7135046,46.8234525 66.598552,50.0490221 68.4565306,47.945728 C69.2847487,47.0082686 69.72013,45.8785259 70.0098666,44.6775325 C70.1111036,44.2565625 70.8129307,44.2226484 70.890877,44.6775325 C71.064781,45.7005548 71.0542226,46.6741062 70.9942878,47.7080184 C70.876592,49.7742871 73.3832948,49.5994274 74.6987549,48.7409972 C75.3338152,48.3259388 75.8868923,47.810694 76.3660601,47.2269988 C76.126942,43.604728 75.9694967,41.1395801 75.9694967,41.1395801 C75.9694967,41.1395801 76.1216628,45.410574 72.7721463,48.9189682 C72.7721463,48.9189682 71.5535757,41.4444956 68.9658211,41.1395801 C68.9658211,41.1395801 69.2701532,45.7158006 66.9864202,46.9360845 C66.9864202,46.9360845 65.6169257,39.6143807 60.8969831,40.0717539 C60.8969831,40.0717539 64.8554743,44.9532009 61.8106005,46.9360845 C61.8106005,46.9360845 56.6335386,40.1834525 52.97969,40.0515299 C52.97969,40.0515299 55.2640441,47.0885423 53.5892859,47.3937688 C51.9142171,47.6993065 48.0849117,44.1128166 40.3436965,39.1566965 C40.3436965,39.1566965 39.8868878,42.2074064 43.0842383,43.2752326 C43.0842383,43.2752326 39.8868878,45.1062809 32.274548,41.2926601 C32.274548,41.2926601 32.8838333,44.4955166 35.3194218,46.0210271 C35.3194218,46.0210271 25.8798471,46.3262537 23.7485907,40.9871224 C23.7485907,40.9871224 21.9216664,43.5801481 24.6622082,47.5462265 C24.6622082,47.5462265 16.5927491,45.8685694 15.9840848,40.3772916 C15.9840848,40.3772916 15.6927955,41.0505946 15.4170334,43.0194771 C15.8350242,43.1006841 16.2570521,43.3785305 16.5120079,43.6233963" id="Fill-526" fill="#D3A784"></path>
                    <path d="M14.005305,77.1385795 C14.005305,77.1385795 10.1992904,58.3769468 7.61060417,57.7664937 C5.6010806,57.2923191 2.22361525,57.4774463 0.810023647,60.7916903 C1.32117738,60.4475715 1.89537133,60.198972 2.49813524,60.0539816 C4.80360625,58.6258574 7.16031686,59.4124147 8.62639022,62.0244198 C9.61298524,63.7820394 9.94681893,65.7005175 10.1977377,67.6333079 C10.5486512,68.7761184 10.8896274,69.9229738 11.1771902,71.0779187 C11.6656743,73.0362225 12.0165878,75.4659006 13.2357795,77.1248894 C13.9270482,78.0648379 14.3807515,78.177781 14.6829098,77.8846889 C14.3608767,77.7919697 14.0975363,77.5757286 14.005305,77.1385795" id="Fill-527" fill="#D3A784"></path>
                    <path d="M88.6051796,58.5287823 C85.8646379,58.83432 84.1895691,76.8333529 83.1244068,77.1385795 C82.0595549,77.443806 79.0137494,78.9690054 78.5569407,76.6808952 C78.5140858,76.4662099 78.4563248,75.971189 78.3867632,75.2630385 C78.100132,76.7297439 78.0110062,78.2368973 79.0979066,79.1423094 C79.317771,79.3255698 79.5559575,79.4711825 79.8031497,79.5990603 C82.5679137,80.0925254 83.8256128,78.4210911 84.9516416,76.1457375 C85.9453791,72.1354774 85.9487951,67.4578259 87.5136211,63.5163274 C88.575057,60.8424058 92.2683445,60.1827929 93.9114274,62.5181961 C94.0663883,62.6585194 94.2201071,62.8044432 94.3697888,62.9559675 C92.8024784,59.4503736 90.5196771,58.3159637 88.6051796,58.5287823" id="Fill-528" fill="#D3A784"></path>
                    <path d="M18.8656131,60.3442736 L28.9200628,52.4606542 C28.9200628,52.4606542 25.8804682,47.3436756 19.9785991,51.7241901 C14.0776615,56.1037712 18.8656131,60.3442736 18.8656131,60.3442736" id="Fill-533" fill="#8E5C3A"></path>
                    <path d="M61.0081575,54.3859773 L72.5926524,58.9827329 C72.5926524,58.9827329 74.7767012,54.1078198 69.7514948,51.4793244 C64.7238041,48.8511401 61.0081575,54.3859773 61.0081575,54.3859773" id="Fill-534" fill="#8E5C3A"></path>
                    <path d="M71.3868141,64.5269042 C71.3868141,67.894664 68.6627311,70.6233459 65.3011035,70.6233459 C61.9410285,70.6233459 59.2153929,67.894664 59.2153929,64.5269042 C59.2153929,61.1588333 61.9410285,58.4285958 65.3011035,58.4285958 C68.6627311,58.4285958 71.3868141,61.1588333 71.3868141,64.5269042" id="Fill-535" fill="#47413E"></path>
                    <path d="M64.9914921,63.5776216 C64.2201034,64.8756901 62.8487456,65.4848987 61.9295385,64.9348064 C61.0128156,64.38907 60.8920144,62.8928065 61.6630926,61.5922488 C62.4351024,60.2944915 63.805218,59.6868386 64.7225619,60.2341307 C65.6420797,60.7832896 65.7641231,62.2804865 64.9914921,63.5776216" id="Fill-536" fill="#FFFFFF"></path>
                    <path d="M35.0054629,63.9152065 C35.0054629,67.2832774 32.2816905,70.0119593 28.9200628,70.0119593 C25.5599879,70.0119593 22.8340417,67.2832774 22.8340417,63.9152065 C22.8340417,60.5471357 25.5599879,57.8175204 28.9200628,57.8175204 C32.2816905,57.8175204 35.0054629,60.5471357 35.0054629,63.9152065" id="Fill-537" fill="#47413E"></path>
                    <path d="M28.610762,62.9665462 C27.8396838,64.2643036 26.4673944,64.8738233 25.5481872,64.323731 C24.6317749,63.7773723 24.5109737,62.2807976 25.2817414,60.9808623 C26.0546828,59.6827938 27.4238668,59.075452 28.3418318,59.6230553 C29.2613495,60.1722142 29.3827718,61.6684777 28.610762,62.9665462" id="Fill-538" fill="#FFFFFF"></path>
                    <path d="M38.4146036,59.4830431 C38.4146036,59.4830431 35.2023471,79.6777782 40.5020735,83.6195879 C45.8021103,87.562331 53.1899276,86.8380013 56.8838363,81.9307298 C60.5777449,77.0225249 57.8477616,65.1429578 55.1972774,61.1059399 C52.5477248,57.0689219 42.2687524,52.3218866 38.4146036,59.4830431" id="Fill-539" fill="#D3A784"></path>
                    <path d="M39.2779131,58.37508 C39.2779131,58.37508 36.2327287,77.5191015 41.2566929,81.2558711 C46.2806571,84.9926407 53.2840221,84.306581 56.7857047,79.6541317 C60.2876978,75.0013713 57.6993221,63.740658 55.18734,59.9136583 C52.6753579,56.0869698 42.9314511,51.5872893 39.2779131,58.37508" id="Fill-540" fill="#E3BC96"></path>
                    <path d="M66.5091156,83.0427377 C66.5091156,83.0427377 68.4779581,82.1320362 69.709261,83.1609702 C70.9402533,84.1892819 70.6144937,84.8100026 70.7573435,85.4711713 C70.9005038,86.1326511 71.7256165,86.0766462 71.9060419,85.4114327 C72.0870885,84.7452859 72.2193798,82.8355197 69.6741696,81.7804501 C67.129891,80.7247582 66.1004411,82.0834987 66.1004411,82.0834987 C66.1004411,82.0834987 65.5917717,83.0032232 66.5091156,83.0427377" id="Fill-541" fill="#D3A784"></path>
                    <path d="M89.2473825,72.9973302 C89.2473825,72.9973302 87.4154895,64.3377322 91.0808282,66.1258434 C93.3316437,67.2219832 93.2450022,70.0380949 92.102204,71.6329893 C91.3814338,72.6339208 90.1752849,73.1756124 89.2473825,72.9973302" id="Fill-542" fill="#D3A784"></path>
                    <path d="M89.2455193,72.8884319 L88.8927424,70.6634827 C88.8927424,70.6634827 93.2117741,66.7232287 92.7916094,70.0212935 C92.3717553,73.3199805 89.2455193,72.8884319 89.2455193,72.8884319" id="Fill-543" fill="#C4987A"></path>
                    <path d="M7.36465413,70.4108385 C7.36465413,70.4108385 7.30037174,61.5589571 4.10333185,64.0931776 C2.14007919,65.6473128 2.82700024,68.3791061 4.28531003,69.691487 C5.20327506,70.5144475 6.49730761,70.7845154 7.36465413,70.4108385" id="Fill-544" fill="#D3A784"></path>
                    <path d="M7.34322667,70.3041181 L7.21217753,68.054589 C7.21217753,68.054589 2.14939548,65.1345571 3.26641855,68.2655407 C4.38282053,71.3971465 7.34322667,70.3041181 7.34322667,70.3041181" id="Fill-545" fill="#C4987A"></path>
                    <path d="M27.3490259,90.6730906 C27.3490259,90.6730906 37.6674372,92.4447115 48.4050815,90.6730906 C59.1430364,88.9011586 68.7204921,84.7238173 68.7204921,84.7238173 C68.7204921,84.7238173 64.7002028,87.9210734 62.5686359,92.538364 C60.4370689,97.1550325 56.6189431,100.991989 50.0136941,101.584707 C39.8837824,102.494475 27.3490259,90.6730906 27.3490259,90.6730906" id="Fill-546" fill="#5B1313"></path>
                    <path d="M59.2501737,92.2583397 C55.5183788,91.0828596 50.6332273,91.7228709 47.4209709,94.0433395 C45.1627024,95.6749481 43.7593587,98.0137739 42.2429774,100.279482 C44.8285581,101.249611 47.4955012,101.811838 50.0136941,101.584707 C56.0910201,101.039282 59.8044929,97.7458839 62.0199065,93.6273477 C61.127406,93.0392965 60.206025,92.5595214 59.2501737,92.2583397" id="Fill-547" fill="#7F2E2E"></path>
                </g>
            </g>
        </g>
    </g>
</svg>