<?xml version="1.0" encoding="UTF-8" standalone="no"?>
<svg width="186px" height="258px" viewBox="0 0 186 258" version="1.1" xmlns="http://www.w3.org/2000/svg" xmlns:xlink="http://www.w3.org/1999/xlink">
    <!-- Generator: Sketch 3.7.2 (28276) - http://www.bohemiancoding.com/sketch -->
    <title>sr-showing-gluten</title>
    <desc>Created with Sketch.</desc>
    <defs>
        <polygon id="path-1" points="0.0198304979 32.5488718 0.0198304979 0.0834004229 16.2153981 0.0834004229 32.4109657 0.0834004229 32.4109657 32.5488718 16.2153981 32.5488718"></polygon>
    </defs>
    <g id="Super-Gluten-tablet" stroke="none" stroke-width="1" fill="none" fill-rule="evenodd">
        <g id="iPad-Landscape-Copy-3" transform="translate(-524.000000, -180.000000)">
            <g id="sr-showing-gluten" transform="translate(524.000000, 179.000000)">
                <path d="M151,177.178279 C151,177.178279 154.782552,205.324336 159.319367,208.23155 C163.856182,211.137932 172.121435,210.372438 171.968251,203.794596 C171.815484,197.21717 164.860616,171.824395 164.860616,171.824395 L151,177.178279" id="Fill-496" fill="#E3BC96"></path>
                <path d="M164.69661,194.763844 C162.358895,195.069626 160.104849,195.745674 157.749235,195.943704 C157.395831,195.97241 157.164807,195.640002 157.13775,195.331309 C156.805158,191.553761 155.306623,185.940691 157.017034,182.376567 C157.817918,180.707457 161.804021,180.503186 163.162693,179.574192 C164.237476,178.8399 165.258977,178.021986 166.305454,177.251916 C165.458782,174.00855 164.860616,171.824395 164.860616,171.824395 L151,177.178279 C151,177.178279 154.782552,205.324336 159.319367,208.23155 C163.856182,211.137932 172.121435,210.372438 171.968251,203.794596 C171.929955,202.15544 171.46874,199.346825 170.798978,196.053536 C168.930388,195.052153 166.853252,194.481776 164.69661,194.763844" id="Fill-497" fill="#D3A784"></path>
                <path d="M84.8407862,175.824395 C84.8407862,175.824395 78.5615082,193.7873 79.024389,200.299825 C79.4876861,206.810686 95.7076626,197.546542 95.7076626,197.546542 L96.7786989,176.589474 L84.8407862,175.824395" id="Fill-498" fill="#E3BC96"></path>
                <path d="M84.8404466,175.824395 C84.8404466,175.824395 84.1956603,177.66907 83.3369165,180.384494 C85.9110667,180.894547 89.2274079,181.517343 90.9290777,183.669047 C92.6203409,185.809103 90.3683758,188.153429 88.5060298,189.140251 C86.0563413,190.440759 83.156676,191.150505 81.186935,193.206523 C80.6041714,193.814758 80.0488809,194.436722 79.4885953,195.051197 C79.1235356,197.113872 78.928726,198.954802 79.0240495,200.299825 C79.4873466,206.810686 95.7073231,197.546542 95.7073231,197.546542 L96.7783594,176.589474 L84.8404466,175.824395" id="Fill-499" fill="#D3A784"></path>
                <path d="M129.018538,224.981766 C137.513983,224.69637 145.934917,224.515397 154.234303,223.250668 C154.219734,218.705962 154.100268,217.824395 154.100268,217.824395 L93.2859704,219.659501 C93.2859704,219.659501 93.129873,220.839361 93,222.704421 C105.041561,223.171206 116.889562,225.390723 129.018538,224.981766" id="Fill-502" fill="#466D89"></path>
                <path d="M89.4266178,154.824395 C89.4266178,154.824395 84.2853939,158.539123 80,177.201373 L95.3054539,183.85826 C95.3054539,183.85826 99.6183209,160.902586 89.4266178,154.824395" id="Fill-504" fill="#365370"></path>
                <path d="M89.4992234,154.824395 C89.4992234,154.824395 88.4922911,155.555359 87,157.980395 C89.8076719,160.811892 90.7263571,165.550467 91.1917354,169.330927 C91.7174715,173.597725 91.4847823,177.772581 90.924913,181.920811 L95.3780595,183.85826 C95.3780595,183.85826 99.6909266,160.902586 89.4992234,154.824395" id="Fill-505" fill="#2E4B63"></path>
                <path d="M167.211447,175.200124 L151.90641,181.855764 C151.90641,181.855764 147.593126,158.901338 157.78483,152.824395 C157.78483,152.824395 162.92647,156.537875 167.211447,175.200124 Z" id="Fill-506" fill="#365370"></path>
                <path d="M157.78483,152.824395 C157.78483,152.824395 158.792178,153.554111 160.284053,155.977899 C157.476797,158.811476 156.558112,163.550051 156.092734,167.328847 C155.566998,171.595229 155.799687,175.771333 156.35914,179.920395 L151.90641,181.855764 C151.90641,181.855764 147.593126,158.901338 157.78483,152.824395" id="Fill-507" fill="#1E3349"></path>
                <path d="M114.129872,143.852049 C114.129872,143.852049 102.038359,142.896429 91.42332,152.220482 C90.4230479,153.100384 88,155.859491 88,155.859491 C88,155.859491 89.2254686,157.388816 89.6900145,158.145573 C94.2047675,165.488493 93.0571394,172.372117 93.9749921,186.13978 C95.2225225,204.835313 92.1384542,220.86368 92.1384542,220.86368 C92.1384542,220.86368 109.434046,226.982641 155.19764,220.86368 C155.571025,212.089618 153.686617,185.54153 153.464751,180.170589 C152.648466,160.386724 154.253979,158.351092 155.540638,156.357895 C157.065814,153.995263 158.278795,152.956854 158.278795,152.956854 C158.278795,152.956854 150.89851,144.732367 136.424743,144.111651 C132.810776,143.957304 127.666638,143.952728 124.374024,145.232851 C123.468659,145.583979 119.651973,147.76647 118.757015,147.412845 L114.129872,143.852049 L115.534857,152.337698" id="Fill-508" fill="#FFFFFF"></path>
                <path d="M115.755972,154.227812 C117.054494,156.761265 119.549218,161.799884 121.44584,154.227812 C122.165737,151.353698 125.239086,150.441775 127.135708,154.227812 C128.077443,156.107701 128.99191,158.343942 130.928954,156.12083 C132.893053,153.866667 132.825576,150.441775 136.551783,146.963957 C137.925337,145.681964 143.511229,146.686881 146.915401,146.768007 C147.562685,146.782568 148.299049,146.812938 149.075373,146.827083 C145.779845,145.450858 141.646386,144.322586 136.645857,144.108747 C133.031891,143.9544 127.887753,143.949824 124.595138,145.229946 C123.689773,145.581075 119.873088,147.763566 118.97813,147.409941 L114.350986,143.849144 C114.350986,143.849144 109.367941,143.473054 103,145.653048 C106.208114,145.82362 111.962726,146.827083 115.755972,154.227812 Z" id="Fill-509" fill="#DDDDDD"></path>
                <path d="M120.142015,141.554156 C120.142015,141.554156 115.974856,141.740696 114.738704,144.442966 C113.502979,147.145662 113.018247,153.235034 119.945306,157.754575 C119.945306,157.754575 121.147749,149.638821 123.487349,148.211239 C123.487349,148.211239 128.613731,151.90711 129.122358,157.473914 C129.122358,157.473914 136.570418,151.023814 132.097315,142.828844 C127.623358,134.634726 120.142015,141.554156 120.142015,141.554156" id="Fill-511" fill="#365370"></path>
                <path d="M153.24455,171.094464 C152.711737,172.445312 152.287568,173.870629 152.009507,175.379152 C150.860214,181.620426 151.590333,187.790975 151.46379,194.061371 C151.423413,196.057065 151.358477,201.220822 148.040887,200.127913 C145.7602,199.376148 144.782406,196.903685 143.803779,194.989117 C141.895228,191.260245 135.730005,190.409049 132.024461,189.254983 C129.476119,188.459951 127.270775,188.230718 124.802355,189.46799 C123.385407,190.178568 121.881877,191.197008 120.312578,191.549385 C118.324105,191.993705 115.770768,191.905923 114.423751,190.103267 C112.885255,188.045169 112.998478,185.330993 113.304845,182.896805 C113.714445,179.646782 114.136532,176.502432 114.030802,173.209558 C113.897183,169.035535 113.801859,162.81215 110.601238,159.609971 C108.290997,157.299759 104.864763,156.875409 101.731992,156.77057 C98.9955007,156.676963 95.5055791,157.458267 93.5441633,154.957929 C92.7853218,153.993157 92.216711,152.926874 91.7159506,151.824395 C91.6185458,151.908433 91.5203085,151.985815 91.42332,152.071101 C90.4230479,152.951003 88,155.710111 88,155.710111 C88,155.710111 89.2254686,157.239435 89.6900145,157.996193 C94.2047675,165.339113 93.0571394,172.222736 93.9749921,185.9904 C95.2225225,204.685932 92.1384542,220.714299 92.1384542,220.714299 C92.1384542,220.714299 109.434046,226.833261 155.19764,220.714299 C155.571025,211.940238 153.686617,185.392149 153.464751,180.021209 C153.319893,176.518657 153.253291,173.583153 153.24455,171.094464" id="Fill-510" fill="#E3E3E3"></path>
                <path d="M95.1227565,256.111461 C90.7645894,259.2606 6.43527165,260.60672 2.4035029,256.111461 C-1.62826584,251.612217 0.146569472,149.061996 2.4035029,144.563416 C4.66043634,140.066164 92.2237397,141.865862 95.1227565,144.563416 C98.0203447,147.264291 99.479495,252.96033 95.1227565,256.111461" id="Fill-554" fill="#D19F62"></path>
                <path d="M92.6163052,250.276084 C88.6021481,253.17887 10.9268522,254.423826 7.21366002,250.276084 C3.50046781,246.123418 5.13483088,151.504678 7.21366002,147.352012 C9.29248917,143.202863 89.9456303,144.861397 92.6163052,147.352012 C95.2854287,149.844737 96.6281351,247.369077 92.6163052,250.276084" id="Fill-557" fill="#BC8E5C"></path>
                <g id="Group-8" transform="translate(6.000000, 144.824395)" fill="#FFFFFF">
                    <path d="M85.1849199,101.939707 C81.3169575,104.720726 6.44908735,105.911809 2.87122219,101.939707 C-0.708215319,97.9635011 0.86727178,7.34061529 2.87122219,3.36440902 C4.87438642,-0.608376575 82.6117815,0.979506215 85.1849199,3.36440902 C87.7580582,5.75068009 89.0528822,99.1545842 85.1849199,101.939707" id="Fill-558"></path>
                </g>
                <path d="M20.2521093,147.4289 C20.7358031,148.918285 21.322313,150.589059 22.4358078,151.748118 C23.309537,152.656726 24.466739,153.518323 25.8487213,153.409739 C27.8829826,153.249152 27.2665019,152.940458 29.0164578,152.449543 C30.0179787,152.168307 30.8688136,152.06638 31.7458728,152.692088 C34.6318015,154.752682 37.7246113,153.591128 40.0331877,151.332504 C40.2904362,151.08039 40.6367643,151.122409 40.8985917,151.332504 C43.9260487,153.765861 49.1584335,156.01658 52.2216888,152.295612 C53.9745585,150.165958 54.6072733,147.290362 54.7979203,144.594491 C54.8707657,143.559826 54.8961575,142.52308 54.8940762,141.485503 C45.4287463,140.744138 25.8836871,140.470807 19,141.494239 C19.246842,143.516559 19.6293847,145.509756 20.2521093,147.4289" id="Fill-562" fill="#E0E0E0" style="mix-blend-mode: multiply;"></path>
                <path d="M165.061593,198.092673 C165.061593,198.092673 148.277169,200.358786 143.379457,207.562336 C143.379457,207.562336 146.13468,199.928195 142.613955,198.092673 C139.094063,196.256735 130.981993,189.832824 127.614452,191.055535 C124.247327,192.279494 123.788193,195.807423 122.104838,196.184762 C120.421068,196.563349 104.132408,190.047912 101.716021,190.901604 C99.2996329,191.755712 97.7415727,194.583881 100.357349,196.184762 C102.972709,197.787308 115.829307,205.338243 115.829307,205.338243 C115.829307,205.338243 110.951159,202.794222 109.181223,205.338243 C107.411286,207.882263 112.309414,212.753968 112.309414,212.753968 C112.309414,212.753968 108.329971,210.482863 106.646201,214.154323 C104.96243,217.825783 119.655982,227.004225 127.155318,226.086048 C134.655485,225.169119 136.339256,222.189932 136.950741,219.855175 C136.950741,219.855175 162.890383,223.475879 170.277328,211.167231 C177.663857,198.857336 165.061593,198.092673 165.061593,198.092673" id="Fill-571" fill="#E3BC96"></path>
                <path d="M117.878516,207.649213 C119.634299,208.644355 121.837146,209.7356 123.888473,208.908118 C125.679223,208.186723 122.326251,206.188533 121.634427,205.810778 C118.898768,204.314736 115.944573,203.349132 113.013688,202.314467 C110.213925,201.326397 107.421239,200.242224 104.67559,199.11104 C104.457469,199.023258 104.228943,198.924659 104,198.824395 C108.720802,201.623442 115.825939,205.797465 115.825939,205.797465 C115.825939,205.797465 114.408574,205.064005 112.825955,204.781105 C114.977185,205.770007 117.04558,207.177019 117.878516,207.649213" id="Fill-572" fill="#D3A784"></path>
                <path d="M109,212.065411 C110.376571,212.705681 111.660732,213.60264 113.021069,214.289505 C114.71483,215.142781 117.43925,216.818548 119.453114,216.144996 C121.531915,215.449395 117.259842,213.878884 116.66792,213.641747 C115.370023,213.120462 112.551528,212.175659 110.135973,210.824395 C110.97432,211.945179 111.779366,212.750612 111.779366,212.750612 C111.779366,212.750612 110.448168,211.996767 109,212.065411" id="Fill-573" fill="#D3A784"></path>
                <path d="M170.752419,200.824395 C170.135106,205.312521 168.327706,209.558518 164.844028,212.789403 C161.672129,215.731979 157.624003,218.031374 153.329035,218.803525 C148.254413,219.715878 143.509885,219.039414 138.452329,218.756514 C136.331902,218.638361 135.158882,219.20957 133.592913,220.500093 C133.099645,220.906138 132.554345,221.291381 131.954515,221.52519 C129.778309,222.378466 127.459326,223.119831 125.119114,223.323269 C120.233057,223.747619 115.479371,222.7375 111,220.786738 C115.580106,224.191939 122.806791,227.37498 127.372744,226.817085 C134.872912,225.900156 136.556682,222.920969 137.168168,220.586211 C137.168168,220.586211 163.107809,224.206916 170.494754,211.898268 C174.133697,205.832558 172.919051,202.573799 170.752419,200.824395" id="Fill-574" fill="#D3A784"></path>
                <path d="M126.289684,195.32023 C127.100142,194.672472 127.993436,193.854974 129.027841,193.607437 C131.896287,192.921404 134.768479,193.864127 137.445861,194.944971 C133.804005,192.633096 129.596452,190.180602 127.400682,190.97813 C124.033557,192.202089 123.574422,195.730019 121.891068,196.107358 C121.614255,196.169762 120.938249,196.043705 120,195.797 C122.155809,196.822096 124.109732,197.062145 126.289684,195.32023" id="Fill-575" fill="#D3A784"></path>
                <path d="M37.0969885,145.503685 C37.0969885,145.503685 40.1281918,149.951872 44.7823919,149.429339 C49.4370081,148.905558 49.130641,144.528096 49.0061793,140.507171 C48.8804689,136.48583 46.8782596,129.179104 42.2261409,129.870129 C37.5715246,130.558658 37,135.233581 37,135.233581 L37.0969885,145.503685" id="Fill-576" fill="#E3BC96"></path>
                <path d="M49.0061793,141.306674 C48.8975355,137.842397 47.3923403,131.950587 44.0019049,130.824395 C45.1278874,133.496553 45.9587418,136.329297 46.4998795,139.063443 C47.1251016,142.222771 47.3015957,145.552255 44.255407,147.441861 C41.7865706,148.973265 40.2089462,145.34216 40.0328684,143.553649 C39.825571,141.443132 40.6089718,139.311813 40.2709689,137.20712 C39.9945725,135.496822 39.4838218,133.871811 38.9106321,132.261361 C37.2684875,133.862243 37,136.033084 37,136.033084 L37.0969885,146.303188 C37.0969885,146.303188 40.1281918,150.751375 44.7823919,150.228842 C49.4370081,149.705061 49.130641,145.327599 49.0061793,141.306674" id="Fill-577" fill="#D3A784"></path>
                <path d="M30.7554689,146.638173 C30.7554689,146.638173 31.2291725,150.248477 35.9737009,149.940199 C40.7182292,149.634417 39.7196221,146.338216 39.7004742,144.327961 C39.6834075,142.318123 40.3186199,135.056328 38.2681245,132.131225 C36.2180453,129.203626 32.08417,128.949848 30.617687,132.020145 C29.1516202,135.090027 30.7554689,146.638173 30.7554689,146.638173" id="Fill-578" fill="#E3BC96"></path>
                <path d="M39.7004742,144.401101 C39.6834075,142.391263 40.3186199,135.129468 38.2681245,132.204365 C37.8764241,131.645222 37.4077156,131.183845 36.8973812,130.824395 C37.714499,132.865436 38.2831098,135.004244 38.534947,137.185486 C38.7659711,139.19158 39.422829,144.678177 37.4622456,146.153417 C35.3846933,147.712696 34.60046,145.417877 34.4435301,143.642679 C34.1883629,140.761259 33.8636803,137.691794 32.7272913,134.998419 C32.1948951,133.73369 31.5933998,132.53178 31.1442555,131.272459 C30.9477809,131.51542 30.7662917,131.783759 30.617687,132.093285 C29.1516202,135.163167 30.7554689,146.711313 30.7554689,146.711313 C30.7554689,146.711313 31.2291725,150.321617 35.9737009,150.013339 C40.7182292,149.707557 39.7196221,146.411356 39.7004742,144.401101" id="Fill-579" fill="#D3A784"></path>
                <path d="M24.097024,148.110816 C24.097024,148.110816 27.99155,150.946473 31.4023822,149.191661 C34.8157119,147.434352 33.3583866,142.06258 32.4484429,138.766378 C31.5393316,135.471425 31.329953,132.026285 29.9121724,130.817719 C28.4943917,129.611234 24.536178,129.359952 23.9350989,130.874299 C23.3323548,132.388647 22.0923171,140.804091 24.097024,148.110816" id="Fill-580" fill="#E3BC96"></path>
                <path d="M32.4484429,139.513171 C31.5393316,136.218218 31.329953,132.773078 29.9121724,131.564512 C29.5375386,131.244585 28.9818319,130.996216 28.3599398,130.824395 C28.63592,131.9639 29.052596,133.087596 29.297773,133.950025 C30.0058308,136.431225 31.2350458,138.975245 31.4585772,141.575013 C31.7237347,144.662784 30.5823505,148.35879 26.9550633,148.5044 C23.6845106,148.635033 23.0959193,142.447427 23.0334804,140.367279 C22.9389894,137.255795 23.2632557,134.073586 24.3059864,131.134753 C24.1374012,131.270379 24.0100257,131.431799 23.9350989,131.621092 C23.3323548,133.135439 22.0923171,141.550883 24.097024,148.857609 C24.097024,148.857609 27.99155,151.693266 31.4023822,149.938453 C34.8157119,148.181145 33.3583866,142.809372 32.4484429,139.513171" id="Fill-581" fill="#D3A784"></path>
                <g id="head" transform="translate(57.000000, 0.824395)">
                    <path d="M4.07951637,50.1171189 C4.07951637,50.1171189 5.28193325,41.5000613 5.68986778,34.9729749 C5.68986778,34.9729749 11.379735,10.3637419 37.9324517,4.6846879 C64.4851685,-0.994366088 71.3823332,-1.31974844 94.8319024,6.54658397 C106.210866,10.363742 114.732976,11.9242816 117.590602,29.2939209 L121.626268,54.3949618 C121.626268,54.3949618 123.258839,75.6066403 121.626268,84.581228 L112.646713,109.056242 L25.7108693,109.056242 L13.6705567,105.384782 L9.58954634,88.0488337 L4.07951633,87.2329999 C4.07951633,87.2329999 1.42669313,66.2299403 4.07951637,50.1171189 Z" id="Fill-512" fill="#8E5C3A"></path>
                    <path d="M97.5456429,65.4105901 C97.5456429,65.4105901 98.6154304,56.332827 93.9737182,53.4260291 C89.3315897,50.5200633 92.4435474,55.0086052 92.4435474,55.0086052 L97.5456429,65.4105901" id="Fill-513" fill="#774E32"></path>
                    <path d="M89.7903079,62.7592343 C89.7903079,62.7592343 90.811393,54.8584186 84.8930122,52.3572494 C78.9742152,49.8564963 81.6278709,53.5807921 81.6278709,53.5807921 L89.7903079,62.7592343" id="Fill-514" fill="#774E32"></path>
                    <path d="M82.852507,62.7592343 C82.852507,62.7592343 80.8111693,53.621147 72.6483161,52.7125386 C64.4854629,51.8035142 88.7192716,71.324033 88.7192716,71.324033 L82.852507,62.7592343" id="Fill-515" fill="#774E32"></path>
                    <path d="M52.1895668,50.7235017 C52.1895668,50.7235017 50.3409573,56.4767732 57.751213,57.8642315 C65.1610524,59.2521058 52.1895668,50.7235017 52.1895668,50.7235017" id="Fill-516" fill="#774E32"></path>
                    <path d="M31.2974911,52.3572494 C28.4402843,53.9685316 29.3185924,58.4379362 30.3030466,60.8197049 C30.8833127,62.2246364 32.813509,63.5750681 33.5165717,64.6442638 C34.1925775,64.5494091 34.7882452,63.8588002 35.4571745,63.7348234 C33.199798,60.5089309 32.1791292,56.1285566 31.2974911,52.3572494" id="Fill-517" fill="#774E32"></path>
                    <path d="M43.2616282,55.2132917 C41.7310411,53.7322268 42.3129722,50.9989132 41.8176232,51.3920611 C41.0550354,51.9990481 40.0630884,54.1403517 40.6421057,55.9758738 C41.2202905,57.8118118 45.0702767,61.6638287 48.8224419,61.7374659 C49.040562,61.7416262 49.1924968,61.8431374 49.2899015,61.9800111 C49.4780509,61.9529692 49.6666166,61.9263433 49.8539335,61.8934769 C49.5026102,61.9550493 48.239262,60.3903625 47.9903387,60.1236876 C47.4221441,59.5171166 46.9284601,58.8414848 46.2786787,58.3530662 C44.9083516,57.319649 44.4771066,56.388991 43.2616282,55.2132917" id="Fill-518" fill="#774E32"></path>
                    <path d="M111.805869,80.4945706 C110.828907,83.5794291 110.266124,88.5518133 106.973926,90.2063625 C102.455426,92.4774674 96.1761484,90.8021167 91.3158998,90.8021167 C83.8602718,90.8021167 76.3975675,90.904876 68.9498484,90.4946709 C54.5247839,89.6996386 40.1442591,87.6631743 25.8024464,85.9765909 C20.9043182,85.4003901 17.4156455,83.690925 14.8852026,79.4544969 C13.3321375,76.8534806 11.7095571,74.3731129 8.5821978,73.5705921 C6.84847604,73.1254406 4.88373013,72.8579336 3.16041486,73.3126538 C3.50715921,81.2891868 4.07951633,87.2329999 4.07951633,87.2329999 L9.58954634,88.0488337 L13.6705567,105.384782 L25.7108693,109.056242 L112.646713,109.056242 L121.626268,84.581228 C122.217357,81.3282936 122.380114,76.4661572 122.346814,71.5907078 C118.833165,74.7454593 113.40722,75.433156 111.805869,80.4945706" id="Fill-520" fill="#774E32"></path>
                    <path d="M10.2014481,77.2408041 C6.73192331,76.4245543 0.202473237,77.0365336 0.202473237,86.2149758 C0.202473237,95.3930019 4.89580166,99.6764413 9.48714644,99.8802957 C9.48714644,99.8802957 12.2423696,139.652713 30.6089975,142.10063 C48.9756254,144.548132 58.3635311,144.955841 58.3635311,144.955841 C58.3635311,144.955841 59.7925507,149.443135 65.7096827,149.443135 C71.6276472,149.443135 73.4646014,143.731882 73.4646014,143.731882 C73.4646014,143.731882 108.584851,145.785819 110.217838,137.423211 C111.851657,129.060603 118.156743,107.631341 119.177828,105.999257 C120.197665,104.367174 129.99184,103.143631 128.564485,92.1296667 C127.136714,81.1161186 122.442137,77.8519514 118.768645,78.2600763 C115.095153,78.6686172 112.849848,102.735506 111.422077,103.143631 C109.994723,103.551756 105.912047,105.591132 105.299729,102.531652 C104.687411,99.4725869 101.831453,55.0086052 101.831453,55.0086052 C101.831453,55.0086052 102.03542,60.7194418 97.5456429,65.4105901 C97.5456429,65.4105901 95.9122397,55.4163141 92.4435474,55.0086052 C92.4435474,55.0086052 92.8514819,61.1275667 89.7903079,62.7592343 C89.7903079,62.7592343 87.9546025,52.9692288 81.6278709,53.5807921 C81.6278709,53.5807921 86.9339337,60.1078785 82.852507,62.7592343 C82.852507,62.7592343 75.9130411,53.7301467 71.0153292,53.5537502 C71.0153292,53.5537502 74.0773357,62.9630887 71.832447,63.3712136 C69.5871421,63.7797546 64.4542434,58.9841829 54.0777209,52.3572494 C54.0777209,52.3572494 53.4654028,56.4364184 57.751213,57.8642315 C57.751213,57.8642315 53.4654028,60.312565 43.2616282,55.2132917 C43.2616282,55.2132917 44.0783297,59.4958991 47.3430548,61.5356916 C47.3430548,61.5356916 34.6900079,61.9438165 31.8332174,54.8047508 C31.8332174,54.8047508 29.3843614,58.2719404 33.0578535,63.5750681 C33.0578535,63.5750681 22.2413445,61.3318372 21.4254754,53.989333 C21.4254754,53.989333 17.7532321,62.3511094 22.242177,103.75561 C22.242177,103.75561 19.1951558,105.135996 18.7730684,103.143631 C18.7730684,103.143631 13.6713892,78.0570539 10.2014481,77.2408041 Z" id="Fill-524" fill="#E3BC96"></path>
                    <path d="M124.73781,102.121863 C121.786944,102.245423 118.065582,103.308795 116.55456,106.112001 C115.252083,108.527052 114.114029,112.786362 113.466329,116.376696 C112.311624,122.776062 110.816835,128.624188 107.679902,134.255979 C104.958812,139.140997 99.9058355,140.735638 94.7762669,141.058061 C90.0862686,141.352609 90.6515493,141.698746 85.9586371,141.931722 C83.6400704,142.046547 81.3198387,142.151802 78.9983582,142.181756 C77.0615017,142.20547 74.4324053,141.751166 72.567978,142.379786 C70.0795773,143.219334 70.2294308,145.331931 68.2634361,146.400295 C67.3859606,146.875817 66.1238611,146.548818 65.1993483,146.483917 C62.4316374,146.285471 62.0740703,144.081763 59.8391718,143.035033 C56.3434226,141.397957 51.0061404,142.184252 47.2073541,141.897192 C43.0655698,141.585586 38.8967287,141.221976 34.8165508,140.414463 C29.527971,139.366069 22.9673014,137.089555 20.6653851,131.339612 C17.6658176,123.851082 15.0192382,116.435356 13.8179126,108.492522 C13.2413929,104.67878 12.95459,98.86768 7.96446836,98.5897723 C6.83890206,98.5273679 5.76620075,98.3472272 4.74178556,98.0464378 C6.19203445,99.2017517 7.8441693,99.8074906 9.48714644,99.8802957 C9.48714644,99.8802957 12.2423696,139.652713 30.6089975,142.10063 C48.9756254,144.548132 58.3635311,144.955841 58.3635311,144.955841 C58.3635311,144.955841 59.7925507,149.443135 65.7096827,149.443135 C71.6276472,149.443135 73.4646014,143.731882 73.4646014,143.731882 C73.4646014,143.731882 103.220095,145.953063 108.968642,139.661034 C114.171889,133.966006 119.177828,105.999257 119.177828,105.999257 C119.714387,105.11353 122.852153,104.372582 125.370941,102.094405 C125.17738,102.091076 124.936782,102.113542 124.73781,102.121863" id="Fill-525" fill="#D3A784"></path>
                    <path d="M22.1331169,58.3297685 C24.3413748,60.4515188 25.9477211,62.8561691 29.0034837,63.912884 C29.9617136,64.2448755 35.691945,65.5474638 34.3603302,63.7077815 C33.4324872,62.4268267 32.4072395,61.2228374 32.2927681,59.5961622 C32.2648787,59.2055105 32.7052815,58.8905762 33.0674275,59.0062324 C37.4664602,60.4078357 41.5166674,62.6298491 46.2204023,62.8083257 C46.7278229,62.8274631 50.678544,63.1411493 49.5425712,62.0045568 C48.8037102,61.2644404 48.0153142,60.58132 47.3759393,59.7521733 C47.0354388,59.310766 47.5936431,58.7129316 48.0669304,58.8531336 C49.9550846,59.4131092 51.7945363,60.1428249 53.6914319,60.6699343 C54.8827672,61.0002617 56.1215562,61.3630394 57.3636752,61.4196194 C57.8232259,61.4408369 62.318831,61.7915497 60.1746771,59.2637547 C59.664759,58.6625921 60.4414996,57.8771284 61.0409136,58.3984134 C63.9405789,60.919552 67.6769262,63.6512014 71.4948604,64.5119664 C76.9553555,65.7442457 75.3315263,60.8159606 74.2517486,57.7697928 C74.0448675,57.1881836 74.8686455,56.7380398 75.2744987,57.1744547 C77.5610134,59.6331888 79.6739478,61.7749085 81.6245408,64.4828444 C84.6436726,68.6739252 85.8266828,61.6055845 85.8620649,59.748845 C85.8724714,59.1822129 86.7374591,58.8581259 87.0026165,59.4401512 C87.3252178,60.1482333 87.5637346,60.8438346 87.7847685,61.5918556 C88.0840593,62.6086316 89.2703995,66.9216091 91.7608815,64.1092499 C92.8710461,62.8557531 93.4546423,61.3451501 93.8430126,59.7392763 C93.9787133,59.1763885 94.9194603,59.1310413 95.0239415,59.7392763 C95.2570469,61.1071812 95.2428941,62.4089375 95.1625559,63.7914034 C95.0047935,66.5542551 98.364842,66.3204465 100.128118,65.1726212 C100.979369,64.6176379 101.720728,63.9286931 102.363017,63.1482218 C102.042497,58.3048067 101.831453,55.0086052 101.831453,55.0086052 C101.831453,55.0086052 102.03542,60.7194418 97.5456429,65.4105901 C97.5456429,65.4105901 95.9122397,55.4163141 92.4435474,55.0086052 C92.4435474,55.0086052 92.8514819,61.1275667 89.7903079,62.7592343 C89.7903079,62.7592343 87.9546025,52.9692288 81.6278709,53.5807921 C81.6278709,53.5807921 86.9339337,60.1078785 82.852507,62.7592343 C82.852507,62.7592343 75.9130411,53.7301467 71.0153292,53.5537502 C71.0153292,53.5537502 74.0773357,62.9630887 71.832447,63.3712136 C69.5871421,63.7797546 64.4542434,58.9841829 54.0777209,52.3572494 C54.0777209,52.3572494 53.4654028,56.4364184 57.751213,57.8642315 C57.751213,57.8642315 53.4654028,60.312565 43.2616282,55.2132917 C43.2616282,55.2132917 44.0783297,59.4958991 47.3430548,61.5356916 C47.3430548,61.5356916 34.6900079,61.9438165 31.8332174,54.8047508 C31.8332174,54.8047508 29.3843614,58.2719404 33.0578535,63.5750681 C33.0578535,63.5750681 22.2413445,61.3318372 21.4254754,53.989333 C21.4254754,53.989333 21.0350238,54.8896208 20.6653851,57.5222553 C21.2256707,57.630839 21.7913677,58.0023533 22.1331169,58.3297685" id="Fill-526" fill="#D3A784"></path>
                    <path d="M18.7730684,103.143631 C18.7730684,103.143631 13.6713892,78.0570539 10.2014481,77.2408041 C7.50783144,76.6067752 2.98059065,76.8543127 1.08577638,81.2858586 C1.77093989,80.82573 2.54060412,80.4933225 3.34856425,80.2994527 C6.43887647,78.3898775 9.59787153,79.4416 11.5630337,82.9341674 C12.8854909,85.2843178 13.3329701,87.8495555 13.6693079,90.4339306 C14.1396814,91.9620069 14.5967346,93.4954915 14.9821911,95.0397929 C15.6369676,97.6582823 16.1073411,100.907056 17.7415768,103.125326 C18.668171,104.382151 19.2763264,104.533169 19.6813472,104.14127 C19.2496858,104.017293 18.8966976,103.728152 18.7730684,103.143631" id="Fill-527" fill="#D3A784"></path>
                    <path d="M118.768645,78.2600763 C115.095153,78.6686172 112.849848,102.735506 111.422077,103.143631 C109.994723,103.551756 105.912047,105.591132 105.299729,102.531652 C105.242285,102.244591 105.164861,101.582688 105.071619,100.635805 C104.687411,102.596968 104.567944,104.612215 106.024854,105.822861 C106.319565,106.067902 106.638837,106.262604 106.970179,106.433592 C110.67614,107.093415 112.361992,104.858504 113.871349,101.816081 C115.20338,96.453877 115.207959,90.19929 117.305492,84.9290287 C118.728268,81.3536714 123.678845,80.4716889 125.881275,83.5944061 C126.088989,83.7820354 126.295037,83.9771532 126.495674,84.1797596 C124.394812,79.4923556 121.334886,77.9755121 118.768645,78.2600763" id="Fill-528" fill="#D3A784"></path>
                    <path d="M25.2879494,80.6876082 L38.7651906,70.1462535 C38.7651906,70.1462535 34.6908404,63.3042329 26.7798243,69.1615118 C18.8700569,75.0175426 25.2879494,80.6876082 25.2879494,80.6876082" id="Fill-533" fill="#8E5C3A"></path>
                    <path d="M81.7768919,72.7206439 L97.3050448,78.8670633 C97.3050448,78.8670633 100.232599,72.3487135 93.4966845,68.8340966 C86.7574395,65.3198957 81.7768919,72.7206439 81.7768919,72.7206439" id="Fill-534" fill="#8E5C3A"></path>
                    <path d="M95.6887082,86.2802924 C95.6887082,90.7833954 92.0372779,94.4319738 87.5312664,94.4319738 C83.0273361,94.4319738 79.3738245,90.7833954 79.3738245,86.2802924 C79.3738245,81.7767734 83.0273361,78.1261148 87.5312664,78.1261148 C92.0372779,78.1261148 95.6887082,81.7767734 95.6887082,86.2802924" id="Fill-535" fill="#47413E"></path>
                    <path d="M87.1162554,85.0109865 C86.0822663,86.7466614 84.2440633,87.5612471 83.0119345,86.825707 C81.7831358,86.0959913 81.6212108,84.0953056 82.6547837,82.3563024 C83.6896054,80.6210435 85.5261433,79.808538 86.7557745,80.5403338 C87.9883196,81.2746258 88.1519096,83.2765596 87.1162554,85.0109865" id="Fill-536" fill="#FFFFFF"></path>
                    <path d="M46.9222162,85.4623784 C46.9222162,89.9658975 43.2712021,93.6144759 38.7651906,93.6144759 C34.2612603,93.6144759 30.6073325,89.9658975 30.6073325,85.4623784 C30.6073325,80.9588594 34.2612603,77.3090329 38.7651906,77.3090329 C43.2712021,77.3090329 46.9222162,80.9588594 46.9222162,85.4623784" id="Fill-537" fill="#47413E"></path>
                    <path d="M38.3505959,84.1939046 C37.317023,85.9291635 35.4775713,86.7441652 34.2454425,86.0086251 C33.01706,85.2780774 32.855135,83.2769756 33.8882916,81.5388045 C34.9243621,79.8031296 36.7596512,78.9910401 37.990115,79.7232519 C39.22266,80.4575439 39.3854176,82.4582296 38.3505959,84.1939046" id="Fill-538" fill="#FFFFFF"></path>
                    <path d="M51.4919155,79.5360387 C51.4919155,79.5360387 47.1861249,106.538847 54.2900134,111.809525 C61.3943181,117.08145 71.297137,116.112934 76.2485465,109.551317 C81.1999559,102.988452 77.5406167,87.1040307 73.9878399,81.7060484 C70.4363119,76.308066 56.658115,69.9607044 51.4919155,79.5360387" id="Fill-539" fill="#D3A784"></path>
                    <path d="M52.6491175,78.0545577 C52.6491175,78.0545577 48.5672746,103.652435 55.3015245,108.648949 C62.0357744,113.645463 71.4232637,112.728118 76.1170084,106.507229 C80.8111693,100.285924 77.3416445,85.2289859 73.9745196,80.1118234 C70.6073947,74.995077 57.5464132,68.9784588 52.6491175,78.0545577" id="Fill-540" fill="#E3BC96"></path>
                    <path d="M89.1505167,111.038206 C89.1505167,111.038206 91.7896034,109.820488 93.4400732,111.196297 C95.0901268,112.571275 94.6534703,113.401254 94.8449498,114.285316 C95.0368455,115.169795 96.1428476,115.094909 96.3846945,114.205438 C96.6273739,113.314719 96.8047006,110.76113 93.3930358,109.350375 C89.9826199,107.938787 88.6027189,109.755587 88.6027189,109.755587 C88.6027189,109.755587 87.9208855,110.98537 89.1505167,111.038206" id="Fill-541" fill="#D3A784"></path>
                    <path d="M119.62947,97.6062787 C119.62947,97.6062787 117.173954,86.0273465 122.087068,88.4182678 C125.104118,89.8839397 124.987982,93.6494224 123.456146,95.7819894 C122.490007,97.1203562 120.873254,97.8446636 119.62947,97.6062787" id="Fill-542" fill="#D3A784"></path>
                    <path d="M119.626973,97.4606684 L119.154102,94.4856416 C119.154102,94.4856416 124.943442,89.2170444 124.380242,93.6269568 C123.817459,98.0377012 119.626973,97.4606684 119.626973,97.4606684" id="Fill-543" fill="#C4987A"></path>
                    <path d="M9.87177043,94.1478257 C9.87177043,94.1478257 9.78560467,82.3117873 5.50021078,85.7003473 C2.86861679,87.7784145 3.7893833,91.4311532 5.74413898,93.1859656 C6.97460273,94.2863635 8.70915702,94.6474771 9.87177043,94.1478257" id="Fill-544" fill="#D3A784"></path>
                    <path d="M9.84304851,94.0051276 L9.66738691,90.9972345 C9.66738691,90.9972345 2.88110458,87.0927979 4.37839082,91.2793025 C5.87484454,95.4666391 9.84304851,94.0051276 9.84304851,94.0051276" id="Fill-545" fill="#C4987A"></path>
                    <path d="M36.6593326,121.240913 C36.6593326,121.240913 50.4903946,123.609785 64.8834072,121.240913 C79.276836,118.871625 92.1147022,113.286013 92.1147022,113.286013 C92.1147022,113.286013 86.7258038,117.561132 83.868597,123.73501 C81.0113903,129.908055 75.8934769,135.03853 67.0396325,135.831066 C53.4612402,137.047536 36.6593326,121.240913 36.6593326,121.240913" id="Fill-546" fill="#5B1313"></path>
                    <path d="M79.4204456,123.360583 C74.4182525,121.788824 67.8700707,122.644596 63.5642801,125.747344 C60.5372393,127.929003 58.6561616,131.056296 56.6235654,134.085823 C60.0893439,135.383003 63.6641824,136.134768 67.0396325,135.831066 C75.1858354,135.101767 80.1634692,130.698095 83.1330661,125.191113 C81.9367356,124.404817 80.701693,123.7633 79.4204456,123.360583" id="Fill-547" fill="#7F2E2E"></path>
                </g>
                <g id="Group-4" transform="translate(12.000000, 157.000000)">
                    <g id="Group-3">
                        <mask id="mask-2" fill="white">
                            <use xlink:href="#path-1"></use>
                        </mask>
                        <g id="Clip-2"></g>
                        <path d="M16.2054829,1.08775345 C7.8228009,1.08775345 1.00243167,7.92185752 1.00243167,16.3225934 C1.00243167,24.7160441 7.8228009,31.5445188 16.2054829,31.5445188 C24.5884953,31.5445188 31.408534,24.7160441 31.408534,16.3225934 C31.408534,7.92185752 24.5884953,1.08775345 16.2054829,1.08775345 L16.2054829,1.08775345 Z M16.2054829,32.5488718 C7.26986052,32.5488718 0,25.2700443 0,16.3225934 C0,7.36818847 7.26986052,0.0834004229 16.2054829,0.0834004229 C25.1411052,0.0834004229 32.4109657,7.36818847 32.4109657,16.3225934 C32.4109657,25.2700443 25.1411052,32.5488718 16.2054829,32.5488718 L16.2054829,32.5488718 Z" id="Fill-1" fill="#D0011B" mask="url(#mask-2)"></path>
                    </g>
                    <path d="M23.3958309,12.4869513 C23.6068322,12.3856707 24.907576,11.6273356 24.907576,11.464271 C24.907576,11.3982553 24.9029828,11.0853856 24.907576,10.7809795 C24.907576,10.6356884 25.2888137,10.1905051 25.4053668,10.0009213 C25.5130205,9.82882893 24.9434606,9.91938904 24.7100674,10.0494458 C23.5887464,10.6994472 23.328655,10.9000336 23.328655,11.0190877 C23.328655,11.1271392 23.3105692,11.8169194 23.3105692,12.0485388 C23.2970766,12.3678972 23.2881772,12.5464784 23.3958309,12.4869513 M21.0498414,14.1136477 C21.2516562,13.9991075 22.5480939,13.2077646 22.5480939,13.0291834 C22.5480939,12.9256459 22.5615865,12.0065032 22.5615865,11.7729089 C22.5615865,11.5458033 22.5885717,11.2792012 22.3551784,11.4267492 C21.2384507,12.1410738 20.9780722,12.3678972 20.9780722,12.4869513 C20.9780722,12.6127762 20.9602735,13.3753431 20.9556803,13.6309426 C20.9513741,13.983591 20.9332883,14.1731748 21.0498414,14.1136477 M27.0471576,10.4616212 C26.9082125,10.6994472 26.8137643,10.5981666 26.4684112,10.6509228 C26.2037267,10.6994472 26.028897,10.7919822 25.9347359,10.8737966 C25.7553131,11.0190877 25.2799143,11.4312631 25.0195359,11.6693713 C24.6652834,11.9890118 24.6833693,12.103552 24.8627921,12.103552 C25.2170446,12.103552 26.1859279,12.1410738 26.2935816,12.0485388 C26.4684112,11.891963 27.1502181,11.1336279 27.5001644,10.646691 C27.6841804,10.3800889 27.2265804,10.1484694 27.0471576,10.4616212 M22.5615865,13.7830046 C23.0191865,13.8137555 24.6159063,13.8580482 24.7370526,13.7655132 C24.929968,13.6309426 25.7283279,13.0181808 26.0693748,12.6985403 C26.2622903,12.5199592 26.1589427,12.5464784 24.7594445,12.4869513 C24.4140915,12.4717169 24.0193612,12.4717169 23.9163007,12.5464784 C23.7144859,12.6723033 22.9204322,13.2032507 22.6379488,13.4193536 C22.2475247,13.7124749 22.2567112,13.7655132 22.5615865,13.7830046 M20.7943432,15.2816191 C21.24735,15.3324005 22.6962254,15.4449659 22.8173717,15.3699223 C23.0280859,15.2443795 23.8129532,14.7791657 24.1809853,14.4928152 C24.3828001,14.3297506 24.3245236,14.2964606 22.9563167,14.1511695 C22.6152698,14.1181616 22.1757556,14.0916425 22.0637957,14.1511695 C21.8484883,14.2702236 21.1979729,14.6934016 20.8974037,14.8872172 C20.4891809,15.1518445 20.5026735,15.2443795 20.7943432,15.2816191 M19.2691055,15.8681439 C19.4442222,15.7313163 19.8883296,15.4184467 20.1079432,15.2443795 C20.33215,15.0722871 20.5655432,14.7791657 20.5655432,14.649109 C20.5655432,14.5300549 20.5744426,13.4413589 20.5744426,13.1747567 C20.5744426,12.9058976 20.5879352,12.7470647 20.4532963,12.8353679 C20.1438278,13.0447 19.1973364,13.9725884 19.1973364,14.1181616 C19.1973364,14.259221 19.1973364,15.0502818 19.188437,15.3524309 C19.188437,15.7643242 19.1703512,15.9386736 19.2691055,15.8681439 M26.3159736,22.8615843 C25.9571279,22.993898 25.0017372,23.7257139 24.082231,23.7477191 C23.3823383,23.7519509 22.4226414,23.5183566 21.4896426,21.9977369 C21.1709877,21.4687643 19.9466062,19.4321494 18.5829926,17.2059508 C18.5829926,17.1199046 18.5872987,17.0914106 18.8295913,17.0914106 C19.1436531,17.0914106 19.166045,17.0603775 19.5966599,17.0318835 C20.0183753,17.0053644 20.3726278,16.9723565 20.8885043,16.6747213 C21.4086871,16.377086 21.911071,16.0907356 21.9380562,15.9649106 C21.9650414,15.8461386 22.0457099,15.7600924 21.7540401,15.7600924 C21.4669636,15.7600924 20.2560747,15.7600924 20.2290895,15.775609 C20.0137821,15.8791465 19.0942759,16.3660834 18.9777228,16.5336619 C18.8519833,16.6967265 18.6142839,16.8312971 18.6142839,16.7452509 C18.6142839,16.7452509 18.6007913,16.8157806 18.5738061,16.2470293 C18.5425148,15.6785601 18.5649067,15.6012596 18.6501685,15.5264982 C18.7397364,15.4559685 18.7041389,15.1628472 18.7041389,14.9732634 C18.7041389,14.772677 18.730837,14.5235662 18.5201228,14.6866308 C18.3091215,14.8432067 17.9861604,15.2068577 17.8876932,15.3434031 C17.8248234,15.4339632 17.6365012,15.3964414 17.4435857,15.3854388 C15.7435184,12.7163138 14.1915826,10.7437399 12.4958214,10.3600584 C11.8186078,10.1969938 10.47308,10.1309781 8.69665033,11.3675043 C8.08661266,11.7949141 7.79522996,12.0175058 7.77255092,12.1673108 C7.7458528,12.315141 7.8535065,12.4231925 8.05962747,12.3041384 C8.25713613,12.1785956 9.60725715,11.1889232 11.1233084,11.5393146 C12.6439529,11.891963 13.1509301,12.6723033 13.72049,13.3598266 C13.9670887,13.6529479 15.2276418,15.3919275 16.5866622,17.4925834 C16.6093413,17.6643937 16.6854166,17.7659564 16.3489629,18.0260698 C15.9677252,18.3256799 11.2984251,21.6538342 8.86258058,24.8541887 C8.49483552,25.3346368 8.93434972,25.7445553 9.24381824,25.4624366 C9.65204109,25.0790373 10.0108868,24.4044915 10.2577726,24.1663833 C10.4997781,23.9282751 11.3162239,22.720525 12.347977,22.1210227 C13.3840362,21.5260344 13.6128363,21.47751 13.6309221,21.8081531 C13.6487208,22.1297684 12.7785918,23.4258217 12.5945757,25.5329663 C12.554385,26.026674 12.6574455,26.2470087 12.7292146,26.1632194 C12.805577,26.088458 13.1687288,25.5151928 13.3481517,25.3036038 C13.5321677,25.0965286 14.1287128,24.57207 14.1422054,24.417751 C14.155698,24.2721778 14.9316659,22.174061 15.115682,21.8036392 C15.2948178,21.4289856 15.4205573,20.7942185 15.8152875,20.3755543 C15.9499264,20.234495 16.0934647,19.9963868 15.7254326,19.9523763 C15.3622808,19.9080837 14.7209517,20.62664 14.2811505,20.5075859 C14.0839289,20.4593436 14.6939665,19.7980574 15.0304203,19.5114248 C15.3622808,19.2380518 15.5328042,19.110252 15.9588258,18.8724259 C16.3805413,18.6343177 16.8335481,18.4094691 17.0218703,18.4359883 C17.0758407,18.4359883 17.129524,18.4492479 17.1878005,18.444734 C18.7041389,20.8867534 19.942013,23.1702222 20.5026735,23.7257139 C21.1216105,24.3339618 21.5522253,24.9247183 22.9204322,24.7393664 C23.8982149,24.598307 24.1717988,24.5057721 26.3831495,23.2407518 C26.7913724,23.0026437 26.6794125,22.7337845 26.3159736,22.8615843" id="Fill-4" fill="#D0011B"></path>
                </g>
                <path d="M21.923204,208.939733 C21.923204,205.189733 15.488204,206.749733 15.488204,204.484733 C15.488204,203.704733 16.223204,203.209733 17.618204,203.209733 C18.923204,203.209733 19.718204,203.629733 20.048204,204.499733 C20.258204,204.964733 20.528204,205.234733 21.143204,205.234733 C21.878204,205.234733 22.193204,204.784733 22.193204,204.154733 C22.193204,202.624733 20.633204,201.094733 17.753204,201.094733 C15.068204,201.094733 13.313204,202.399733 13.313204,204.634733 C13.313204,208.864733 19.658204,207.544733 19.658204,209.074733 C19.658204,209.539733 19.103204,209.809733 18.023204,209.809733 C17.063204,209.809733 16.388204,209.569733 15.818204,209.299733 C15.398204,209.104733 15.053204,208.924733 14.723204,208.924733 C14.093204,208.924733 13.733204,209.434733 13.733204,209.944733 C13.733204,210.394733 13.973204,210.754733 14.483204,211.069733 C15.233204,211.579733 16.343204,211.939733 17.813204,211.939733 C20.393204,211.939733 21.923204,210.769733 21.923204,208.939733 L21.923204,208.939733 Z M24.5317405,203.134733 C25.3417405,203.134733 25.9417405,202.579733 25.9417405,201.784733 C25.9417405,200.914733 25.3417405,200.374733 24.5317405,200.374733 C23.7067405,200.374733 23.1217405,200.914733 23.1217405,201.784733 C23.1217405,202.579733 23.7067405,203.134733 24.5317405,203.134733 L24.5317405,203.134733 Z M24.5317405,211.804733 C25.3117405,211.804733 25.6717405,211.444733 25.6717405,210.544733 L25.6717405,205.534733 C25.6717405,204.799733 25.3117405,204.304733 24.5317405,204.304733 C23.8267405,204.304733 23.3617405,204.799733 23.3617405,205.534733 L23.3617405,210.544733 C23.3617405,211.294733 23.8417405,211.804733 24.5317405,211.804733 L24.5317405,211.804733 Z M31.1602771,204.199733 C30.4102771,204.199733 29.6452771,204.469733 29.1202771,204.919733 C28.9702771,204.574733 28.6402771,204.349733 28.2502771,204.349733 C27.5452771,204.349733 27.1552771,204.769733 27.1552771,205.384733 L27.1552771,210.709733 C27.1552771,211.339733 27.5752771,211.804733 28.2652771,211.804733 C29.0002771,211.804733 29.4652771,211.339733 29.4652771,210.709733 L29.4652771,207.514733 C29.4802771,206.659733 30.0052771,206.209733 30.7702771,206.209733 C31.4152771,206.209733 31.9552771,206.569733 31.9552771,207.544733 L31.9552771,210.709733 C31.9552771,211.339733 32.3452771,211.804733 33.0952771,211.804733 C33.8452771,211.804733 34.2652771,211.339733 34.2652771,210.709733 L34.2652771,207.259733 C34.2652771,205.309733 33.3352771,204.199733 31.1602771,204.199733 L31.1602771,204.199733 Z M47.2973502,206.629733 L44.6423502,206.629733 C44.0723502,206.629733 43.6523502,207.004733 43.6523502,207.499733 C43.6523502,207.964733 44.0573502,208.339733 44.6423502,208.339733 L46.1873502,208.339733 L46.1873502,208.354733 C46.1123502,209.239733 45.2123502,209.839733 43.8623502,209.839733 C42.0323502,209.839733 40.9523502,208.639733 40.9523502,206.644733 C40.9523502,204.529733 42.0923502,203.269733 44.0123502,203.269733 C45.4823502,203.269733 46.2023502,203.839733 46.5473502,204.619733 C46.7873502,205.084733 47.0423502,205.399733 47.6573502,205.399733 C48.2123502,205.399733 48.6773502,204.994733 48.6773502,204.349733 C48.6773502,202.714733 46.8923502,201.139733 44.0573502,201.139733 C41.0423502,201.139733 38.5673502,203.164733 38.5673502,206.689733 C38.5673502,210.034733 40.8023502,211.954733 43.4723502,211.954733 C45.0173502,211.954733 46.1123502,211.399733 46.7273502,210.709733 L46.7273502,210.994733 C46.7273502,211.549733 47.0873502,211.804733 47.6423502,211.804733 C48.2573502,211.804733 48.4823502,211.504733 48.4823502,210.994733 L48.4823502,207.709733 C48.4823502,207.124733 48.1073502,206.644733 47.2973502,206.629733 L47.2973502,206.629733 Z M52.3508868,210.469733 L52.3508868,201.529733 C52.3508868,200.719733 52.0058868,200.194733 51.1958868,200.194733 C50.4908868,200.194733 50.0408868,200.719733 50.0408868,201.529733 L50.0408868,210.469733 C50.0408868,211.279733 50.4908868,211.804733 51.1958868,211.804733 C52.0058868,211.804733 52.3508868,211.414733 52.3508868,210.469733 L52.3508868,210.469733 Z M59.5344234,204.304733 C58.8144234,204.304733 58.4544234,204.739733 58.4544234,205.564733 L58.4544234,208.654733 C58.4394234,209.479733 57.9144234,210.004733 57.1494234,210.004733 C56.5794234,210.004733 56.0994234,209.659733 56.0994234,208.819733 L56.0994234,205.564733 C56.0994234,204.769733 55.7544234,204.304733 54.9444234,204.304733 C54.2544234,204.304733 53.8494234,204.739733 53.8494234,205.564733 L53.8494234,208.924733 C53.8494234,211.009733 55.1544234,211.894733 56.8044234,211.894733 C57.5844234,211.894733 58.2444234,211.594733 58.7394234,211.054733 C58.8444234,211.549733 59.1594234,211.819733 59.6544234,211.819733 C60.3444234,211.819733 60.7194234,211.399733 60.7194234,210.679733 L60.7194234,205.564733 C60.7194234,204.769733 60.2844234,204.304733 59.5344234,204.304733 L59.5344234,204.304733 Z M66.7929599,206.164733 C67.3479599,206.164733 67.6929599,205.759733 67.6929599,205.294733 C67.6929599,204.814733 67.3479599,204.424733 66.7929599,204.424733 L65.3079599,204.424733 L65.3079599,203.809733 C65.3079599,203.029733 64.8729599,202.534733 64.1829599,202.534733 C63.4929599,202.534733 62.9979599,203.044733 62.9979599,203.809733 L62.9979599,204.424733 L62.3829599,204.424733 C61.9479599,204.424733 61.4829599,204.619733 61.4829599,205.294733 C61.4829599,205.879733 61.9479599,206.164733 62.3829599,206.164733 L62.9979599,206.164733 L62.9979599,209.404733 C62.9979599,211.009733 63.8979599,211.834733 65.4429599,211.834733 C65.9529599,211.834733 66.3879599,211.774733 66.8229599,211.594733 C67.1079599,211.474733 67.4379599,211.189733 67.4379599,210.694733 C67.4379599,210.094733 67.1079599,209.794733 66.7329599,209.794733 C66.5979599,209.794733 66.5379599,209.794733 66.4179599,209.824733 C66.2979599,209.869733 66.1029599,209.899733 65.8929599,209.899733 C65.5629599,209.899733 65.3079599,209.584733 65.3079599,209.074733 L65.3079599,206.164733 L66.7929599,206.164733 Z M71.8614965,204.169733 C69.7464965,204.169733 68.1714965,205.594733 68.1714965,208.024733 C68.1714965,210.484733 69.7914965,211.939733 71.9514965,211.939733 C72.7764965,211.939733 73.5564965,211.759733 74.0964965,211.414733 C74.4714965,211.189733 74.7414965,210.934733 74.7414965,210.514733 C74.7414965,210.094733 74.5014965,209.674733 73.8714965,209.674733 C73.6464965,209.674733 73.5114965,209.719733 73.3314965,209.809733 C73.0314965,209.974733 72.6114965,210.109733 72.1164965,210.109733 C71.3214965,210.109733 70.7214965,209.734733 70.4514965,209.029733 L74.4864965,209.044733 C75.0414965,209.044733 75.2064965,208.789733 75.2664965,208.444733 C75.3114965,208.234733 75.3264965,207.994733 75.3264965,207.799733 C75.3264965,205.474733 74.0064965,204.169733 71.8614965,204.169733 L71.8614965,204.169733 Z M71.8614965,206.089733 C72.7914965,206.089733 73.2414965,206.599733 73.2864965,207.514733 L70.3164965,207.514733 C70.4664965,206.509733 71.0364965,206.089733 71.8614965,206.089733 L71.8614965,206.089733 Z M80.5300331,204.199733 C79.7800331,204.199733 79.0150331,204.469733 78.4900331,204.919733 C78.3400331,204.574733 78.0100331,204.349733 77.6200331,204.349733 C76.9150331,204.349733 76.5250331,204.769733 76.5250331,205.384733 L76.5250331,210.709733 C76.5250331,211.339733 76.9450331,211.804733 77.6350331,211.804733 C78.3700331,211.804733 78.8350331,211.339733 78.8350331,210.709733 L78.8350331,207.514733 C78.8500331,206.659733 79.3750331,206.209733 80.1400331,206.209733 C80.7850331,206.209733 81.3250331,206.569733 81.3250331,207.544733 L81.3250331,210.709733 C81.3250331,211.339733 81.7150331,211.804733 82.4650331,211.804733 C83.2150331,211.804733 83.6350331,211.339733 83.6350331,210.709733 L83.6350331,207.259733 C83.6350331,205.309733 82.7050331,204.199733 80.5300331,204.199733 L80.5300331,204.199733 Z" id="Sin-Gluten" fill="#365370" transform="translate(48.849119, 206.074733) rotate(-7.000000) translate(-48.849119, -206.074733) "></path>
                <path d="M52.3364161,167.031398 C52.7947518,167.031398 53.0239161,167.339338 53.0239161,167.955226 C53.0239161,168.392077 53.0973203,169.045554 53.244131,169.915676 C53.3909416,170.785797 53.4643458,171.439274 53.4643458,171.876125 C53.4643458,172.105293 53.3676671,172.219875 53.1743068,172.219875 C52.8233935,172.219875 52.6479396,172.058744 52.6479396,171.736476 C52.6479396,171.729315 52.6515203,171.711411 52.6586818,171.682765 C52.6658433,171.654119 52.6694239,171.636216 52.6694239,171.629054 C52.5261941,171.672023 52.339998,171.775864 52.1108302,171.940578 C51.8816624,172.105292 51.7097891,172.205552 51.5952052,172.241359 C51.4806213,172.277167 51.3069577,172.302231 51.0742091,172.316554 C50.8414605,172.330877 50.6713776,172.373846 50.5639552,172.445461 L50.6069239,172.445461 C49.6401222,172.230616 48.9168222,171.894031 48.4370021,171.435695 C48.0502814,171.070459 47.7781487,170.450999 47.6205958,169.577297 C47.348459,168.123513 47.2123927,165.792482 47.2123927,162.584133 C47.2123927,161.32371 47.2481996,160.428536 47.3198146,159.898586 C47.3914295,159.368635 47.4684144,158.901355 47.5507716,158.49673 C47.6331288,158.092106 47.7333882,157.741198 47.8515529,157.443996 C47.9697175,157.146794 48.1183163,156.844225 48.2973536,156.536281 C48.476391,156.228337 48.6769098,155.977688 48.8989161,155.784328 C49.4002207,155.347477 50.0053579,155.129054 50.7143458,155.129054 C51.151197,155.129054 51.3696193,155.254379 51.3696193,155.505031 C51.3696193,155.684068 51.2621985,155.773586 51.0473536,155.773586 L50.4243068,155.655422 C49.2999522,155.655422 48.5730714,156.683081 48.2436427,158.738429 C48.0574438,159.855623 47.9643458,161.316545 47.9643458,163.121242 C47.9213769,164.281404 47.8998927,165.08527 47.8998927,165.532863 C47.8998927,165.980456 47.9034734,166.327784 47.9106349,166.574855 C47.9177964,166.821927 47.9339095,167.131657 47.9589747,167.504054 C47.98404,167.876452 48.0270083,168.211247 48.087881,168.508449 C48.1487537,168.805651 48.2221579,169.126123 48.3080958,169.469875 C48.3940337,169.813626 48.5104063,170.112614 48.6572169,170.366847 C48.8040275,170.62108 48.9741105,170.855616 49.1674708,171.070461 C49.5685145,171.514473 50.1306833,171.736476 50.8539943,171.736476 C51.5773052,171.736476 52.175281,171.371246 52.6479396,170.640773 C52.6479396,169.545065 52.5816967,168.79849 52.4492091,168.401027 C52.3167215,168.003564 52.1931875,167.804836 52.0786036,167.804836 L51.1977443,167.890773 C50.861154,167.890773 50.6928614,167.765449 50.6928614,167.514797 C50.6928614,167.378728 50.9094934,167.264146 51.3427638,167.171047 C51.7760342,167.077947 52.1072483,167.031398 52.3364161,167.031398 L52.3364161,167.031398 Z M56.4024651,171.500148 L58.4757073,171.564601 L58.5401604,171.564601 C58.6189368,171.564601 58.6941314,171.605779 58.7657463,171.688136 C58.8373613,171.770494 58.8731682,171.85464 58.8731682,171.940578 C58.8731682,172.105292 58.7550053,172.19839 58.518676,172.219875 C58.1391168,172.205552 57.530399,172.19839 56.6925041,172.19839 L56.7354729,172.219875 L55.9190666,172.29507 C55.7113833,172.29507 55.5896397,172.126778 55.5538323,171.790187 C55.5824782,171.646957 55.596801,171.40347 55.596801,171.059719 L55.7257073,159.32925 L55.8331291,157.879054 C55.8331291,157.778794 55.8868395,157.728664 55.994262,157.728664 L56.3594963,157.814601 C56.3594963,157.814601 56.3523349,158.394674 56.338012,159.554836 L56.3594963,164.345851 C56.3165274,165.548982 56.2950432,166.164862 56.2950432,166.193508 L56.338012,168.062648 L56.2735588,168.245265 L56.2950432,168.223781 L56.2735588,168.395656 C56.2735588,168.517401 56.295043,168.621242 56.338012,168.707179 L56.2735588,170.812648 L56.2735588,170.952297 C56.2735588,171.181464 56.2807202,171.330063 56.2950432,171.398097 C56.3093662,171.466132 56.3451731,171.500148 56.4024651,171.500148 L56.4024651,171.500148 Z M65.1735922,162.122219 L65.1950765,162.562648 C65.1664306,162.935046 65.1467367,163.436343 65.1359945,164.066554 C65.1252523,164.696766 65.1145102,165.294742 65.1037679,165.8605 C65.0930257,166.426258 65.0733319,167.038556 65.0446859,167.697414 C65.0160399,168.356271 64.9587488,168.947086 64.8728109,169.469875 C64.6722891,170.715975 64.346446,171.546696 63.8952718,171.962062 C63.4082902,172.420398 62.83896,172.466947 62.187264,172.101711 C61.9079658,171.944158 61.6734303,171.74722 61.4836508,171.51089 C61.2938712,171.274561 61.1416917,170.513664 61.0271078,169.228176 C60.9125239,167.942687 60.8444907,166.587395 60.8230062,165.162258 C60.7585528,160.879684 60.6905196,158.437651 60.6189047,157.836086 L60.7585531,157.524562 C61.0951433,157.567531 61.2634359,157.97215 61.2634359,158.738429 L61.327889,164.571437 L61.5642172,169.233547 C61.5642172,170.902175 62.1156439,171.736476 63.218514,171.736476 C63.898856,171.736476 64.3285392,170.200359 64.5075765,167.128078 C64.5218995,166.920395 64.5559161,165.928543 64.6096273,164.152492 C64.6633385,162.376441 64.6901937,160.235187 64.6901937,157.728664 L64.647225,157.331203 C64.647225,157.166489 64.7528554,157.084133 64.9641195,157.084133 C65.1753836,157.084133 65.3007078,157.132472 65.3400961,157.229152 C65.3794843,157.325832 65.3991781,157.759096 65.3991781,158.528957 C65.3991781,159.298817 65.3526291,159.866357 65.2595297,160.231594 C65.2738526,160.26024 65.281014,160.306789 65.281014,160.371242 C65.281014,160.371242 65.2452071,160.954895 65.1735922,162.122219 L65.1735922,162.122219 Z M70.9369067,158.212062 L69.7445239,158.061672 L69.637102,158.190578 L69.6800708,158.276515 C69.6514248,158.333807 69.637102,158.752748 69.637102,159.533351 C69.637102,160.313954 69.7588456,162.138317 70.0023364,165.006496 C70.2458272,167.874674 70.3675708,170.024881 70.3675708,171.457179 C70.3675708,171.564602 70.3246025,171.661281 70.2386645,171.747219 C70.1527266,171.833156 70.0560479,171.876125 69.9486255,171.876125 L69.7015552,171.693508 L69.6585864,170.092922 L69.7015552,169.319484 C69.7015552,169.118962 69.6729096,168.943508 69.6156177,168.793117 C69.6156177,167.547017 69.5278907,165.731605 69.3524341,163.346828 C69.1769775,160.96205 69.0820891,159.200349 69.0677661,158.061672 C67.9147656,158.061672 67.2988863,157.922025 67.2201099,157.642726 C67.2845633,157.478012 67.4242103,157.395656 67.6390552,157.395656 L70.6253833,157.599758 L71.0228442,157.578273 C71.2878195,157.578273 71.4203052,157.671371 71.4203052,157.85757 C71.4203052,157.957831 71.3665948,158.041977 71.2591724,158.110011 C71.1517499,158.178046 71.0443291,158.212062 70.9369067,158.212062 L70.9369067,158.212062 Z M73.3271744,171.833156 L73.3486588,171.274562 L73.2734635,171.188625 C73.3808859,170.895004 73.4345963,170.594225 73.4345963,170.286281 L73.3271744,167.38589 L73.4775651,160.757961 L73.3916276,158.126125 C73.3916276,157.710758 73.6028885,157.503078 74.0254166,157.503078 C74.190131,157.503078 74.3082939,157.549627 74.3799088,157.642726 C74.4300393,157.657049 74.6413002,157.685695 75.0136979,157.728664 C75.9160461,157.828925 76.3779556,158.01154 76.3994401,158.276515 C76.3994401,158.391099 76.259793,158.530746 75.9804947,158.695461 C75.1712459,158.430485 74.5768508,158.290838 74.1972916,158.276515 L74.0898697,158.405422 C74.1041927,158.613105 74.1113541,158.928206 74.1113541,159.350734 L74.0254166,162.76675 C74.0254166,163.174955 74.1292567,163.379054 74.3369401,163.379054 L75.078151,163.336086 C75.6367475,163.336086 75.923203,163.468571 75.937526,163.733547 C75.937526,163.883938 75.8999287,164.016424 75.824733,164.131008 C75.7495373,164.245591 75.6152613,164.302883 75.421901,164.302883 C75.2285407,164.302883 75.0853129,164.245591 74.9922135,164.131008 L74.2724869,164.023586 L74.1758072,164.023586 L74.0683854,164.131008 L74.0683854,164.195461 C74.0970313,164.57502 74.1113541,165.155092 74.1113541,165.935695 L74.0683854,169.061672 C74.0683854,170.522616 74.1686448,171.331853 74.3691666,171.489406 C74.4980735,171.596828 74.7343993,171.650539 75.078151,171.650539 L75.8945572,171.60757 C76.3242469,171.60757 76.5390885,171.704249 76.5390885,171.897609 C76.5390885,172.162584 76.2204068,172.29507 75.5830338,172.29507 L73.7676041,172.29507 C73.4954673,172.29507 73.3486589,172.1411 73.3271744,171.833156 L73.3271744,171.833156 Z M84.6227156,158.609523 L84.5797468,158.061672 C84.5797468,157.753727 84.6835869,157.599758 84.8912703,157.599758 C85.0345001,157.599758 85.1508727,157.667791 85.2403914,157.803859 C85.32991,157.939928 85.3746687,158.083155 85.3746687,158.233547 L85.3746687,159.705226 L85.2565046,159.887844 C85.2565046,161.033683 85.1777294,163.251922 85.0201765,166.542629 C84.8626236,169.833335 84.7086538,171.632634 84.5582624,171.940578 C84.522455,171.947739 84.4168245,171.974595 84.2413679,172.021144 C84.0659113,172.067694 83.9423774,172.090969 83.8707624,172.090969 C83.7991475,172.090969 83.734695,172.042629 83.6774031,171.945949 C83.6201111,171.849269 83.5753524,171.722154 83.5431257,171.564601 C83.510899,171.407048 83.4804631,171.303208 83.4518171,171.253078 L83.4733015,171.188625 C83.3802021,170.579898 83.188635,169.883453 82.8985945,169.099269 C82.608554,168.315086 82.4205676,167.786933 82.3346296,167.514797 C82.2844992,167.450343 82.087561,166.902497 81.7438093,165.871242 C80.4260944,161.782029 79.5953735,159.572741 79.2516218,159.243312 C79.1370379,159.694486 79.0797468,160.210106 79.0797468,160.790187 L79.1227156,162.519679 L79.0797468,163.583156 C79.0797468,163.74787 79.1083924,164.25991 79.1656843,165.119289 L79.1012312,165.119289 C79.1012312,167.561358 79.1513609,168.91128 79.2516218,169.169094 L79.2516218,171.145656 C79.3089138,171.245917 79.3375593,171.374822 79.3375593,171.532375 C79.3375593,171.876126 79.201493,172.048 78.9293562,172.048 C78.6214119,172.048 78.4674421,171.654124 78.4674421,170.866359 L78.5533796,169.426906 L78.4137312,163.099758 L78.5533796,159.200344 L78.5533796,158.813625 C78.5533796,158.620264 78.5587507,158.491359 78.5694929,158.426906 C78.5802352,158.362453 78.5909772,158.285468 78.6017195,158.195949 C78.6124617,158.10643 78.6285748,158.036607 78.6500593,157.986476 C78.6715438,157.936346 78.6966087,157.879055 78.7252546,157.814601 C78.7825466,157.685694 78.8577411,157.581854 78.9508406,157.503078 L79.0152937,157.578273 L79.2301374,157.524562 C79.3948518,157.581854 79.4951112,157.696436 79.5309187,157.868312 C79.5309187,157.882635 79.5398704,157.923813 79.5577742,157.991847 C79.5756779,158.059882 79.5846296,158.097479 79.5846296,158.10464 C79.8352819,159.150219 80.3616439,160.607561 81.1637312,162.476711 C81.9658185,164.345861 82.4527928,165.547183 82.6246687,166.080715 C82.7965446,166.614246 82.9505144,167.178205 83.0865828,167.772609 C83.3873655,169.090324 83.7167893,170.053531 84.074864,170.662258 L84.1178328,170.597804 C84.454423,167.396617 84.6227156,163.400563 84.6227156,158.609523 L84.6227156,158.609523 Z M84.1608015,172.026515 C84.1751245,172.026515 84.1822859,172.033677 84.1822859,172.048 L84.1608015,172.026515 Z M59.2546468,187.288234 L59.3835531,190.435695 C59.3835531,191.022938 59.2080991,191.316554 58.8571859,191.316554 L58.4167562,190.983547 C58.5528246,189.572732 58.6208578,188.083164 58.6208578,186.514797 C58.6208578,184.946429 58.6709875,183.175777 58.7712484,181.202785 C58.8715093,179.229793 58.921639,177.752757 58.921639,176.771633 C58.921639,176.635564 58.9860915,176.531724 59.1149984,176.460109 C59.2439053,176.388494 59.4480048,176.352687 59.7273031,176.352687 C60.0066014,176.352687 60.4810432,176.406398 61.1506429,176.51382 C61.8202426,176.621243 62.1550375,176.778793 62.1550375,176.986476 C62.1550375,177.237129 61.8936469,177.362453 61.3708578,177.362453 C61.1058825,177.219223 60.8051043,177.147609 60.468514,177.147609 C60.1319238,177.147609 59.9385664,177.154771 59.8884359,177.169094 C59.8383054,177.183417 59.8060792,177.20132 59.7917562,177.222804 C59.7774332,177.244289 59.7595298,177.296209 59.7380453,177.378566 C59.7165608,177.460923 59.6879153,177.537908 59.6521078,177.609523 L59.437264,182.250148 L59.437264,183.023586 C59.437264,183.073716 59.5625883,183.098781 59.8132406,183.098781 C60.543713,183.084458 60.9089437,183.19546 60.9089437,183.431789 C60.9089437,183.553534 60.8516526,183.653794 60.7370687,183.73257 C60.6224848,183.811347 60.5043219,183.850734 60.3825765,183.850734 L59.6521078,183.721828 C59.3871325,183.721828 59.2546468,184.079897 59.2546468,184.796047 L59.2546468,187.288234 Z M58.5564047,180.112453 L58.5564047,180.133937 C58.5564047,180.14826 58.5474529,180.155422 58.5295492,180.155422 C58.5116455,180.155422 58.5026937,180.14826 58.5026937,180.133937 C58.5026937,180.119614 58.5134358,180.112453 58.5349203,180.112453 L58.5564047,180.112453 Z M63.9759692,177.169094 C63.9759692,176.610497 64.1371004,176.331203 64.4593677,176.331203 C65.1755171,176.331203 65.7663315,176.512028 66.2318286,176.873683 C66.6973257,177.235339 66.9300708,177.767072 66.9300708,178.468898 L66.9300708,180.069484 C66.9300708,180.635242 66.6436153,181.444479 66.0706958,182.497219 C65.8773355,182.848132 65.7806567,183.039699 65.7806567,183.071926 C65.7806567,183.104152 66.0581605,184.264297 66.6131763,186.552394 C67.1681921,188.840492 67.4600186,190.02033 67.4886645,190.091945 C67.5173105,190.16356 67.5889244,190.313949 67.7035083,190.543117 C67.8180922,190.772285 67.8753833,190.969223 67.8753833,191.133937 C67.8753833,191.298652 67.7930273,191.381008 67.628313,191.381008 L67.3060474,191.273586 C66.9622956,190.886865 66.5863228,189.454588 66.1781177,186.976711 C65.7842355,184.584772 65.4476503,183.38882 65.168352,183.38882 L65.0824145,183.38882 C64.7601473,183.38882 64.5990161,183.49266 64.5990161,183.700344 C64.5990161,184.502431 64.6455651,185.836239 64.7386645,187.701808 C64.831764,189.567378 64.9105392,190.61115 64.9749927,190.833156 L64.8138599,191.19839 L64.4915942,191.19839 L64.3304614,191.026515 C64.0941321,184.67427 63.9759692,180.055176 63.9759692,177.169094 L63.9759692,177.169094 Z M64.5990161,177.469875 L64.6849536,182.798 L64.7279224,182.840969 C65.0072206,182.840969 65.2578692,182.69595 65.4798755,182.40591 C65.7018818,182.115869 65.8701744,181.763171 65.9847583,181.347804 C66.2210876,180.488425 66.3392505,179.836739 66.3392505,179.392726 C66.3392505,178.948714 66.3249277,178.613919 66.2962817,178.388332 C66.2676358,178.162745 66.206764,177.924629 66.1136645,177.673976 C65.9203042,177.158349 65.5013631,176.900539 64.8568286,176.900539 C64.7708907,176.900539 64.7064382,176.968572 64.6634692,177.10464 C64.6205003,177.240709 64.5990161,177.362452 64.5990161,177.469875 L64.5990161,177.469875 Z M69.8896744,190.897609 L69.8681901,186.38589 L69.8252213,186.38589 L69.9111588,179.757961 L69.8252213,177.126125 C69.8252213,176.918441 69.8914641,176.780585 70.0239518,176.712551 C70.1564394,176.644516 70.3336837,176.615871 70.5556901,176.626613 C70.7776964,176.637355 71.0605712,176.653468 71.4043229,176.674953 C72.2422177,176.717922 72.6969657,176.750148 72.7685807,176.771633 C72.8258726,176.800279 72.8616796,176.855779 72.8760026,176.938136 C72.8903255,177.020494 72.86168,177.097479 72.7900651,177.169094 C72.7184501,177.240708 72.6074486,177.276515 72.4570572,177.276515 L70.6738541,177.276515 L70.5664322,177.405422 C70.5807552,177.613105 70.5879166,177.928206 70.5879166,178.350734 L70.5019791,181.76675 C70.5019791,182.174955 70.5306247,182.379054 70.5879166,182.379054 L71.9951432,182.379054 C72.2601185,182.379054 72.3926041,182.497217 72.3926041,182.733547 C72.3926041,182.912584 72.2493764,183.002101 71.9629166,183.002101 C71.6764569,183.002101 71.5045836,183.009263 71.4472916,183.023586 L70.609401,183.023586 C70.552109,183.023586 70.5306249,183.14712 70.5449479,183.394191 C70.5592709,183.641263 70.5664322,184.155092 70.5664322,184.935695 L70.5234635,188.061672 C70.5234635,188.634591 70.5449477,189.218244 70.5879166,189.812648 C70.5879166,190.371245 70.6165622,190.650539 70.6738541,190.650539 L72.3711197,190.60757 C72.8008094,190.60757 73.015651,190.704249 73.015651,190.897609 C73.015651,191.162584 72.6969693,191.29507 72.0595963,191.29507 L70.3301041,191.359523 C70.0579673,191.359523 69.9111589,191.205553 69.8896744,190.897609 L69.8896744,190.897609 Z M75.9804947,190.629054 L76.796901,190.586086 C77.2194291,190.586086 77.4306901,190.682764 77.4306901,190.876125 C77.4306901,191.1411 77.115589,191.273586 76.4853776,191.273586 L74.6592057,191.273586 C74.4300379,191.273586 74.3029233,191.08739 74.277858,190.714992 C74.2527928,190.342594 74.2402604,189.612133 74.2402604,188.523586 C74.2402604,187.435039 74.233099,186.722481 74.218776,186.38589 L74.3691666,179.757961 L74.2832291,177.126125 C74.2832291,176.710758 74.4980707,176.503078 74.9277604,176.503078 C75.0853132,176.503078 75.1998954,176.549627 75.2715104,176.642726 C75.3216408,176.657049 75.5364824,176.685695 75.9160416,176.728664 C76.8183899,176.828925 77.2802993,177.01154 77.3017838,177.276515 C77.3017838,177.391099 77.1621368,177.530746 76.8828385,177.695461 C76.0735897,177.430485 75.4791946,177.290838 75.0996354,177.276515 L74.9922135,177.405422 C75.0065365,177.613105 75.0136979,177.928206 75.0136979,178.350734 L74.9277604,182.862453 C74.9277604,183.27782 75.0280198,183.4855 75.2285416,183.4855 L75.9804947,183.431789 C76.5390913,183.431789 76.8255468,183.564274 76.8398697,183.82925 C76.8398697,183.929511 76.8022725,184.017238 76.7270768,184.092433 C76.6518811,184.167629 76.5086534,184.205226 76.2973893,184.205226 C76.0861252,184.205226 75.9518492,184.212388 75.8945572,184.226711 L75.1640885,184.119289 L75.078151,184.119289 L74.9707291,184.226711 L74.9707291,184.291164 C74.9993751,184.527493 75.0136979,184.889143 75.0136979,185.376125 L74.9707291,188.040187 C74.9707291,189.501132 75.0709885,190.310369 75.2715104,190.467922 C75.4004173,190.575344 75.636743,190.629054 75.9804947,190.629054 L75.9804947,190.629054 Z" id="Gluten" fill="#5B842E" transform="translate(66.293531, 173.255031) rotate(17.000000) translate(-66.293531, -173.255031) "></path>
                <g id="Group-9-Copy" transform="translate(52.500000, 233.000000) rotate(6.000000) translate(-52.500000, -233.000000) translate(25.000000, 221.000000)">
                    <rect id="Rectangle-231" fill="#C51D1D" x="-1.13686838e-13" y="3.03797468" width="55" height="18.2278481" rx="2.39999986"></rect>
                    <g id="j45" transform="translate(9.065934, 12.151899) rotate(-90.000000) translate(-9.065934, -12.151899) translate(2.719780, 5.772152)">
                        <path d="M10.4057582,2.27653671 L9.93336264,2.40777722 C9.37949451,2.49065316 8.94432967,2.92787848 8.86189011,3.48492152 L8.73134066,3.95981772 L9.20373626,3.82857722 C9.75784615,3.74570127 10.1927692,3.30847595 10.2754505,2.75143291 L10.4057582,2.27653671 L10.4057582,2.27653671 L10.4057582,2.27653671 Z" id="Fill-283" fill="#FFFFFF"></path>
                        <path d="M10.4057582,2.27653671 L9.93336264,2.40777722 C9.37949451,2.49065316 8.94432967,2.92787848 8.86189011,3.48492152 L8.73134066,3.95981772 L9.20373626,3.82857722 C9.75784615,3.74570127 10.1927692,3.30847595 10.2754505,2.75143291 L10.4057582,2.27653671 L10.4057582,2.27653671 L10.4057582,2.27653671 Z" id="Stroke-284" stroke="#FFFFFF" stroke-width="0.5"></path>
                        <path d="M7.67751648,1.59603038 L7.43575824,2.02450633 C7.10213187,2.47704304 7.10213187,3.09533165 7.43575824,3.54786835 L7.67751648,3.9763443 L7.91927473,3.54786835 C8.25265934,3.09533165 8.25265934,2.47704304 7.91927473,2.02450633 L7.67751648,1.59603038 L7.67751648,1.59603038 L7.67751648,1.59603038 Z" id="Fill-285" fill="#FFFFFF"></path>
                        <path d="M7.67751648,1.59603038 L7.43575824,2.02450633 C7.10213187,2.47704304 7.10213187,3.09533165 7.43575824,3.54786835 L7.67751648,3.9763443 L7.91927473,3.54786835 C8.25265934,3.09533165 8.25265934,2.47704304 7.91927473,2.02450633 L7.67751648,1.59603038 L7.67751648,1.59603038 L7.67751648,1.59603038 Z" id="Stroke-286" stroke="#FFFFFF" stroke-width="0.5"></path>
                        <path d="M11.0710769,5.00755443 L10.6448571,4.76451646 C10.1947033,4.42936709 9.57942857,4.42936709 9.12927473,4.76451646 L8.70305495,5.00755443 L9.12927473,5.25059241 C9.57942857,5.58574177 10.1947033,5.58574177 10.6448571,5.25059241 L11.0710769,5.00755443 L11.0710769,5.00755443 L11.0710769,5.00755443 Z" id="Fill-287" fill="#FFFFFF"></path>
                        <path d="M11.0710769,5.00755443 L10.6448571,4.76451646 C10.1947033,4.42936709 9.57942857,4.42936709 9.12927473,4.76451646 L8.70305495,5.00755443 L9.12927473,5.25059241 C9.57942857,5.58574177 10.1947033,5.58574177 10.6448571,5.25059241 L11.0710769,5.00755443 L11.0710769,5.00755443 L11.0710769,5.00755443 Z" id="Stroke-288" stroke="#FFFFFF" stroke-width="0.5"></path>
                        <path d="M6.13896703,3.14272405 L5.89720879,3.5712 C5.56358242,4.02373671 5.56358242,4.64202532 5.89720879,5.09456203 L6.13896703,5.52303797 L6.38072527,5.09456203 C6.71410989,4.64202532 6.71410989,4.02373671 6.38072527,3.5712 L6.13896703,3.14272405 L6.13896703,3.14272405 L6.13896703,3.14272405 Z" id="Fill-289" fill="#FFFFFF"></path>
                        <path d="M6.13896703,3.14272405 L5.89720879,3.5712 C5.56358242,4.02373671 5.56358242,4.64202532 5.89720879,5.09456203 L6.13896703,5.52303797 L6.38072527,5.09456203 C6.71410989,4.64202532 6.71410989,4.02373671 6.38072527,3.5712 L6.13896703,3.14272405 L6.13896703,3.14272405 L6.13896703,3.14272405 Z" id="Stroke-290" stroke="#FFFFFF" stroke-width="0.5"></path>
                        <path d="M9.53252747,6.5542481 L9.10630769,6.31121013 C8.65615385,5.97606076 8.04087912,5.97606076 7.59072527,6.31121013 L7.16450549,6.5542481 L7.59072527,6.79728608 C8.04087912,7.13243544 8.65615385,7.13243544 9.10630769,6.79728608 L9.53252747,6.5542481 L9.53252747,6.5542481 L9.53252747,6.5542481 Z" id="Fill-291" fill="#FFFFFF"></path>
                        <path d="M9.53252747,6.5542481 L9.10630769,6.31121013 C8.65615385,5.97606076 8.04087912,5.97606076 7.59072527,6.31121013 L7.16450549,6.5542481 L7.59072527,6.79728608 C8.04087912,7.13243544 8.65615385,7.13243544 9.10630769,6.79728608 L9.53252747,6.5542481 L9.53252747,6.5542481 L9.53252747,6.5542481 Z" id="Stroke-292" stroke="#FFFFFF" stroke-width="0.5"></path>
                        <path d="M4.60041758,4.68941772 L4.35865934,5.11789367 C4.02503297,5.57043038 4.02503297,6.18871899 4.35865934,6.6412557 L4.60041758,7.06973165 L4.84217582,6.6412557 C5.17556044,6.18871899 5.17556044,5.57043038 4.84217582,5.11789367 L4.60041758,4.68941772 L4.60041758,4.68941772 L4.60041758,4.68941772 Z" id="Fill-293" fill="#FFFFFF"></path>
                        <path d="M4.60041758,4.68941772 L4.35865934,5.11789367 C4.02503297,5.57043038 4.02503297,6.18871899 4.35865934,6.6412557 L4.60041758,7.06973165 L4.84217582,6.6412557 C5.17556044,6.18871899 5.17556044,5.57043038 4.84217582,5.11789367 L4.60041758,4.68941772 L4.60041758,4.68941772 L4.60041758,4.68941772 Z" id="Stroke-294" stroke="#FFFFFF" stroke-width="0.5"></path>
                        <path d="M7.99397802,8.10094177 L7.56775824,7.8579038 C7.1176044,7.52275443 6.50232967,7.52275443 6.05217582,7.8579038 L5.62595604,8.10094177 L6.05217582,8.34397975 C6.50232967,8.67912911 7.1176044,8.67912911 7.56775824,8.34397975 L7.99397802,8.10094177 L7.99397802,8.10094177 L7.99397802,8.10094177 Z" id="Fill-295" fill="#FFFFFF"></path>
                        <path d="M7.99397802,8.10094177 L7.56775824,7.8579038 C7.1176044,7.52275443 6.50232967,7.52275443 6.05217582,7.8579038 L5.62595604,8.10094177 L6.05217582,8.34397975 C6.50232967,8.67912911 7.1176044,8.67912911 7.56775824,8.34397975 L7.99397802,8.10094177 L7.99397802,8.10094177 L7.99397802,8.10094177 Z" id="Stroke-296" stroke="#FFFFFF" stroke-width="0.5"></path>
                        <path d="M3.06186813,6.23611139 L2.82010989,6.66458734 C2.48672527,7.11712405 2.48672527,7.73541266 2.82010989,8.18794937 L3.06186813,8.61642532 L3.30362637,8.18794937 C3.63701099,7.73541266 3.63701099,7.11712405 3.30362637,6.66458734 L3.06186813,6.23611139 L3.06186813,6.23611139 L3.06186813,6.23611139 Z" id="Fill-297" fill="#FFFFFF"></path>
                        <path d="M3.06186813,6.23611139 L2.82010989,6.66458734 C2.48672527,7.11712405 2.48672527,7.73541266 2.82010989,8.18794937 L3.06186813,8.61642532 L3.30362637,8.18794937 C3.63701099,7.73541266 3.63701099,7.11712405 3.30362637,6.66458734 L3.06186813,6.23611139 L3.06186813,6.23611139 L3.06186813,6.23611139 Z" id="Stroke-298" stroke="#FFFFFF" stroke-width="0.5"></path>
                        <path d="M6.45542857,9.64763544 L6.02920879,9.40459747 C5.57905495,9.0694481 4.96378022,9.0694481 4.51362637,9.40459747 L4.08740659,9.64763544 L4.51362637,9.89067342 C4.96378022,10.2258228 5.57905495,10.2258228 6.02920879,9.89067342 L6.45542857,9.64763544 L6.45542857,9.64763544 L6.45542857,9.64763544 Z" id="Fill-299" fill="#FFFFFF"></path>
                        <path d="M6.45542857,9.64763544 L6.02920879,9.40459747 C5.57905495,9.0694481 4.96378022,9.0694481 4.51362637,9.40459747 L4.08740659,9.64763544 L4.51362637,9.89067342 C4.96378022,10.2258228 5.57905495,10.2258228 6.02920879,9.89067342 L6.45542857,9.64763544 L6.45542857,9.64763544 L6.45542857,9.64763544 Z" id="Stroke-300" stroke="#FFFFFF" stroke-width="0.5"></path>
                        <path d="M1.52331868,7.78256203 L1.28156044,8.21128101 C0.948175824,8.66357468 0.948175824,9.28210633 1.28156044,9.73464304 L1.52331868,10.163119 L1.76507692,9.73464304 C2.09846154,9.28210633 2.09846154,8.66357468 1.76507692,8.21128101 L1.52331868,7.78256203 L1.52331868,7.78256203 L1.52331868,7.78256203 Z" id="Fill-301" fill="#FFFFFF"></path>
                        <path d="M1.52331868,7.78256203 L1.28156044,8.21128101 C0.948175824,8.66357468 0.948175824,9.28210633 1.28156044,9.73464304 L1.52331868,10.163119 L1.76507692,9.73464304 C2.09846154,9.28210633 2.09846154,8.66357468 1.76507692,8.21128101 L1.52331868,7.78256203 L1.52331868,7.78256203 L1.52331868,7.78256203 Z" id="Stroke-302" stroke="#FFFFFF" stroke-width="0.5"></path>
                        <path d="M4.91687912,11.1943291 L4.49065934,10.9512911 C4.04050549,10.6161418 3.42523077,10.6161418 2.97531868,10.9512911 L2.54885714,11.1943291 L2.97531868,11.4373671 C3.42523077,11.7725165 4.04050549,11.7725165 4.49065934,11.4373671 L4.91687912,11.1943291 L4.91687912,11.1943291 L4.91687912,11.1943291 Z" id="Fill-303" fill="#FFFFFF"></path>
                        <path d="M4.91687912,11.1943291 L4.49065934,10.9512911 C4.04050549,10.6161418 3.42523077,10.6161418 2.97531868,10.9512911 L2.54885714,11.1943291 L2.97531868,11.4373671 C3.42523077,11.7725165 4.04050549,11.7725165 4.49065934,11.4373671 L4.91687912,11.1943291 L4.91687912,11.1943291 L4.91687912,11.1943291 Z" id="Stroke-304" stroke="#FFFFFF" stroke-width="0.5"></path>
                        <path d="M8.69048352,3.98922532 L0.0548791209,12.6702987" id="Fill-305" fill="#FFFFFF"></path>
                        <path d="M8.69048352,3.98922532 L0.0548791209,12.6702987" id="Stroke-306" stroke="#FFFFFF" stroke-width="0.5"></path>
                        <path d="M8.54325275,1.46187342 L9.91087912,0.0872506329" id="Fill-307" fill="#FFFFFF"></path>
                        <path d="M8.54325275,1.46187342 L9.91087912,0.0872506329" id="Stroke-308" stroke="#FFFFFF" stroke-width="0.5"></path>
                        <path d="M9.56903297,1.80577215 L11.2785055,0.0872506329" id="Fill-309" fill="#FFFFFF"></path>
                        <path d="M9.56903297,1.80577215 L11.2785055,0.0872506329" id="Stroke-310" stroke="#FFFFFF" stroke-width="0.5"></path>
                        <path d="M10.9366593,3.18039494 L12.6461319,1.46187342" id="Fill-311" fill="#FFFFFF"></path>
                        <path d="M10.9366593,3.18039494 L12.6461319,1.46187342" id="Stroke-312" stroke="#FFFFFF" stroke-width="0.5"></path>
                        <path d="M11.1075824,1.63370127 L12.6461319,0.0872506329" id="Fill-313" fill="#FFFFFF"></path>
                        <path d="M11.1075824,1.63370127 L12.6461319,0.0872506329" id="Stroke-314" stroke="#FFFFFF" stroke-width="0.5"></path>
                        <path d="M11.2785055,4.21160506 L12.6461319,2.83673924" id="Fill-315" fill="#FFFFFF"></path>
                        <path d="M11.2785055,4.21160506 L12.6461319,2.83673924" id="Stroke-316" stroke="#FFFFFF" stroke-width="0.5"></path>
                    </g>
                    <path d="M20.6412702,12.4525496 L19.3542702,10.7200497 C19.2057702,10.5121497 19.1166703,10.2547497 19.1166703,10.0072497 L19.1166703,9.47264976 C19.1166703,9.04694979 19.2948702,8.8786498 19.6116702,8.8786498 L19.6314702,8.8786498 C19.9581702,8.8786498 20.1264702,9.05684979 20.1264702,9.47264976 L20.1264702,10.1656497 L21.1164701,10.1161497 L21.1164701,9.54194976 C21.1164701,8.47274982 20.7006702,8.05694985 19.6314702,8.05694985 L19.6116702,8.05694985 C18.5523703,8.05694985 18.1266703,8.48264982 18.1266703,9.54194976 L18.1266703,10.0369497 C18.1266703,10.5913497 18.3147703,10.9873497 18.6414703,11.4328496 L19.9284702,13.1653495 C20.0769702,13.3732495 20.1660702,13.6306495 20.1660702,13.8781495 L20.1660702,14.7592494 C20.1660702,15.1750494 19.9680702,15.3532494 19.6512702,15.3532494 L19.5720702,15.3532494 C19.2453702,15.3532494 19.0770703,15.1750494 19.0770703,14.7592494 L19.0770703,14.0167495 L18.0870703,14.0662495 L18.0870703,14.6899494 C18.0870703,15.7492494 18.5028703,16.1749494 19.5720702,16.1749494 L19.6512702,16.1749494 C20.7402702,16.1749494 21.1560701,15.7591494 21.1560701,14.6899494 L21.1560701,13.8484495 C21.1560701,13.2940495 20.9679701,12.8980496 20.6412702,12.4525496 L20.6412702,12.4525496 Z M21.8679042,8.15594984 L21.8679042,16.0759494 L22.8579042,16.0759494 L22.8579042,8.15594984 L21.8679042,8.15594984 Z M25.9655381,8.15594984 L26.0546381,12.3337496 L26.0942381,13.3732495 L25.8269381,12.3337496 L24.6389382,8.15594984 L23.7875382,8.15594984 L23.7875382,16.0759494 L24.7775382,16.0759494 L24.6884382,11.8189496 L24.6488382,10.8982497 L24.8864382,11.8189496 L26.1041381,16.0759494 L26.9555381,16.0759494 L26.9555381,8.15594984 L25.9655381,8.15594984 Z M32.586706,11.8189496 L31.1017061,11.8189496 L31.1017061,12.6109496 L31.5967061,12.6109496 L31.5967061,14.5414495 C31.5967061,14.9869494 31.3888061,15.3532494 31.0423061,15.3532494 L31.0324061,15.3532494 C30.7255061,15.3532494 30.5473061,15.1849494 30.5473061,14.6602495 L30.5473061,9.47264976 C30.5473061,9.04694979 30.7255061,8.8786498 31.0423061,8.8786498 L31.0621061,8.8786498 C31.3888061,8.8786498 31.5571061,9.05684979 31.5571061,9.47264976 L31.5571061,10.3636497 L32.547106,10.3141497 L32.547106,9.54194976 C32.547106,8.47274982 32.131306,8.05694985 31.0621061,8.05694985 L31.0423061,8.05694985 C29.9830062,8.05694985 29.5573062,8.48264982 29.5573062,9.54194976 L29.5573062,14.6899494 C29.5573062,15.7492494 30.0127062,16.1749494 30.6562061,16.1749494 L30.6958061,16.1749494 C31.1611061,16.1749494 31.4977061,15.8680494 31.725406,15.4423494 L31.963006,16.0759494 L32.586706,16.0759494 L32.586706,11.8189496 Z M34.36774,15.2839494 L34.36774,8.15594984 L33.3777401,8.15594984 L33.3777401,16.0759494 L35.9022399,16.0759494 L35.9022399,15.2839494 L34.36774,15.2839494 Z M36.326974,8.15594984 L36.326974,14.6899494 C36.326974,15.7591494 36.742774,16.1749494 37.811974,16.1749494 L37.831774,16.1749494 C38.9009739,16.1749494 39.3167739,15.7492494 39.3167739,14.6899494 L39.3167739,8.15594984 L38.3267739,8.15594984 L38.3267739,14.7592494 C38.3267739,15.1750494 38.1584739,15.3532494 37.831774,15.3532494 L37.811974,15.3532494 C37.495174,15.3532494 37.316974,15.1750494 37.316974,14.7592494 L37.316974,8.15594984 L36.326974,8.15594984 Z M42.9986078,8.15594984 L39.830608,8.15594984 L39.830608,8.94794979 L40.9196079,8.94794979 L40.9196079,16.0759494 L41.9096079,16.0759494 L41.9096079,8.94794979 L42.9986078,8.94794979 L42.9986078,8.15594984 Z M44.5222418,15.2839494 L44.5222418,12.3634496 L45.9082418,12.3634496 L45.9082418,11.5714496 L44.5222418,11.5714496 L44.5222418,8.94794979 L46.1062417,8.94794979 L46.1062417,8.15594984 L43.5322419,8.15594984 L43.5322419,16.0759494 L46.1557417,16.0759494 L46.1557417,15.2839494 L44.5222418,15.2839494 Z M48.9663757,8.15594984 L49.0554757,12.3337496 L49.0950757,13.3732495 L48.8277757,12.3337496 L47.6397758,8.15594984 L46.7883758,8.15594984 L46.7883758,16.0759494 L47.7783758,16.0759494 L47.6892758,11.8189496 L47.6496758,10.8982497 L47.8872758,11.8189496 L49.1049757,16.0759494 L49.9563756,16.0759494 L49.9563756,8.15594984 L48.9663757,8.15594984 Z" id="SIN-GLUTEN" fill="#FFFFFF"></path>
                    <path d="M14.5054945,1.70530257e-13 L3.62637363,24" id="Line" stroke="#FFFFFF" stroke-width="1.19999993" stroke-linecap="square"></path>
                </g>
            </g>
        </g>
    </g>
</svg>