<?xml version="1.0" encoding="UTF-8" standalone="no"?>
<svg
   xmlns:dc="http://purl.org/dc/elements/1.1/"
   xmlns:cc="http://creativecommons.org/ns#"
   xmlns:rdf="http://www.w3.org/1999/02/22-rdf-syntax-ns#"
   xmlns:svg="http://www.w3.org/2000/svg"
   xmlns="http://www.w3.org/2000/svg"
   xmlns:sodipodi="http://sodipodi.sourceforge.net/DTD/sodipodi-0.dtd"
   xmlns:inkscape="http://www.inkscape.org/namespaces/inkscape"
   width="83.244293"
   height="154.92622"
   viewBox="0 0 83.244293 154.92622"
   version="1.1"
   id="svg2"
   inkscape:version="0.91 r13725"
   sodipodi:docname="sralergeno.svg">
  <metadata
     id="metadata109">
    <rdf:RDF>
      <cc:Work
         rdf:about="">
        <dc:format>image/svg+xml</dc:format>
        <dc:type
           rdf:resource="http://purl.org/dc/dcmitype/StillImage" />
        <dc:title>trigo-si-o-no</dc:title>
      </cc:Work>
    </rdf:RDF>
  </metadata>
  <sodipodi:namedview
     pagecolor="#ffffff"
     bordercolor="#666666"
     borderopacity="1"
     objecttolerance="10"
     gridtolerance="10"
     guidetolerance="10"
     inkscape:pageopacity="0"
     inkscape:pageshadow="2"
     inkscape:window-width="1855"
     inkscape:window-height="1056"
     id="namedview107"
     showgrid="false"
     fit-margin-top="0"
     fit-margin-left="0"
     fit-margin-right="0"
     fit-margin-bottom="0"
     inkscape:zoom="1.3283582"
     inkscape:cx="101.62283"
     inkscape:cy="77.735015"
     inkscape:window-x="1985"
     inkscape:window-y="75"
     inkscape:window-maximized="1"
     inkscape:current-layer="svg2" />
  <!-- Generator: Sketch 3.7.1 (28215) - http://www.bohemiancoding.com/sketch -->
  <title
     id="title4">trigo-si-o-no</title>
  <desc
     id="desc6">Created with Sketch.</desc>
  <defs
     id="defs8" />
  <g
     id="g3802"
     transform="translate(-0.3827909,-0.80878381)">
    <g
       id="mr"
       style="fill:none;fill-rule:evenodd;stroke:none;stroke-width:1">
      <g
         id="Group-12">
        <polyline
           id="Fill-31"
           points="82.8386549 22.3992131 79.3495221 25.491082 80.3401062 23.2457049 82.8386549 22.3992131"
           style="fill:#774e32" />
        <path
           d="m 80.153204,13.816656 c 0,0 -0.690691,4.398688 -1.948885,6.066951 l 0.409486,-3.512132 1.539399,-2.554819"
           id="Fill-32"
           inkscape:connector-curvature="0"
           style="fill:#774e32" />
        <path
           d="m 75.797522,7.7923279 c 0,0 2.743221,3.1660331 0.435823,6.9986881 L 75.87908,11.908853 75.797522,7.7923279"
           id="Fill-33"
           inkscape:connector-curvature="0"
           style="fill:#774e32" />
        <g
           id="Group-11">
          <path
             d="m 60.189334,118.16481 c 0,0 0.955157,1.45626 1.851994,2.31366 0.277894,0.26567 0.550189,0.47385 0.786732,0.56339 C 63.827989,121.42035 64,125 64,125 c 0,0 -3.809841,18.35115 -6,17 -2.190159,-1.35115 -4,-19 -4,-19"
             id="Fill-2"
             inkscape:connector-curvature="0"
             style="fill:#e3bc96" />
          <path
             d="m 13.59292,125.31148 c 0,0 -0.849557,2.55737 1.699115,9.37704 2.548673,6.81968 3.39823,6.81968 3.39823,6.81968 l 6.796461,-5.11476 -7.646018,-15.34426 -4.247788,4.2623 z"
             id="Path-2338"
             inkscape:connector-curvature="0"
             style="fill:#e3bc96;stroke:#d3a784" />
          <path
             d="m 36.478301,155.72977 c -5.512779,-0.0767 -10.976283,-0.0861 -16.375221,-0.80046 -0.04927,-2.96059 0.01699,-3.53685 0.01699,-3.53685 l 39.465345,0.40833 c 0,0 0.116389,0.76721 0.223434,1.9777 -7.803186,0.46118 -15.458549,2.05954 -23.330549,1.95128"
             id="Fill-12"
             inkscape:connector-curvature="0"
             style="fill:#466d89" />
          <g
             id="Group-10"
             transform="translate(11.044248,108.26229)">
            <path
               d="m 7.576354,0.12531148 c 0,0 -4.5672213,2.52754102 -7.55851329,16.93580352 L 10.854797,22.723147 7.576354,0.12531148"
               id="Fill-14"
               inkscape:connector-curvature="0"
               style="fill:#365370" />
            <path
               d="M 5.0837522,15.80118 C 5.051469,11.058951 5.5934867,6.3678688 5.9978761,1.6546229 6.9442832,0.47567213 7.576354,0.12531148 7.576354,0.12531148 L 10.854797,22.723147 5.1534159,19.744656 C 5.1219823,18.430164 5.0922478,17.115672 5.0837522,15.80118"
               id="Fill-15"
               inkscape:connector-curvature="0"
               style="fill:#2e4b63" />
          </g>
          <path
             d="m 61.199575,109.32702 c 0,0 3.382938,2.35023 6.403115,14.44662 l -9.840425,4.53252 c 0,0 -3.094088,-14.89075 3.43731,-18.97914"
             id="Fill-16"
             inkscape:connector-curvature="0"
             style="fill:#365370" />
          <path
             d="m 61.199575,109.32702 c 0,0 0.662655,0.46203 1.662584,2.02118 -1.78492,1.88052 -2.319292,4.97836 -2.57246,7.44537 -0.285451,2.78413 -0.07986,5.50007 0.334726,8.19469 l -2.86216,1.3179 c 0,0 -3.094088,-14.89075 3.43731,-18.97914"
             id="Fill-17"
             inkscape:connector-curvature="0"
             style="fill:#2e4b63" />
          <path
             d="m 59.80715,107.91449 c 0.721275,0.47823 2.268319,2.3238 2.268319,2.3238 0,0 -0.775646,1.01273 -1.066195,1.51056 -2.834124,4.83941 -2.000708,9.30715 -2.41784,18.28354 -0.568354,12.19017 1.638796,22.58505 1.638796,22.58505 0,0 -11.137699,4.20944 -40.89685,0.81751 0,0 -3.604672,-43.31088 -0.849557,-45.52046 2.480525,-1.98935 2.755115,-3.91449 13.539664,-5.04851 10.784549,-1.13402 2.657129,0.0573 4.219486,0.15114 l 5.776142,2.12091 5.383646,-2.25901 c 0,0 5.585841,0.49613 12.404389,5.03547 z"
             id="Fill-18"
             inkscape:connector-curvature="0"
             style="fill:#eeeeee" />
          <path
             d="m 45.61954,111.09928 c -3.089841,1.78079 -2.653168,-2.56675 -3.53246,-4.38761 -0.09175,-0.18839 -0.381452,-0.24977 -0.546266,-0.13298 -0.885239,0.61974 -1.332956,1.5958 -1.737345,2.57357 -0.409487,0.98459 -1.332106,4.02531 -2.874903,2.36131 -1.704212,-1.83705 -1.271787,-5.02013 -3.019327,-6.71396 -2.067823,-2.00158 -3.017628,-1.57364 -4.174726,-1.65207 1.266429,-0.22094 5.103001,-0.63901 6.796461,-0.85246 1.540796,-0.19421 -1.730553,0.64656 1.699115,0.85246 l 3.789026,1.99049 5.383646,-2.25901 c 0,0 3.264,0.2958 7.845664,2.45678 -1.605664,-0.21737 -3.562195,-0.42537 -4.964814,0.37935 -2.142584,1.22924 -2.556319,4.16852 -4.664071,5.38413 z"
             id="Fill-20"
             inkscape:connector-curvature="0"
             style="fill:#d5d5d5" />
          <path
             d="m 44.778478,100.91325 c 0,0 2.617487,0.34524 3.247858,2.12773 0.631222,1.78079 0.602337,5.668 -4.01246,8.15036 0,0 -0.311787,-5.21022 -1.70931,-6.24341 0,0 -3.434761,2.0604 -4.060035,5.56145 0,0 -4.342938,-4.49672 -1.072991,-9.44525 3.269097,-4.946819 7.606938,-0.15088 7.606938,-0.15088"
             id="Fill-21"
             inkscape:connector-curvature="0"
             style="fill:#365370" />
          <path
             d="m 81.12085,62.688984 c 0,0 1.366088,-17.963869 -0.563257,-28.420131 0,0 2.63023,-7.626099 2.281062,-11.86964 l -2.498549,0.846492 c 0,0 1.874124,-5.617705 -0.186902,-9.429049 l -1.539399,2.554819 c 0,0 1.088284,-5.335541 -2.816283,-8.5791471 l 0.08156,4.1165251 c 0,0 -15.560496,-11.908853 -33.401204,-11.05639398 -14.442478,0 -22.088496,5.11475398 -24.637169,6.93986858 C 13.66802,10.780406 8.4955751,17.90164 6.7964602,23.868853 c -1.6991148,5.967213 -2.3337345,18.95954 -2.3337345,18.95954 0,0 -0.7849912,13.832853 0.3890973,19.655148 L 10.991575,78.304328 67.374159,77.179082 75.135717,74.632787 77.558655,63.29082 81.12085,62.688984 5.9469026,11.934426"
             id="Fill-22"
             inkscape:connector-curvature="0"
             style="fill:#8e5c3a" />
          <path
             d="m 20.222867,49.689836 c 0,0 -0.811327,-5.897311 2.161275,-7.849443 2.972601,-1.952983 1.013522,1.010164 1.013522,1.010164 l -3.174797,6.839279"
             id="Fill-23"
             inkscape:connector-curvature="0"
             style="fill:#774e32" />
          <path
             d="m 25.218265,47.862164 c 0,0 -0.762902,-5.130951 3.041416,-6.835869 3.806018,-1.704066 2.133239,0.755279 2.133239,0.755279 l -5.174655,6.08059"
             id="Fill-24"
             inkscape:connector-curvature="0"
             style="fill:#774e32" />
          <path
             d="m 29.718372,47.772656 c 0,0 1.205522,-5.975738 6.488071,-6.673902 5.281699,-0.697311 -10.183647,12.32741 -10.183647,12.32741 l 3.695576,-5.653508"
             id="Fill-25"
             inkscape:connector-curvature="0"
             style="fill:#774e32" />
          <path
             d="m 49.448496,39.539607 c 0,0 1.272637,3.721836 -3.51462,4.720918 -4.788106,0.999934 3.51462,-4.720918 3.51462,-4.720918"
             id="Fill-26"
             inkscape:connector-curvature="0"
             style="fill:#774e32" />
          <path
             d="m 63.019327,40.333246 c 1.873275,1.011016 1.361841,3.933246 0.754408,5.496656 -0.359363,0.92236 -1.592921,1.826819 -2.033841,2.531803 -0.44092,-0.05285 -0.835965,-0.494426 -1.271788,-0.566885 1.423009,-2.129443 2.027894,-4.99541 2.551221,-7.461574"
             id="Fill-27"
             inkscape:connector-curvature="0"
             style="fill:#774e32" />
          <path
             d="m 55.296,42.346754 c 0.974443,-0.983738 0.561557,-2.756 0.887788,-2.506229 0.502088,0.385311 1.174088,1.766295 0.822371,2.969967 -0.350867,1.201967 -2.798442,3.760197 -5.230725,3.856524 -0.141876,0.006 -0.239576,0.07331 -0.300744,0.163672 -0.121487,-0.01449 -0.245522,-0.02898 -0.367009,-0.04859 0.228531,0.0358 1.028815,-0.999082 1.186832,-1.176393 0.360213,-0.402361 0.672,-0.848197 1.086584,-1.174689 0.874195,-0.691344 1.142655,-1.303409 1.914903,-2.084262"
             id="Fill-28"
             inkscape:connector-curvature="0"
             style="fill:#774e32" />
          <path
             d="m 11.169133,59.696 c 0.672849,1.995607 1.102725,5.226426 3.258053,6.261312 2.960708,1.420196 7.011398,0.247213 10.164106,0.184131 4.834832,-0.09633 9.675611,-0.125312 14.501947,-0.489312 9.344283,-0.704131 18.644389,-2.216393 27.925805,-3.500197 3.167151,-0.439016 5.409133,-1.596655 6.995257,-4.387606 0.971894,-1.713443 1.993911,-3.349312 4.011611,-3.912787 1.117168,-0.312853 2.389805,-0.512328 3.51292,-0.238688 -0.123186,5.198294 -0.417982,9.076131 -0.417982,9.076131 L 77.558655,63.29082 75.135717,74.632787 67.374159,77.179082 10.991575,78.304328 4.851823,62.483541 C 4.4270442,60.372852 4.2579823,57.209377 4.2180531,54.03482 6.5364956,56.043213 10.065558,56.420853 11.169133,59.696"
             id="Fill-30"
             inkscape:connector-curvature="0"
             style="fill:#774e32" />
          <path
             d="m 71.796956,73.239869 c 0,0 2.986194,-16.401312 5.225628,-16.977574 2.239434,-0.577115 6.482973,-0.262557 6.601062,5.714033 0.118938,5.974885 -2.870655,8.825508 -5.844956,9.018164 0,0 -1.273487,25.932656 -13.153699,27.762885 -11.881062,1.831933 -17.963894,2.219803 -17.963894,2.219803 0,0 -0.869097,2.94098 -4.706548,3.016 -3.838301,0.0767 -5.103292,-3.61869 -5.103292,-3.61869 0,0 -15.542655,0.32138 -20.092036,-2.83272 C 6.1482478,90.186754 7.4004956,77.446754 6.7166018,76.398229 6.0344071,75.348853 -0.33387611,74.67882 0.44941593,67.488328 1.2344071,60.297836 4.2358938,58.112984 6.624,58.331213 c 2.3872566,0.21823 4.154336,15.86 5.085451,16.107213 0.931115,0.247213 3.605523,1.522492 3.963186,-0.478229 0.357664,-1.999869 1.636248,-30.987738 1.636248,-30.987738 0,0 -0.05862,3.720131 2.913982,6.717377 0,0 0.930266,-6.528984 3.174797,-6.839279 0,0 -0.186053,3.989509 1.820601,5.011607 0,0 1.064496,-6.397705 5.174655,-6.08059 0,0 -3.355752,4.317705 -0.674548,5.991082 0,0 4.382867,-5.968918 7.558513,-6.14623 0,0 -1.865628,6.165836 -0.40354,6.40282 1.460389,0.236131 4.727788,-2.952918 11.372177,-7.401902 0,0 0.450266,2.64859 -2.311646,3.633181 0,0 2.812035,1.539541 9.362124,-1.913771 0,0 -0.472354,2.800328 -2.564814,4.17023 0,0 8.211823,0.101442 9.973805,-4.583672 0,0 1.632,2.22577 -0.681345,5.726819 0,0 6.985911,-1.600918 7.419186,-6.39259 0,0 2.490053,5.396918 0.112142,32.414754 0,0 1.99561,0.859279 2.241982,-0.442426"
             id="Fill-34"
             inkscape:connector-curvature="0"
             style="fill:#e3bc96" />
          <path
             d="m 3.0609558,73.945705 c 1.9149026,0.04177 4.3420884,0.686229 5.3590088,2.491738 0.8758938,1.55659 1.2352566,12.841442 7.5678584,17.73541 7.024991,5.428458 20.210973,4.925508 21.428389,5.309967 1.623505,0.514885 1.553841,1.89331 2.843469,2.56249 0.575151,0.29836 1.389027,0.0691 1.987116,0.0136 1.792566,-0.16367 1.99646,-1.60347 3.431362,-2.315278 2.24623,-1.110754 5.718372,-0.667475 8.178691,-0.902754 2.682053,-0.25659 5.380247,-0.548131 8.017274,-1.126951 3.416071,-0.749311 7.64177,-2.317836 9.060531,-6.092524 1.848637,-4.913574 3.469593,-9.776853 4.144991,-14.963213 0.325381,-2.490886 0.435823,-6.278361 3.669239,-6.523869 0.72892,-0.05626 1.423858,-0.187541 2.082265,-0.395541 -0.924318,0.76977 -1.988814,1.18577 -3.05246,1.255672 0,0 -1.273487,25.932656 -13.153699,27.762885 -11.881062,1.831933 -17.963894,2.219803 -17.963894,2.219803 0,0 -0.869097,2.94098 -4.706548,3.016 -3.838301,0.0767 -5.103292,-3.61869 -5.103292,-3.61869 0,0 -17.219682,0.74164 -22.277947,-3.962228 C 6.4133097,88.82282 7.4004956,77.446754 6.7166018,76.398229 6.3495929,75.833049 4.3386903,75.369311 2.6795044,73.949115 c 0.124885,-0.0043 0.2523186,-0.0068 0.3814514,-0.0034"
             id="Fill-35"
             inkscape:connector-curvature="0"
             style="fill:#d3a784" />
          <path
             d="m 69.039292,44.10282 c -1.404319,1.410819 -2.414442,2.997246 -4.384566,3.724393 -0.61508,0.228459 -4.315752,1.15082 -3.47554,-0.06479 0.585345,-0.845639 1.234407,-1.642688 1.289628,-2.703147 0.01104,-0.254886 -0.277805,-0.454361 -0.511434,-0.37423 -2.834123,0.969246 -5.43207,2.468721 -8.481132,2.646033 -0.328779,0.01875 -2.885947,0.274492 -2.164673,-0.479934 0.469805,-0.492722 0.971894,-0.947082 1.375434,-1.496066 0.214938,-0.290689 -0.15377,-0.673443 -0.458761,-0.57541 -1.217416,0.388721 -2.401699,0.88741 -3.625062,1.255672 -0.76885,0.230164 -1.567434,0.482492 -2.371965,0.535345 -0.298195,0.01961 -3.208779,0.306032 -1.852035,-1.367345 0.322832,-0.397246 -0.190301,-0.899344 -0.571752,-0.552393 -1.847788,1.679344 -4.236744,3.505311 -6.70131,4.116524 -3.525664,0.872066 -2.535929,-2.357049 -1.874124,-4.35436 0.125734,-0.381902 -0.413734,-0.664066 -0.67285,-0.37423 -1.450194,1.629902 -2.793345,3.051803 -4.022654,4.840263 -1.904708,2.767934 -2.761912,-1.818295 -2.809487,-3.027935 -0.01444,-0.368262 -0.579398,-0.567738 -0.744213,-0.185836 -0.199646,0.465443 -0.34577,0.921508 -0.47915,1.411672 -0.180106,0.665771 -0.894584,3.489967 -2.546973,1.690426 -0.735717,-0.802164 -1.13416,-1.777377 -1.406018,-2.819082 -0.096,-0.364 -0.705982,-0.381901 -0.766301,0.01534 -0.132531,0.894229 -0.106195,1.741573 -0.03653,2.640918 0.137628,1.796983 -2.044885,1.687016 -3.203681,0.963278 -0.55816,-0.35036 -1.048354,-0.789377 -1.475682,-1.28977 0.146124,-3.157508 0.240425,-5.305705 0.240425,-5.305705 0,0 -0.05862,3.720131 2.913982,6.717377 0,0 0.930266,-6.528984 3.174797,-6.839279 0,0 -0.186053,3.989509 1.820601,5.011607 0,0 1.064496,-6.397705 5.174655,-6.08059 0,0 -3.355752,4.317705 -0.674548,5.991082 0,0 4.382867,-5.968918 7.558513,-6.14623 0,0 -1.865628,6.165836 -0.40354,6.40282 1.460389,0.236131 4.727788,-2.952918 11.372177,-7.401902 0,0 0.450266,2.64859 -2.311646,3.633181 0,0 2.812035,1.539541 9.362124,-1.913771 0,0 -0.472354,2.800328 -2.564814,4.17023 0,0 8.211823,0.101442 9.973805,-4.583672 0,0 1.632,2.22577 -0.681345,5.726819 0,0 6.985911,-1.600918 7.419186,-6.39259 0,0 0.265062,0.581377 0.538619,2.29141 -0.361062,0.07672 -0.723823,0.326492 -0.942159,0.543869"
             id="Fill-36"
             inkscape:connector-curvature="0"
             style="fill:#d3a784" />
          <path
             d="m 71.796956,73.239869 c 0,0 2.986194,-16.401312 5.225628,-16.977574 1.739894,-0.447541 4.678513,-0.345246 5.963894,2.515607 -0.450266,-0.290689 -0.953204,-0.497836 -1.479929,-0.613771 -2.028744,-1.201967 -4.063434,-0.477377 -5.294443,1.822557 -0.82577,1.547214 -1.084035,3.224001 -1.268389,4.911017 -0.285452,0.999934 -0.561558,2.004983 -0.792637,3.015147 -0.389947,1.713443 -0.65246,3.835214 -1.683823,5.300591 -0.585346,0.831147 -0.976991,0.936852 -1.246301,0.687934 0.279504,-0.08695 0.503787,-0.279607 0.576,-0.661508"
             id="Fill-37"
             inkscape:connector-curvature="0"
             style="fill:#d3a784" />
          <path
             d="m 6.624,58.331213 c 2.3872566,0.21823 4.154336,15.86 5.085451,16.107213 0.931115,0.247213 3.605523,1.522492 3.963186,-0.478229 0.03313,-0.187541 0.07476,-0.619738 0.124036,-1.236918 0.273557,1.272721 0.377203,2.58295 -0.551363,3.390229 -0.188602,0.16282 -0.393345,0.294099 -0.605735,0.40918 -2.394902,0.477378 -3.517168,-0.955606 -4.534938,-2.917114 C 9.171823,70.130951 9.0877168,66.059607 7.6596106,62.654033 6.6902655,60.344721 3.4687434,59.834951 2.0797168,61.896197 1.9471858,62.021508 1.816354,62.15023 1.6889203,62.28577 2.991292,59.205836 4.9563186,58.178623 6.624,58.331213"
             id="Fill-38"
             inkscape:connector-curvature="0"
             style="fill:#d3a784" />
          <path
             d="M 67.283257,58.70118 58.40538,52.012787 c 0,0 2.55462,-4.508656 7.760708,-0.797049 5.206089,3.710754 1.117169,7.485442 1.117169,7.485442"
             id="Fill-43"
             inkscape:connector-curvature="0"
             style="fill:#8e5c3a" />
          <path
             d="M 30.543292,54.245377 20.552496,58.448 c 0,0 -1.982868,-4.206033 2.340531,-6.581836 4.324247,-2.374951 7.650265,2.379213 7.650265,2.379213"
             id="Fill-44"
             inkscape:connector-curvature="0"
             style="fill:#8e5c3a" />
          <path
             d="m 21.696,63.255016 c 0.05862,2.931607 2.473912,5.260525 5.396389,5.201705 2.91993,-0.05797 5.24262,-2.480655 5.184,-5.413114 -0.05692,-2.933312 -2.474761,-5.26223 -5.39469,-5.204263 -2.921628,0.05882 -5.243469,2.482361 -5.185699,5.415672"
             id="Fill-45"
             inkscape:connector-curvature="0"
             style="fill:#47413e" />
          <path
             d="m 27.239363,62.317312 c 0.693239,1.116721 1.895363,1.623081 2.685451,1.128655 0.78754,-0.491869 0.866549,-1.796131 0.17331,-2.91541 -0.693239,-1.116721 -1.894513,-1.621377 -2.682903,-1.129508 -0.789239,0.494426 -0.869097,1.800394 -0.175858,2.916263"
             id="Fill-46"
             inkscape:connector-curvature="0"
             style="fill:#ffffff" />
          <path
             d="m 53.313133,62.090557 c 0.05777,2.932459 2.473911,5.261377 5.396389,5.202558 2.920779,-0.05797 5.243469,-2.480656 5.18485,-5.413967 -0.05777,-2.93246 -2.473912,-5.261378 -5.39554,-5.20341 -2.923328,0.05882 -5.244319,2.48236 -5.185699,5.414819"
             id="Fill-47"
             inkscape:connector-curvature="0"
             style="fill:#47413e" />
          <path
             d="m 58.856496,61.152853 c 0.691539,1.116721 1.895362,1.624786 2.685451,1.129508 0.78754,-0.491869 0.867398,-1.796984 0.174159,-2.914558 -0.694938,-1.116721 -1.894513,-1.622229 -2.684602,-1.129508 -0.789238,0.493574 -0.869097,1.798689 -0.175008,2.914558"
             id="Fill-48"
             inkscape:connector-curvature="0"
             style="fill:#ffffff" />
          <path
             d="m 50.273416,58.291147 c 0,0 3.140814,17.526558 -1.398372,21.050623 -4.539186,3.524066 -10.975433,3.021968 -14.270018,-1.186623 -3.296283,-4.20859 -1.128212,-14.599213 1.106124,-18.159934 2.233487,-3.560721 11.087576,-7.871606 14.562266,-1.704066"
             id="Fill-49"
             inkscape:connector-curvature="0"
             style="fill:#d3a784" />
          <path
             d="m 49.503717,57.341508 c 0,0 2.977699,16.614426 -1.32446,19.954361 -4.303859,3.340787 -10.404531,2.865967 -13.527505,-1.124394 -3.126372,-3.99036 -1.068743,-13.838819 1.048354,-17.214557 2.117097,-3.374885 10.509876,-7.461574 13.803611,-1.61541"
             id="Fill-50"
             inkscape:connector-curvature="0"
             style="fill:#e3bc96" />
          <path
             d="m 26.005805,79.696393 c 0,0 -1.230159,-2.046754 -2.626832,-1.853246 -1.397522,0.194361 -1.377982,0.965837 -1.753486,1.488394 -0.376354,0.521705 -1.019469,-0.03495 -0.90308,-0.758689 0.11554,-0.72459 0.760354,-2.568459 3.228319,-1.981967 2.466265,0.587344 2.761911,2.470427 2.761911,2.470427 0,0 0.04757,1.161049 -0.706832,0.635081"
             id="Fill-51"
             inkscape:connector-curvature="0"
             style="fill:#d3a784" />
          <path
             d="m 60.07646,80.455082 c 0,0 -0.19115,15.790098 -20.376637,14.673377 C 19.515186,94.01259 23.292319,80.552262 23.292319,80.552262 c 0,0 0.476601,-1.219016 1.19023,-0.02387 0.713628,1.196853 -0.251469,4.674886 1.679575,7.200722 1.931894,2.525836 5.866195,6.471869 14.136637,6.08741 8.268743,-0.385312 16.373522,-2.91882 18.29692,-13.331607 0,0 0.797735,-1.721115 1.480779,-0.02984"
             id="Fill-52"
             inkscape:connector-curvature="0"
             style="fill:#d3a784" />
          <path
             d="m 6.3156106,70.939082 c 0,0 1.4433982,-7.571541 -1.712708,-5.950164 -1.9369911,0.993115 -1.8138052,3.443082 -0.7926371,4.812131 0.643115,0.858426 1.7016637,1.309377 2.5053451,1.138033"
             id="Fill-53"
             inkscape:connector-curvature="0"
             style="fill:#d3a784" />
          <path
             d="m 6.3147611,70.844459 0.2693097,-1.943607 c 0,0 -3.8230088,-3.354426 -3.4007788,-0.491868 0.4222301,2.864262 3.1314691,2.435475 3.1314691,2.435475"
             id="Fill-54"
             inkscape:connector-curvature="0"
             style="fill:#c4987a" />
        </g>
        <path
           d="m 77.454159,67.265836 c 0,0 -0.096,-7.707082 2.72793,-5.556328 1.731398,1.318754 1.182584,3.709049 -0.06287,4.877771 -0.784141,0.731409 -1.903858,0.988852 -2.665062,0.678557"
           id="Fill-55"
           inkscape:connector-curvature="0"
           style="fill:#d3a784" />
        <path
           d="m 77.47115,67.172918 0.07476,-1.960656 c 0,0 4.350584,-2.629836 3.433061,0.115082 -0.914973,2.745771 -3.507823,1.845574 -3.507823,1.845574"
           id="Fill-56"
           inkscape:connector-curvature="0"
           style="fill:#c4987a" />
      </g>
    </g>
  </g>
</svg>
